<?xml version="1.0" encoding="UTF-8" standalone="no"?>
<svg
   xmlns:dc="http://purl.org/dc/elements/1.1/"
   xmlns:cc="http://creativecommons.org/ns#"
   xmlns:rdf="http://www.w3.org/1999/02/22-rdf-syntax-ns#"
   xmlns:svg="http://www.w3.org/2000/svg"
   xmlns="http://www.w3.org/2000/svg"
   xmlns:sodipodi="http://sodipodi.sourceforge.net/DTD/sodipodi-0.dtd"
   xmlns:inkscape="http://www.inkscape.org/namespaces/inkscape"
   sodipodi:docname="MpData_4.svg"
   inkscape:version="1.0 (4035a4f, 2020-05-01)"
   id="svg1640"
   version="1.1"
   viewBox="0 0 7.0015001 3.4633301"
   height="3.46333mm"
   width="7.0015001mm">
  <defs
     id="defs1634" />
  <sodipodi:namedview
     inkscape:window-maximized="0"
     inkscape:window-y="23"
     inkscape:window-x="0"
     inkscape:window-height="956"
     inkscape:window-width="1680"
     showgrid="false"
     inkscape:document-rotation="0"
     inkscape:current-layer="layer1"
     inkscape:document-units="mm"
     inkscape:cy="3.7034396"
     inkscape:cx="10.488592"
     inkscape:zoom="22.512827"
     inkscape:pageshadow="2"
     inkscape:pageopacity="0"
     borderopacity="1.0"
     bordercolor="#666666"
     pagecolor="#ffffff"
     id="base"
     inkscape:pagecheckerboard="true" />
  <metadata
     id="metadata1637">
    <rdf:RDF>
      <cc:Work
         rdf:about="">
        <dc:format>image/svg+xml</dc:format>
        <dc:type
           rdf:resource="http://purl.org/dc/dcmitype/StillImage" />
        <dc:title></dc:title>
      </cc:Work>
    </rdf:RDF>
  </metadata>
  <g
     transform="translate(-103.23869,-146.58177)"
     id="layer1"
     inkscape:groupmode="layer"
     inkscape:label="Layer 1">
    <path
       d="m 110.24019,146.64597 v -0.0321 c 0,0 -0.0435,-0.0321 -0.0435,-0.0321 h -6.91296 c -0.0435,0 -0.0435,0 -0.0435,0.0321 v 0.22411 c 0,0 0.0435,0.0321 0.0435,0.0321 h 6.78254 z"
       class="st9"
       id="path2410"
       style="opacity:1;mix-blend-mode:normal;fill:#3d53a0;fill-opacity:1;stroke-width:0.373085" />
    <path
       style="opacity:1;mix-blend-mode:normal;fill:#3d53a0;fill-opacity:1;stroke-width:0.351119"
       id="path4442"
       class="st9"
       d="m 109.44019,147.17514 v -0.0321 c 0,0 -0.0385,-0.0321 -0.0385,-0.0321 h -6.12292 c -0.0385,0 -0.0385,0 -0.0385,0.0321 v 0.22411 c 0,0 0.0385,0.0321 0.0385,0.0321 h 6.00741 z" />
    <path
       d="m 108.64013,147.70431 v -0.0321 c 0,0 -0.0336,-0.0321 -0.0336,-0.0321 h -5.33278 c -0.0336,0 -0.0336,0 -0.0336,0.0321 v 0.22411 c 0,0 0.0336,0.0321 0.0336,0.0321 h 5.23217 z"
       class="st9"
       id="path4444"
       style="opacity:1;mix-blend-mode:normal;fill:#3d53a0;fill-opacity:1;stroke-width:0.327682" />
    <path
       style="opacity:1;mix-blend-mode:normal;fill:#e6e6e6;fill-opacity:1;stroke-width:0.302439"
       id="path4446"
       class="st9"
       d="m 107.84019,148.23348 v -0.0321 c 0,0 -0.0287,-0.0321 -0.0287,-0.0321 h -4.5428 c -0.0285,0 -0.0285,0 -0.0285,0.0321 v 0.22411 c 0,0 0.0285,0.0321 0.0285,0.0321 h 4.4571 z" />
    <path
       d="m 107.04025,148.76265 v -0.0321 c 0,0 -0.0236,-0.0321 -0.0236,-0.0321 h -3.75282 c -0.0236,0 -0.0236,0 -0.0236,0.0321 v 0.22411 c 0,0 0.0236,0.0321 0.0236,0.0321 h 3.68202 z"
       class="st9"
       id="path4448"
       style="opacity:1;mix-blend-mode:normal;fill:#e6e6e6;fill-opacity:1;stroke-width:0.274887" />
    <path
       style="opacity:1;mix-blend-mode:normal;fill:#e6e6e6;fill-opacity:1;stroke-width:0.244245"
       id="path4450"
       class="st9"
       d="m 106.24024,149.29182 v -0.0321 c 0,0 -0.0186,-0.0321 -0.0186,-0.0321 h -2.9628 c -0.0186,0 -0.0186,0 -0.0186,0.0321 v 0.22411 c 0,0 0.0186,0.0321 0.0186,0.0321 h 2.90689 z" />
    <path
       d="m 105.43871,149.82099 v -0.0321 c 0,0 -0.0154,-0.0321 -0.0154,-0.0321 h -2.16922 c -0.0154,0 -0.0154,0 -0.0154,0.0321 v 0.22411 c 0,0 0.0154,0.0321 0.0154,0.0321 h 2.12831 z"
       class="st9"
       id="path4452"
       style="opacity:1;mix-blend-mode:normal;fill:#e6e6e6;fill-opacity:1;stroke-width:0.208992" />
  </g>
</svg>
