<?xml version="1.0" encoding="UTF-8" standalone="no"?>
<svg
   xmlns:osb="http://www.openswatchbook.org/uri/2009/osb"
   xmlns:dc="http://purl.org/dc/elements/1.1/"
   xmlns:cc="http://creativecommons.org/ns#"
   xmlns:rdf="http://www.w3.org/1999/02/22-rdf-syntax-ns#"
   xmlns:svg="http://www.w3.org/2000/svg"
   xmlns="http://www.w3.org/2000/svg"
   xmlns:xlink="http://www.w3.org/1999/xlink"
   xmlns:sodipodi="http://sodipodi.sourceforge.net/DTD/sodipodi-0.dtd"
   xmlns:inkscape="http://www.inkscape.org/namespaces/inkscape"
   sodipodi:docname="mpKnob.svg"
   inkscape:version="1.0 (4035a4f, 2020-05-01)"
   id="svg5477"
   version="1.1"
   viewBox="0 0 8 8"
   height="8mm"
   width="8mm">
  <defs
     id="defs5471">
    <inkscape:path-effect
       end_linecap_type="zerowidth"
       scale_width="1"
       miter_limit="4"
       linejoin_type="extrp_arc"
       start_linecap_type="zerowidth"
       interpolator_beta="0.2"
       interpolator_type="CubicBezierJohan"
       sort_points="true"
       offset_points="0,0.1322915"
       lpeversion="1"
       is_visible="true"
       id="path-effect996"
       effect="powerstroke" />
    <inkscape:path-effect
       end_linecap_type="zerowidth"
       scale_width="1"
       miter_limit="4"
       linejoin_type="extrp_arc"
       start_linecap_type="zerowidth"
       interpolator_beta="0.2"
       interpolator_type="CubicBezierJohan"
       sort_points="true"
       offset_points="0,0.1322915"
       lpeversion="1"
       is_visible="true"
       id="path-effect990"
       effect="powerstroke" />
    <inkscape:path-effect
       end_linecap_type="zerowidth"
       scale_width="1"
       miter_limit="4"
       linejoin_type="extrp_arc"
       start_linecap_type="zerowidth"
       interpolator_beta="0.2"
       interpolator_type="CubicBezierJohan"
       sort_points="true"
       offset_points="0,0.1322915"
       lpeversion="1"
       is_visible="true"
       id="path-effect986"
       effect="powerstroke" />
    <inkscape:path-effect
       end_linecap_type="zerowidth"
       scale_width="1"
       miter_limit="4"
       linejoin_type="extrp_arc"
       start_linecap_type="zerowidth"
       interpolator_beta="0.2"
       interpolator_type="CubicBezierJohan"
       sort_points="true"
       offset_points="0,0.1322915"
       lpeversion="1"
       is_visible="true"
       id="path-effect982"
       effect="powerstroke" />
    <linearGradient
       osb:paint="solid"
       id="linearGradient935">
      <stop
         id="stop933"
         offset="0"
         style="stop-color:#b0b7b2;stop-opacity:1;" />
    </linearGradient>
    <linearGradient
       osb:paint="gradient"
       id="linearGradient8032">
      <stop
         style="stop-color:#292c31;stop-opacity:0;"
         offset="0"
         id="stop8030" />
      <stop
         style="stop-color:#b8bfba;stop-opacity:0.99607843"
         offset="1"
         id="stop8028" />
    </linearGradient>
    <linearGradient
       osb:paint="solid"
       id="linearGradient8024">
      <stop
         id="stop8022"
         offset="0"
         style="stop-color:#0d0d0d;stop-opacity:1;" />
    </linearGradient>
    <linearGradient
       osb:paint="gradient"
       id="linearGradient8016">
      <stop
         style="stop-color:#c87137;stop-opacity:0;"
         offset="0"
         id="stop8014" />
      <stop
         style="stop-color:#afdebf;stop-opacity:1;"
         offset="1"
         id="stop8012" />
    </linearGradient>
    <linearGradient
       osb:paint="solid"
       id="linearGradient8004">
      <stop
         id="stop8002"
         offset="0"
         style="stop-color:#000000;stop-opacity:1;" />
    </linearGradient>
    <inkscape:path-effect
       effect="perspective-envelope"
       up_left_point="-26.09,-3.9785156"
       up_right_point="-19.56,-3.9785156"
       down_left_point="-24.29,6.49"
       down_right_point="-21.450252,6.408343"
       id="path-effect7897"
       is_visible="true"
       lpeversion="1"
       deform_type="perspective"
       horizontal_mirror="false"
       vertical_mirror="false"
       overflow_perspective="false" />
    <inkscape:path-effect
       overflow_perspective="false"
       vertical_mirror="false"
       horizontal_mirror="false"
       deform_type="perspective"
       lpeversion="1"
       is_visible="true"
       id="path-effect7883"
       down_right_point="-21.450252,6.408343"
       down_left_point="-24.29,6.49"
       up_right_point="-19.56,-3.9785156"
       up_left_point="-26.09,-3.9785156"
       effect="perspective-envelope" />
    <linearGradient
       gradientTransform="matrix(0.35501994,0,0,0.35501994,-265.53054,136.88121)"
       gradientUnits="userSpaceOnUse"
       y2="105.20351"
       x2="285.09772"
       y1="105.20351"
       x1="263.30865"
       id="linearGradient3056"
       xlink:href="#linearGradient3054"
       inkscape:collect="always" />
    <linearGradient
       osb:paint="solid"
       id="linearGradient3054">
      <stop
         id="stop3052"
         offset="0"
         style="stop-color:#d1d5d2;stop-opacity:1;" />
    </linearGradient>
    <linearGradient
       osb:paint="solid"
       id="linearGradient3145">
      <stop
         id="stop3143"
         offset="0"
         style="stop-color:#aeb4af;stop-opacity:1;" />
    </linearGradient>
    <linearGradient
       osb:paint="solid"
       id="linearGradient4116">
      <stop
         id="stop4114"
         offset="0"
         style="stop-color:#b1b8b3;stop-opacity:1;" />
    </linearGradient>
    <linearGradient
       osb:paint="solid"
       id="linearGradient3048">
      <stop
         id="stop3046"
         offset="0"
         style="stop-color:#0c0c0c;stop-opacity:1;" />
    </linearGradient>
    <linearGradient
       inkscape:collect="always"
       xlink:href="#linearGradient3048"
       id="linearGradient3082"
       gradientUnits="userSpaceOnUse"
       x1="263.30865"
       y1="105.20351"
       x2="285.09772"
       y2="105.20351"
       gradientTransform="matrix(0.15934344,0,0,0.15934344,130.53808,151.41946)" />
    <filter
       id="filter1256"
       style="color-interpolation-filters:sRGB;"
       inkscape:menu-tooltip="HSL edges detection bump with a wavy reflective surface effect and variable crumple"
       inkscape:menu="Bumps"
       height="1.4"
       width="1.4"
       x="-0.2"
       y="-0.2"
       inkscape:label="Plastify">
      <feGaussianBlur
         id="feGaussianBlur1236"
         result="result14"
         stdDeviation="1" />
      <feFlood
         id="feFlood1238"
         flood-color="rgb(55,200,113)"
         result="result15"
         flood-opacity="1" />
      <feTurbulence
         id="feTurbulence1240"
         type="fractalNoise"
         seed="25"
         baseFrequency="0.004 0.008"
         numOctaves="1"
         result="result5" />
      <feDisplacementMap
         id="feDisplacementMap1242"
         scale="100"
         xChannelSelector="R"
         in="result5"
         result="result8"
         yChannelSelector="B"
         in2="result14" />
      <feGaussianBlur
         id="feGaussianBlur1244"
         result="result17"
         stdDeviation="1" />
      <feSpecularLighting
         id="feSpecularLighting1248"
         specularExponent="50"
         specularConstant="1"
         surfaceScale="-10"
         result="result2"
         lighting-color="rgb(255,255,255)"
         in="result8">
        <feDistantLight
           id="feDistantLight1246"
           elevation="80"
           azimuth="225" />
      </feSpecularLighting>
      <feBlend
         id="feBlend1250"
         in2="SourceGraphic"
         result="result9"
         mode="screen" />
      <feComposite
         id="feComposite1252"
         result="result11"
         in2="SourceGraphic"
         operator="atop" />
      <feDisplacementMap
         id="feDisplacementMap1254"
         in2="result5"
         xChannelSelector="R"
         scale="0"
         in="result11"
         result="result16" />
    </filter>
    <linearGradient
       y2="105.20351"
       x2="285.09772"
       y1="105.20351"
       x1="263.30865"
       gradientTransform="matrix(0.21857811,0,0,0.21857811,124.87909,145.18776)"
       gradientUnits="userSpaceOnUse"
       id="linearGradient2607"
       xlink:href="#linearGradient3048"
       inkscape:collect="always" />
    <linearGradient
       y2="105.20351"
       x2="285.09772"
       y1="105.20351"
       x1="263.30865"
       gradientTransform="matrix(0.35501994,0,0,0.35501994,-265.53054,147.46455)"
       gradientUnits="userSpaceOnUse"
       id="linearGradient2609"
       xlink:href="#linearGradient3054"
       inkscape:collect="always" />
  </defs>
  <sodipodi:namedview
     inkscape:object-nodes="true"
     inkscape:snap-intersection-paths="false"
     inkscape:snap-page="false"
     showguides="false"
     id="base"
     pagecolor="#ffffff"
     bordercolor="#666666"
     borderopacity="1.0"
     inkscape:pageopacity="0.0"
     inkscape:pageshadow="2"
     inkscape:zoom="19.594607"
     inkscape:cx="27.018266"
     inkscape:cy="24.858275"
     inkscape:document-units="mm"
     inkscape:current-layer="layer1"
     inkscape:document-rotation="0"
     showgrid="false"
     inkscape:window-width="1920"
     inkscape:window-height="1080"
     inkscape:window-x="0"
     inkscape:window-y="0"
     inkscape:window-maximized="0" />
  <metadata
     id="metadata5474">
    <rdf:RDF>
      <cc:Work
         rdf:about="">
        <dc:format>image/svg+xml</dc:format>
        <dc:type
           rdf:resource="http://purl.org/dc/dcmitype/StillImage" />
        <dc:title />
      </cc:Work>
    </rdf:RDF>
  </metadata>
  <g
     inkscape:label="Layer 1"
     inkscape:groupmode="layer"
     id="layer1"
     transform="translate(-170.23056,-164.18294)">
    <circle
       transform="rotate(-90)"
       r="3.7277517"
       cy="174.23056"
       cx="-168.18294"
       id="path3044"
       style="opacity:0.993569;fill:url(#linearGradient3056);fill-opacity:1;stroke:#292c31;stroke-width:0.28011;stroke-linecap:round;stroke-linejoin:bevel;stroke-miterlimit:10;stroke-dasharray:none;stroke-opacity:1;paint-order:markers stroke fill" />
    <circle
       style="opacity:1;fill:#b6bfb9;fill-opacity:1;stroke:none;stroke-width:0.240163;stroke-linecap:round;stroke-linejoin:bevel;stroke-miterlimit:10;stroke-dasharray:none;stroke-opacity:1;paint-order:markers stroke fill"
       id="circle5759"
       cx="174.23056"
       cy="168.18294"
       r="3.1972311" />
    <circle
       r="2.4542115"
       cy="168.18294"
       cx="174.23056"
       id="circle5757"
       style="opacity:1;fill:#d1d5d2;fill-opacity:0.99607843;stroke:none;stroke-width:0.184352;stroke-linecap:round;stroke-linejoin:bevel;stroke-miterlimit:10;stroke-dasharray:none;stroke-opacity:1;paint-order:markers stroke fill" />
    <circle
       style="opacity:0.993569;fill:#bdc7c7;fill-opacity:0.998039;stroke:none;stroke-width:0.176102;stroke-linecap:round;stroke-linejoin:bevel;stroke-miterlimit:10;stroke-dasharray:none;stroke-opacity:1;paint-order:markers stroke fill"
       id="circle3080-5"
       cx="174.23056"
       cy="168.18294"
       r="2.3444185" />
    <circle
       style="opacity:0.993569;fill:#d1d5d2;fill-opacity:1;stroke:none;stroke-width:0.138244;stroke-linecap:round;stroke-linejoin:bevel;stroke-miterlimit:10;stroke-dasharray:none;stroke-opacity:1;paint-order:markers stroke fill"
       id="circle4920"
       cx="174.23056"
       cy="168.18294"
       r="1.8404375" />
    <circle
       r="1.673125"
       cy="168.18294"
       cx="174.23056"
       id="circle3080"
       style="opacity:0.993569;fill:url(#linearGradient3082);fill-opacity:1;stroke:none;stroke-width:0.125676;stroke-linecap:round;stroke-linejoin:bevel;stroke-miterlimit:10;stroke-dasharray:none;stroke-opacity:1;paint-order:markers stroke fill" />
    <g
       id="g878"
       transform="translate(-3.0273441e-7,-0.1741419)" />
    <circle
       transform="matrix(1,0,0.00698126,0.99997563,0,0)"
       ry="2.4144542"
       rx="2.4143953"
       style="opacity:0.993569;fill:#0c0c0c;fill-opacity:0.222672;stroke:none;stroke-width:0.181361;stroke-linecap:round;stroke-linejoin:bevel;stroke-miterlimit:10;stroke-dasharray:none;stroke-opacity:1;paint-order:markers stroke fill"
       id="circle1280"
       cx="173.0564"
       cy="168.18704" />
    <path
       sodipodi:type="star"
       style="fill:#000000;fill-opacity:1;stroke:#b01a2f;stroke-width:0;stroke-linecap:round;stroke-linejoin:bevel;stroke-miterlimit:4;stroke-dasharray:none;stroke-opacity:1;paint-order:stroke fill markers;opacity:1"
       id="path1012"
       sodipodi:sides="133"
       sodipodi:cx="174.23061"
       sodipodi:cy="164.91498"
       sodipodi:r1="0.22699977"
       sodipodi:r2="0.22693647"
       sodipodi:arg1="1.1071487"
       sodipodi:arg2="1.1307697"
       inkscape:flatsided="true"
       inkscape:rounded="0"
       inkscape:randomized="0"
       d="m 174.33212,165.11801 -0.01,0.005 -0.01,0.004 -0.0101,0.004 -0.0102,0.003 -0.0104,0.003 -0.0105,0.002 -0.0106,0.002 -0.0107,0.001 -0.0107,6.7e-4 -0.0107,1.6e-4 -0.0107,-3.5e-4 -0.0107,-8.5e-4 -0.0106,-0.001 -0.0106,-0.002 -0.0105,-0.002 -0.0103,-0.003 -0.0102,-0.003 -0.01,-0.004 -0.01,-0.004 -0.01,-0.005 -0.009,-0.005 -0.009,-0.006 -0.009,-0.006 -0.009,-0.006 -0.008,-0.007 -0.008,-0.007 -0.008,-0.008 -0.007,-0.008 -0.007,-0.008 -0.006,-0.009 -0.006,-0.009 -0.006,-0.009 -0.005,-0.009 -0.005,-0.01 -0.004,-0.01 -0.004,-0.01 -0.003,-0.0102 -0.003,-0.0103 -0.002,-0.0105 -0.002,-0.0106 -0.001,-0.0106 -8e-4,-0.0107 -2.8e-4,-0.0107 2.2e-4,-0.0107 7.3e-4,-0.0107 0.001,-0.0106 0.002,-0.0106 0.002,-0.0105 0.003,-0.0104 0.003,-0.0102 0.004,-0.0101 0.004,-0.01 0.005,-0.01 0.005,-0.009 0.006,-0.009 0.006,-0.009 0.006,-0.009 0.007,-0.008 0.007,-0.008 0.008,-0.008 0.008,-0.007 0.008,-0.007 0.009,-0.007 0.009,-0.006 0.009,-0.006 0.009,-0.005 0.01,-0.005 0.01,-0.004 0.01,-0.004 0.0102,-0.003 0.0103,-0.003 0.0105,-0.002 0.0105,-0.002 0.0106,-0.001 0.0107,-9.1e-4 0.0107,-4.2e-4 0.0107,1e-4 0.0107,6e-4 0.0107,0.001 0.0106,0.002 0.0105,0.002 0.0104,0.003 0.0103,0.003 0.0101,0.004 0.01,0.004 0.01,0.005 0.01,0.005 0.009,0.005 0.009,0.006 0.009,0.006 0.008,0.007 0.008,0.007 0.008,0.007 0.007,0.008 0.007,0.008 0.007,0.008 0.006,0.009 0.006,0.009 0.005,0.009 0.005,0.01 0.004,0.01 0.004,0.01 0.004,0.0101 0.003,0.0103 0.003,0.0104 0.002,0.0105 0.002,0.0106 0.001,0.0107 5.4e-4,0.0107 3e-5,0.0107 -4.7e-4,0.0107 -9.8e-4,0.0107 -0.001,0.0106 -0.002,0.0105 -0.002,0.0104 -0.003,0.0103 -0.003,0.0101 -0.004,0.01 -0.004,0.01 -0.005,0.01 -0.005,0.009 -0.006,0.009 -0.006,0.009 -0.007,0.008 -0.007,0.008 -0.007,0.008 -0.008,0.007 -0.008,0.007 -0.008,0.007 -0.009,0.006 -0.009,0.006 -0.009,0.005 z"
       inkscape:transform-center-x="5.9138489e-05"
       inkscape:transform-center-y="1.3983937e-05" />
    <circle
       style="opacity:0.993569;fill:url(#linearGradient2609);fill-opacity:1;stroke:#292c31;stroke-width:0.28011;stroke-linecap:round;stroke-linejoin:bevel;stroke-miterlimit:10;stroke-dasharray:none;stroke-opacity:1;paint-order:markers stroke fill"
       id="circle2595"
       cx="-168.18294"
       cy="184.8139"
       r="3.7277517"
       transform="rotate(-90)" />
    <circle
       r="3.1972311"
       cy="168.18294"
       cx="184.8139"
       id="circle2597"
       style="opacity:0.993569;fill:#b4bbb7;fill-opacity:1;stroke:none;stroke-width:0.240163;stroke-linecap:round;stroke-linejoin:bevel;stroke-miterlimit:10;stroke-dasharray:none;stroke-opacity:1;paint-order:markers stroke fill" />
    <circle
       style="opacity:0.993569;fill:#afb6b2;fill-opacity:1;stroke:none;stroke-width:0.227594;stroke-linecap:round;stroke-linejoin:bevel;stroke-miterlimit:10;stroke-dasharray:none;stroke-opacity:1;paint-order:markers stroke fill"
       id="circle2599"
       cx="184.8139"
       cy="168.18294"
       r="3.0298908" />
    <circle
       r="2.6049094"
       cy="168.18294"
       cx="184.8139"
       id="circle2601"
       style="opacity:0.993569;fill:#abb1ae;fill-opacity:0.996078;stroke:none;stroke-width:0.195669;stroke-linecap:round;stroke-linejoin:bevel;stroke-miterlimit:10;stroke-dasharray:none;stroke-opacity:1;paint-order:markers stroke fill" />
    <circle
       style="opacity:0.993569;fill:url(#linearGradient2607);fill-opacity:1;stroke:none;stroke-width:0.172396;stroke-linecap:round;stroke-linejoin:bevel;stroke-miterlimit:10;stroke-dasharray:none;stroke-opacity:1;paint-order:markers stroke fill"
       id="circle2603"
       cx="184.8139"
       cy="168.18294"
       r="2.2950962" />
    <path
       inkscape:transform-center-y="1.3983937e-05"
       inkscape:transform-center-x="5.9138489e-05"
       d="m 184.91545,165.11801 -0.01,0.005 -0.01,0.004 -0.0101,0.004 -0.0102,0.003 -0.0104,0.003 -0.0105,0.002 -0.0106,0.002 -0.0107,0.001 -0.0107,6.7e-4 -0.0107,1.6e-4 -0.0107,-3.5e-4 -0.0107,-8.5e-4 -0.0106,-0.001 -0.0106,-0.002 -0.0105,-0.002 -0.0103,-0.003 -0.0102,-0.003 -0.01,-0.004 -0.01,-0.004 -0.01,-0.005 -0.009,-0.005 -0.009,-0.006 -0.009,-0.006 -0.009,-0.006 -0.008,-0.007 -0.008,-0.007 -0.008,-0.008 -0.007,-0.008 -0.007,-0.008 -0.006,-0.009 -0.006,-0.009 -0.006,-0.009 -0.005,-0.009 -0.005,-0.01 -0.004,-0.01 -0.004,-0.01 -0.003,-0.0102 -0.003,-0.0104 -0.002,-0.0105 -0.002,-0.0106 -0.001,-0.0106 -7.9e-4,-0.0107 -2.8e-4,-0.0107 2.2e-4,-0.0107 7.2e-4,-0.0107 0.001,-0.0106 0.002,-0.0106 0.002,-0.0105 0.003,-0.0104 0.003,-0.0102 0.004,-0.0101 0.004,-0.01 0.005,-0.01 0.005,-0.009 0.006,-0.009 0.006,-0.009 0.006,-0.009 0.007,-0.008 0.007,-0.008 0.008,-0.008 0.008,-0.007 0.008,-0.007 0.009,-0.007 0.009,-0.006 0.009,-0.006 0.009,-0.005 0.01,-0.005 0.01,-0.004 0.01,-0.004 0.0102,-0.003 0.0103,-0.003 0.0104,-0.002 0.0105,-0.002 0.0106,-0.001 0.0107,-9.1e-4 0.0107,-4.2e-4 0.0107,1e-4 0.0107,6e-4 0.0107,0.001 0.0106,0.002 0.0105,0.002 0.0104,0.003 0.0103,0.003 0.0101,0.004 0.01,0.004 0.01,0.005 0.01,0.005 0.009,0.005 0.009,0.006 0.009,0.006 0.008,0.007 0.008,0.007 0.008,0.007 0.007,0.008 0.007,0.008 0.007,0.008 0.006,0.009 0.006,0.009 0.005,0.009 0.005,0.01 0.004,0.01 0.004,0.01 0.004,0.0101 0.003,0.0103 0.003,0.0104 0.002,0.0105 0.002,0.0106 0.001,0.0107 5.4e-4,0.0107 4e-5,0.0107 -4.8e-4,0.0107 -9.8e-4,0.0107 -0.001,0.0106 -0.002,0.0105 -0.002,0.0104 -0.003,0.0103 -0.003,0.0101 -0.004,0.01 -0.004,0.01 -0.005,0.01 -0.005,0.009 -0.006,0.009 -0.006,0.009 -0.007,0.008 -0.007,0.008 -0.007,0.008 -0.008,0.007 -0.008,0.007 -0.008,0.007 -0.009,0.006 -0.009,0.006 -0.009,0.005 z"
       inkscape:randomized="0"
       inkscape:rounded="0"
       inkscape:flatsided="true"
       sodipodi:arg2="1.1307697"
       sodipodi:arg1="1.1071487"
       sodipodi:r2="0.22693647"
       sodipodi:r1="0.22699977"
       sodipodi:cy="164.91498"
       sodipodi:cx="184.81393"
       sodipodi:sides="133"
       id="path2605"
       style="opacity:1;fill:#000000;fill-opacity:1;stroke:#b01a2f;stroke-width:0;stroke-linecap:round;stroke-linejoin:bevel;stroke-miterlimit:4;stroke-dasharray:none;stroke-opacity:1;paint-order:stroke fill markers"
       sodipodi:type="star" />
  </g>
</svg>
