<?xml version="1.0" encoding="UTF-8" standalone="no"?>
<svg
   xmlns:osb="http://www.openswatchbook.org/uri/2009/osb"
   xmlns:dc="http://purl.org/dc/elements/1.1/"
   xmlns:cc="http://creativecommons.org/ns#"
   xmlns:rdf="http://www.w3.org/1999/02/22-rdf-syntax-ns#"
   xmlns:svg="http://www.w3.org/2000/svg"
   xmlns="http://www.w3.org/2000/svg"
   xmlns:xlink="http://www.w3.org/1999/xlink"
   xmlns:sodipodi="http://sodipodi.sourceforge.net/DTD/sodipodi-0.dtd"
   xmlns:inkscape="http://www.inkscape.org/namespaces/inkscape"
   inkscape:version="1.0 (4035a4f, 2020-05-01)"
   sodipodi:docname="MpMapper.svg"
   width="270"
   height="380"
   version="1.1"
   id="svg4226">
  <sodipodi:namedview
     showguides="true"
     inkscape:current-layer="svg4226"
     inkscape:window-maximized="0"
     inkscape:window-y="26"
     inkscape:window-x="0"
     inkscape:cy="199.77722"
     inkscape:cx="132.3929"
     inkscape:zoom="2.1728846"
     inkscape:snap-page="true"
     showgrid="true"
     id="namedview852"
     inkscape:window-height="1054"
     inkscape:window-width="1920"
     inkscape:pageshadow="2"
     inkscape:pageopacity="0"
     guidetolerance="10"
     gridtolerance="10"
     objecttolerance="10"
     borderopacity="1"
     inkscape:document-rotation="0"
     bordercolor="#666666"
     pagecolor="#ffffff"
     units="px"
     inkscape:document-units="px" />
  <metadata
     id="metadata14">
    <rdf:RDF>
      <cc:Work
         rdf:about="">
        <dc:format>image/svg+xml</dc:format>
        <dc:type
           rdf:resource="http://purl.org/dc/dcmitype/StillImage" />
        <dc:title />
      </cc:Work>
    </rdf:RDF>
  </metadata>
  <defs
     id="defs12">
    <linearGradient
       osb:paint="gradient"
       id="linearGradient12367">
      <stop
         id="stop12363"
         offset="0"
         style="stop-color:#000000;stop-opacity:1;" />
      <stop
         id="stop12365"
         offset="1"
         style="stop-color:#000000;stop-opacity:0;" />
    </linearGradient>
    <linearGradient
       gradientTransform="scale(-0.74906192,0.52092989)"
       osb:paint="solid"
       id="linearGradient4164">
      <stop
         id="stop4162"
         offset="0"
         style="stop-color:#1d55ff;stop-opacity:1;" />
    </linearGradient>
    <linearGradient
       osb:paint="solid"
       id="linearGradient2698">
      <stop
         id="stop2696"
         offset="0"
         style="stop-color:#000000;stop-opacity:1;" />
    </linearGradient>
    <linearGradient
       osb:paint="solid"
       id="linearGradient2677">
      <stop
         id="stop2675"
         offset="0"
         style="stop-color:#000000;stop-opacity:1;" />
    </linearGradient>
    <linearGradient
       osb:paint="solid"
       id="linearGradient2667">
      <stop
         id="stop2665"
         offset="0"
         style="stop-color:#80261a;stop-opacity:1;" />
    </linearGradient>
    <linearGradient
       osb:paint="solid"
       id="linearGradient2661">
      <stop
         id="stop2659"
         offset="0"
         style="stop-color:#80261a;stop-opacity:1;" />
    </linearGradient>
    <linearGradient
       osb:paint="solid"
       id="linearGradient2655">
      <stop
         id="stop2653"
         offset="0"
         style="stop-color:#80261a;stop-opacity:1;" />
    </linearGradient>
    <linearGradient
       gradientTransform="matrix(1.1572579,0,0,14.27017,0,-4706.064)"
       osb:paint="solid"
       id="linearGradient2649">
      <stop
         id="stop2647"
         offset="0"
         style="stop-color:#80261a;stop-opacity:1;" />
    </linearGradient>
    <linearGradient
       gradientTransform="matrix(0.94992449,0,0,1,10.4468,32.899769)"
       osb:paint="solid"
       id="linearGradient2641">
      <stop
         id="stop2639"
         offset="0"
         style="stop-color:#cc4a00;stop-opacity:1;" />
    </linearGradient>
    <linearGradient
       osb:paint="solid"
       id="linearGradient1781">
      <stop
         id="stop1779"
         offset="0"
         style="stop-color:#cccccc;stop-opacity:1;" />
    </linearGradient>
    <linearGradient
       id="linearGradient3000"
       osb:paint="solid">
      <stop
         style="stop-color:#c6c6c6;stop-opacity:1;"
         offset="0"
         id="stop2998" />
    </linearGradient>
    <linearGradient
       id="linearGradient1145"
       osb:paint="solid">
      <stop
         style="stop-color:#d0d4d1;stop-opacity:1;"
         offset="0"
         id="stop1143" />
    </linearGradient>
    <linearGradient
       gradientTransform="matrix(1,0,0,1.0083925,31.675324,-8.8256304)"
       osb:paint="solid"
       id="linearGradient3532">
      <stop
         id="stop3530"
         offset="0"
         style="stop-color:#ff0000;stop-opacity:1;" />
    </linearGradient>
    <linearGradient
       osb:paint="solid"
       id="linearGradient1580">
      <stop
         id="stop1578"
         offset="0"
         style="stop-color:#80261a;stop-opacity:1;" />
    </linearGradient>
    <linearGradient
       osb:paint="solid"
       id="linearGradient4116">
      <stop
         id="stop4114"
         offset="0"
         style="stop-color:#b1b8b3;stop-opacity:1;" />
    </linearGradient>
    <linearGradient
       osb:paint="solid"
       id="linearGradient3145">
      <stop
         id="stop3143"
         offset="0"
         style="stop-color:#aeb4af;stop-opacity:1;" />
    </linearGradient>
    <linearGradient
       osb:paint="solid"
       id="linearGradient3133">
      <stop
         id="stop3131"
         offset="0"
         style="stop-color:#000000;stop-opacity:1;" />
    </linearGradient>
    <linearGradient
       osb:paint="solid"
       id="linearGradient3114">
      <stop
         id="stop3112"
         offset="0"
         style="stop-color:#292c31;stop-opacity:1;" />
    </linearGradient>
    <linearGradient
       osb:paint="solid"
       id="linearGradient3054">
      <stop
         id="stop3052"
         offset="0"
         style="stop-color:#b8bfba;stop-opacity:1;" />
    </linearGradient>
    <linearGradient
       osb:paint="solid"
       id="linearGradient3048">
      <stop
         id="stop3046"
         offset="0"
         style="stop-color:#0c0c0c;stop-opacity:1;" />
    </linearGradient>
    <linearGradient
       y2="95.40947"
       x2="274.2532"
       y1="95.40947"
       x1="274.1532"
       gradientTransform="matrix(1,0,0,1.1432544,0.23109943,-13.116007)"
       gradientUnits="userSpaceOnUse"
       id="linearGradient3193"
       xlink:href="#linearGradient3145"
       inkscape:collect="always" />
    <linearGradient
       id="linearGradient858"
       osb:paint="solid">
      <stop
         style="stop-color:#0000c4;stop-opacity:1;"
         offset="0"
         id="stop856" />
    </linearGradient>
    <linearGradient
       gradientUnits="userSpaceOnUse"
       y2="240.14365"
       x2="294.06335"
       y1="240.14365"
       x1="280.72424"
       id="linearGradient4252"
       xlink:href="#linearGradient4164"
       inkscape:collect="always" />
    <linearGradient
       gradientUnits="userSpaceOnUse"
       y2="240.14365"
       x2="314.02872"
       y1="240.14365"
       x1="301.43774"
       id="linearGradient4254"
       xlink:href="#linearGradient4164"
       inkscape:collect="always" />
    <linearGradient
       gradientUnits="userSpaceOnUse"
       y2="240.14365"
       x2="335.24902"
       y1="240.14365"
       x1="321.90991"
       id="linearGradient4256"
       xlink:href="#linearGradient4164"
       inkscape:collect="always" />
    <linearGradient
       gradientUnits="userSpaceOnUse"
       y2="240.14365"
       x2="355.8418"
       y1="240.14365"
       x1="342.50272"
       id="linearGradient4258"
       xlink:href="#linearGradient4164"
       inkscape:collect="always" />
    <linearGradient
       gradientUnits="userSpaceOnUse"
       y2="238.39453"
       x2="341.43631"
       y1="238.39453"
       x1="268.48123"
       id="linearGradient4274"
       xlink:href="#linearGradient4164"
       inkscape:collect="always" />
    <linearGradient
       gradientUnits="userSpaceOnUse"
       y2="240.14365"
       x2="294.06335"
       y1="240.14365"
       x1="280.72424"
       id="linearGradient4278"
       xlink:href="#linearGradient4164"
       inkscape:collect="always" />
    <linearGradient
       y2="-4.3072739"
       x2="258.12228"
       y1="-4.3072739"
       x1="208.62096"
       gradientTransform="matrix(0.94992449,0,0,1,10.4468,32.899769)"
       gradientUnits="userSpaceOnUse"
       id="linearGradient12371"
       xlink:href="#linearGradient2649"
       inkscape:collect="always" />
    <linearGradient
       id="linearGradient4116-4"
       osb:paint="solid">
      <stop
         style="stop-color:#b1b8b3;stop-opacity:0.82661283;"
         offset="0"
         id="stop4114-5" />
    </linearGradient>
  </defs>
  <rect
     ry="0"
     rx="0"
     y="0"
     x="0"
     height="380"
     width="270"
     id="rect3016-1"
     style="opacity:1;fill:#1a1c1f;fill-opacity:1;stroke:none;stroke-width:0;stroke-linecap:round;stroke-linejoin:bevel;stroke-miterlimit:10;stroke-dasharray:none;stroke-dashoffset:0.0173858;stroke-opacity:1;paint-order:markers stroke fill" />
  <text
     id="text2951"
     y="78.01963"
     x="300.79858"
     style="font-style:normal;font-weight:normal;font-size:40px;line-height:1.25;font-family:sans-serif;fill:#000000;fill-opacity:1;stroke:none;opacity:1;"
     xml:space="preserve"><tspan
       y="78.01963"
       x="300.79858"
       id="tspan2949"
       sodipodi:role="line" /></text>
  <g
     style="display:none"
     id="g1775">
    <g
       transform="matrix(0.87439144,0,0,0.87439144,94.361811,5.6658232)"
       style="font-style:normal;font-weight:normal;font-size:40px;line-height:1.25;font-family:sans-serif;fill:#cccccc;fill-opacity:1;stroke:none"
       id="text2876-6"
       aria-label="K1">
      <path
         inkscape:connector-curvature="0"
         id="path1383"
         style="font-size:8px;fill:#cccccc"
         d="m 270.17975,47.925339 q 0.22656,0 0.39453,-0.160157 0.16797,-0.160156 0.16797,-0.414062 v -2.203125 l 2.08594,2.414062 q 0.0976,0.121094 0.15625,0.183594 0.0586,0.0625 0.15234,0.121094 0.0937,0.05469 0.18359,0.05469 h 0.008 q 0.21484,0 0.38281,-0.152343 0.17187,-0.152344 0.17187,-0.363282 0,-0.207031 -0.15234,-0.414062 l -1.83203,-2.042969 1.64844,-1.785156 q 0.15234,-0.183594 0.15234,-0.378906 0,-0.203125 -0.16016,-0.34375 -0.16015,-0.144532 -0.36328,-0.144532 -0.21094,0 -0.45703,0.304688 l -1.97656,2.246094 v -1.980469 q 0,-0.257813 -0.16797,-0.417969 -0.16797,-0.160156 -0.39453,-0.160156 -0.22656,0 -0.39453,0.160156 -0.16407,0.160156 -0.16407,0.417969 v 4.484375 q 0,0.257812 0.16407,0.417969 0.16406,0.15625 0.39453,0.15625 z" />
      <path
         inkscape:connector-curvature="0"
         id="path1385"
         style="font-size:8px;fill:#cccccc"
         d="m 276.95319,47.925339 q 0.23828,0 0.39453,-0.171875 0.15625,-0.171875 0.15625,-0.457032 l -0.004,-4.359375 q 0,-0.308593 -0.14844,-0.476562 -0.14453,-0.167969 -0.375,-0.167969 -0.15625,0.0039 -0.3164,0.101563 l -1.38282,0.816406 q -0.20312,0.125 -0.20312,0.335937 0,0.160157 0.10937,0.28125 0.10938,0.121094 0.26563,0.121094 0.11328,0 0.19922,-0.05859 l 0.75781,-0.464843 0.004,3.847656 q 0,0.3125 0.15234,0.484375 0.15234,0.167969 0.39063,0.167969 z" />
    </g>
    <g
       transform="matrix(0.87439144,0,0,0.87439144,81.960884,5.6648418)"
       style="font-style:normal;font-weight:normal;font-size:40px;line-height:1.25;font-family:sans-serif;fill:#cccccc;fill-opacity:1;stroke:none"
       id="text2978"
       aria-label="K2">
      <path
         inkscape:connector-curvature="0"
         id="path1410"
         style="font-size:8px;fill:#cccccc"
         d="m 330.17975,47.925339 q 0.22656,0 0.39453,-0.160157 0.16797,-0.160156 0.16797,-0.414062 v -2.203125 l 2.08594,2.414062 q 0.0976,0.121094 0.15625,0.183594 0.0586,0.0625 0.15234,0.121094 0.0937,0.05469 0.18359,0.05469 h 0.008 q 0.21484,0 0.38281,-0.152343 0.17187,-0.152344 0.17187,-0.363282 0,-0.207031 -0.15234,-0.414062 l -1.83203,-2.042969 1.64844,-1.785156 q 0.15234,-0.183594 0.15234,-0.378906 0,-0.203125 -0.16016,-0.34375 -0.16015,-0.144532 -0.36328,-0.144532 -0.21094,0 -0.45703,0.304688 l -1.97656,2.246094 v -1.980469 q 0,-0.257813 -0.16797,-0.417969 -0.16797,-0.160156 -0.39453,-0.160156 -0.22656,0 -0.39453,0.160156 -0.16407,0.160156 -0.16407,0.417969 v 4.484375 q 0,0.257812 0.16407,0.417969 0.16406,0.15625 0.39453,0.15625 z" />
      <path
         inkscape:connector-curvature="0"
         id="path1412"
         style="font-size:8px;fill:#cccccc"
         d="m 338.50006,43.890182 q 0,-0.679687 -0.51172,-1.148437 -0.50781,-0.46875 -1.30469,-0.46875 -0.48046,0 -0.875,0.128906 -0.39453,0.125 -0.78515,0.355469 -0.20313,0.121094 -0.20313,0.324219 0,0.175781 0.14063,0.328125 0.14062,0.152343 0.30078,0.152343 0.0625,0 0.11328,-0.02734 0.0312,-0.01563 0.22656,-0.128907 0.19532,-0.113281 0.28125,-0.148437 0.0859,-0.03906 0.28125,-0.08594 0.19922,-0.04687 0.41797,-0.04687 0.3711,0 0.62891,0.230469 0.26172,0.230469 0.26172,0.59375 0,0.433594 -0.4961,0.917969 l -2.02343,2.011719 q -0.21485,0.214843 -0.21485,0.5 0,0.226562 0.14844,0.386718 0.15234,0.160157 0.41016,0.160157 h 2.78125 q 0.16015,0 0.25,-0.125 0.0898,-0.128907 0.0898,-0.300782 0,-0.171875 -0.0898,-0.292968 -0.0899,-0.125 -0.25,-0.125 h -2.16407 l 1.65235,-1.464844 q 0.93359,-0.816406 0.93359,-1.726563 z" />
    </g>
    <g
       transform="matrix(0.87439144,0,0,0.87439144,69.503039,5.6621427)"
       style="font-style:normal;font-weight:normal;font-size:40px;line-height:1.25;font-family:sans-serif;fill:#cccccc;fill-opacity:1;stroke:none"
       id="text2984"
       aria-label="K3">
      <path
         inkscape:connector-curvature="0"
         id="path1415"
         style="font-size:8px;fill:#cccccc"
         d="m 390.17975,47.925339 q 0.22656,0 0.39453,-0.160157 0.16797,-0.160156 0.16797,-0.414062 v -2.203125 l 2.08594,2.414062 q 0.0976,0.121094 0.15625,0.183594 0.0586,0.0625 0.15234,0.121094 0.0937,0.05469 0.18359,0.05469 h 0.008 q 0.21484,0 0.38281,-0.152343 0.17187,-0.152344 0.17187,-0.363282 0,-0.207031 -0.15234,-0.414062 l -1.83203,-2.042969 1.64844,-1.785156 q 0.15234,-0.183594 0.15234,-0.378906 0,-0.203125 -0.16016,-0.34375 -0.16015,-0.144532 -0.36328,-0.144532 -0.21094,0 -0.45703,0.304688 l -1.97656,2.246094 v -1.980469 q 0,-0.257813 -0.16797,-0.417969 -0.16797,-0.160156 -0.39453,-0.160156 -0.22656,0 -0.39453,0.160156 -0.16407,0.160156 -0.16407,0.417969 v 4.484375 q 0,0.257812 0.16407,0.417969 0.16406,0.15625 0.39453,0.15625 z" />
      <path
         inkscape:connector-curvature="0"
         id="path1417"
         style="font-size:8px;fill:#cccccc"
         d="m 396.57428,48.00737 q 0.42578,0 0.78125,-0.09766 0.35937,-0.09766 0.63672,-0.289063 0.28125,-0.191406 0.4375,-0.507812 0.16015,-0.316407 0.16015,-0.726563 0,-0.554687 -0.25781,-0.929687 -0.25781,-0.375 -0.76172,-0.511719 0.4336,-0.15625 0.66797,-0.472656 0.23828,-0.316407 0.23828,-0.789063 0,-0.703125 -0.55078,-1.117187 -0.54687,-0.417969 -1.39062,-0.417969 -0.42969,0 -0.83203,0.101562 -0.39844,0.09766 -0.64063,0.25 -0.16797,0.101563 -0.16797,0.308594 0,0.175781 0.11719,0.332031 0.12109,0.152344 0.27344,0.152344 0.0586,0 0.12109,-0.03125 0.45703,-0.222656 1.04688,-0.222656 0.24218,0 0.4414,0.07422 0.20313,0.07422 0.34375,0.25 0.14063,0.175781 0.14063,0.429687 0,0.402344 -0.3086,0.613281 -0.30468,0.207032 -0.78125,0.207032 h -0.30859 q -0.16016,0 -0.24609,0.117187 -0.0859,0.113281 -0.0859,0.269531 0,0.160157 0.082,0.273438 0.0859,0.109375 0.25,0.109375 h 0.32812 q 0.50782,0 0.83985,0.261719 0.33203,0.261718 0.33203,0.691406 0,0.40625 -0.26953,0.597656 -0.26953,0.1875 -0.74219,0.1875 -0.20703,0 -0.43359,-0.05078 -0.22266,-0.05469 -0.32032,-0.09375 -0.0976,-0.03906 -0.28125,-0.121094 -0.0508,-0.02344 -0.10156,-0.02344 -0.15234,0 -0.27734,0.160156 -0.125,0.15625 -0.125,0.339844 0,0.242187 0.22265,0.351562 0.64844,0.324219 1.42188,0.324219 z" />
    </g>
    <g
       transform="matrix(0.87439144,0,0,0.87439144,57.064578,5.6670496)"
       style="font-style:normal;font-weight:normal;font-size:40px;line-height:1.25;font-family:sans-serif;fill:#cccccc;fill-opacity:1;stroke:none"
       id="text2990"
       aria-label="K4">
      <path
         inkscape:connector-curvature="0"
         id="path1420"
         style="font-size:8px;fill:#cccccc"
         d="m 450.17975,47.925339 q 0.22656,0 0.39453,-0.160157 0.16797,-0.160156 0.16797,-0.414062 v -2.203125 l 2.08594,2.414062 q 0.0976,0.121094 0.15625,0.183594 0.0586,0.0625 0.15234,0.121094 0.0937,0.05469 0.18359,0.05469 h 0.008 q 0.21484,0 0.38281,-0.152343 0.17187,-0.152344 0.17187,-0.363282 0,-0.207031 -0.15234,-0.414062 l -1.83203,-2.042969 1.64844,-1.785156 q 0.15234,-0.183594 0.15234,-0.378906 0,-0.203125 -0.16016,-0.34375 -0.16015,-0.144532 -0.36328,-0.144532 -0.21094,0 -0.45703,0.304688 l -1.97656,2.246094 v -1.980469 q 0,-0.257813 -0.16797,-0.417969 -0.16797,-0.160156 -0.39453,-0.160156 -0.22656,0 -0.39453,0.160156 -0.16407,0.160156 -0.16407,0.417969 v 4.484375 q 0,0.257812 0.16407,0.417969 0.16406,0.15625 0.39453,0.15625 z" />
      <path
         inkscape:connector-curvature="0"
         id="path1422"
         style="font-size:8px;fill:#cccccc"
         d="m 457.61334,47.94487 q 0.22266,0 0.3711,-0.144531 0.15234,-0.148438 0.15234,-0.398438 v -0.636719 h 0.45312 q 0.19532,0 0.29688,-0.109375 0.10156,-0.113281 0.10156,-0.285156 0,-0.179687 -0.10547,-0.289062 -0.10547,-0.109375 -0.29297,-0.109375 h -0.44921 V 43.10112 q 0,-0.425781 -0.21094,-0.613281 -0.21094,-0.191407 -0.56641,-0.191407 -0.57031,0 -0.89062,0.53125 l -1.91016,3.171875 q -0.0664,0.125 -0.0664,0.257813 0,0.207031 0.13672,0.359375 0.13672,0.148437 0.36328,0.148437 h 2.09375 v 0.640625 q 0,0.253907 0.15235,0.398438 0.15234,0.140625 0.37109,0.140625 z m -2.0664,-1.972656 1.54296,-2.65625 v 2.65625 z" />
    </g>
  </g>
  <text
     xml:space="preserve"
     style="font-style:normal;font-weight:normal;font-size:40px;line-height:1.25;font-family:sans-serif;fill:#000000;fill-opacity:1;stroke:none;opacity:1;"
     x="299.27896"
     y="85.432465"
     id="text1107"><tspan
       sodipodi:role="line"
       id="tspan1105"
       x="299.27896"
       y="85.432465" /></text>
  <rect
     style="opacity:1;fill:#151619;fill-opacity:0.996078;stroke:#b0b7b2;stroke-width:0;stroke-linecap:round;stroke-linejoin:bevel;stroke-miterlimit:10;stroke-dasharray:none;stroke-dashoffset:0.0173858;stroke-opacity:1;paint-order:markers stroke fill"
     id="rect3052"
     width="101.95598"
     height="59.282722"
     x="80.609367"
     y="10.000001"
     rx="0"
     ry="3.5172427" />
  <rect
     ry="1.3078228"
     rx="0"
     y="14.374818"
     x="85.531044"
     height="50.533085"
     width="92.11264"
     id="rect3054"
     style="opacity:1;fill:#475998;fill-opacity:0.996078;stroke:#b0b7b2;stroke-width:0;stroke-linecap:round;stroke-linejoin:bevel;stroke-miterlimit:10;stroke-dasharray:none;stroke-dashoffset:0.0173858;stroke-opacity:1;paint-order:markers stroke fill" />
  <g
     id="g217"
     style="display:none">
    <rect
       style="opacity:0.993569;fill:#151619;fill-opacity:1;stroke:none;stroke-width:0;stroke-linecap:round;stroke-linejoin:bevel;stroke-miterlimit:10;paint-order:markers stroke fill"
       id="rect854"
       width="248.83873"
       height="289.7728"
       x="10.580633"
       y="80.227219"
       ry="0.065954722" />
    <g
       id="g174">
      <g
         transform="translate(-228.72571,81.39289)"
         aria-label="K1"
         id="text2876-6-2"
         style="font-style:normal;font-weight:normal;font-size:40px;line-height:1.25;font-family:sans-serif;fill:#cccccc;fill-opacity:1;stroke:none">
        <path
           inkscape:connector-curvature="0"
           d="m 270.17975,47.925339 q 0.22656,0 0.39453,-0.160157 0.16797,-0.160156 0.16797,-0.414062 v -2.203125 l 2.08594,2.414062 q 0.0976,0.121094 0.15625,0.183594 0.0586,0.0625 0.15234,0.121094 0.0937,0.05469 0.18359,0.05469 h 0.008 q 0.21484,0 0.38281,-0.152343 0.17187,-0.152344 0.17187,-0.363282 0,-0.207031 -0.15234,-0.414062 l -1.83203,-2.042969 1.64844,-1.785156 q 0.15234,-0.183594 0.15234,-0.378906 0,-0.203125 -0.16016,-0.34375 -0.16015,-0.144532 -0.36328,-0.144532 -0.21094,0 -0.45703,0.304688 l -1.97656,2.246094 v -1.980469 q 0,-0.257813 -0.16797,-0.417969 -0.16797,-0.160156 -0.39453,-0.160156 -0.22656,0 -0.39453,0.160156 -0.16407,0.160156 -0.16407,0.417969 v 4.484375 q 0,0.257812 0.16407,0.417969 0.16406,0.15625 0.39453,0.15625 z"
           style="font-size:8px;fill:#cccccc"
           id="path1383-3" />
        <path
           inkscape:connector-curvature="0"
           d="m 276.95319,47.925339 q 0.23828,0 0.39453,-0.171875 0.15625,-0.171875 0.15625,-0.457032 l -0.004,-4.359375 q 0,-0.308593 -0.14844,-0.476562 -0.14453,-0.167969 -0.375,-0.167969 -0.15625,0.0039 -0.3164,0.101563 l -1.38282,0.816406 q -0.20312,0.125 -0.20312,0.335937 0,0.160157 0.10937,0.28125 0.10938,0.121094 0.26563,0.121094 0.11328,0 0.19922,-0.05859 l 0.75781,-0.464843 0.004,3.847656 q 0,0.3125 0.15234,0.484375 0.15234,0.167969 0.39063,0.167969 z"
           style="font-size:8px;fill:#cccccc"
           id="path1385-7" />
      </g>
      <g
         transform="translate(-229.8696,81.4007)"
         aria-label="K2"
         id="text2978-2"
         style="font-style:normal;font-weight:normal;font-size:40px;line-height:1.25;font-family:sans-serif;fill:#cccccc;fill-opacity:1;stroke:none">
        <path
           inkscape:connector-curvature="0"
           d="m 330.17975,47.925339 q 0.22656,0 0.39453,-0.160157 0.16797,-0.160156 0.16797,-0.414062 v -2.203125 l 2.08594,2.414062 q 0.0976,0.121094 0.15625,0.183594 0.0586,0.0625 0.15234,0.121094 0.0937,0.05469 0.18359,0.05469 h 0.008 q 0.21484,0 0.38281,-0.152343 0.17187,-0.152344 0.17187,-0.363282 0,-0.207031 -0.15234,-0.414062 l -1.83203,-2.042969 1.64844,-1.785156 q 0.15234,-0.183594 0.15234,-0.378906 0,-0.203125 -0.16016,-0.34375 -0.16015,-0.144532 -0.36328,-0.144532 -0.21094,0 -0.45703,0.304688 l -1.97656,2.246094 v -1.980469 q 0,-0.257813 -0.16797,-0.417969 -0.16797,-0.160156 -0.39453,-0.160156 -0.22656,0 -0.39453,0.160156 -0.16407,0.160156 -0.16407,0.417969 v 4.484375 q 0,0.257812 0.16407,0.417969 0.16406,0.15625 0.39453,0.15625 z"
           style="font-size:8px;fill:#cccccc"
           id="path1410-4" />
        <path
           inkscape:connector-curvature="0"
           d="m 338.50006,43.890182 q 0,-0.679687 -0.51172,-1.148437 -0.50781,-0.46875 -1.30469,-0.46875 -0.48046,0 -0.875,0.128906 -0.39453,0.125 -0.78515,0.355469 -0.20313,0.121094 -0.20313,0.324219 0,0.175781 0.14063,0.328125 0.14062,0.152343 0.30078,0.152343 0.0625,0 0.11328,-0.02734 0.0312,-0.01563 0.22656,-0.128907 0.19532,-0.113281 0.28125,-0.148437 0.0859,-0.03906 0.28125,-0.08594 0.19922,-0.04687 0.41797,-0.04687 0.3711,0 0.62891,0.230469 0.26172,0.230469 0.26172,0.59375 0,0.433594 -0.4961,0.917969 l -2.02343,2.011719 q -0.21485,0.214843 -0.21485,0.5 0,0.226562 0.14844,0.386718 0.15234,0.160157 0.41016,0.160157 h 2.78125 q 0.16015,0 0.25,-0.125 0.0898,-0.128907 0.0898,-0.300782 0,-0.171875 -0.0898,-0.292968 -0.0899,-0.125 -0.25,-0.125 h -2.16407 l 1.65235,-1.464844 q 0.93359,-0.816406 0.93359,-1.726563 z"
           style="font-size:8px;fill:#cccccc"
           id="path1412-1" />
      </g>
      <g
         transform="translate(-230.56037,81.42219)"
         aria-label="K3"
         id="text2984-8"
         style="font-style:normal;font-weight:normal;font-size:40px;line-height:1.25;font-family:sans-serif;fill:#cccccc;fill-opacity:1;stroke:none">
        <path
           inkscape:connector-curvature="0"
           d="m 390.17975,47.925339 q 0.22656,0 0.39453,-0.160157 0.16797,-0.160156 0.16797,-0.414062 v -2.203125 l 2.08594,2.414062 q 0.0976,0.121094 0.15625,0.183594 0.0586,0.0625 0.15234,0.121094 0.0937,0.05469 0.18359,0.05469 h 0.008 q 0.21484,0 0.38281,-0.152343 0.17187,-0.152344 0.17187,-0.363282 0,-0.207031 -0.15234,-0.414062 l -1.83203,-2.042969 1.64844,-1.785156 q 0.15234,-0.183594 0.15234,-0.378906 0,-0.203125 -0.16016,-0.34375 -0.16015,-0.144532 -0.36328,-0.144532 -0.21094,0 -0.45703,0.304688 l -1.97656,2.246094 v -1.980469 q 0,-0.257813 -0.16797,-0.417969 -0.16797,-0.160156 -0.39453,-0.160156 -0.22656,0 -0.39453,0.160156 -0.16407,0.160156 -0.16407,0.417969 v 4.484375 q 0,0.257812 0.16407,0.417969 0.16406,0.15625 0.39453,0.15625 z"
           style="font-size:8px;fill:#cccccc"
           id="path1415-2" />
        <path
           inkscape:connector-curvature="0"
           d="m 396.57428,48.00737 q 0.42578,0 0.78125,-0.09766 0.35937,-0.09766 0.63672,-0.289063 0.28125,-0.191406 0.4375,-0.507812 0.16015,-0.316407 0.16015,-0.726563 0,-0.554687 -0.25781,-0.929687 -0.25781,-0.375 -0.76172,-0.511719 0.4336,-0.15625 0.66797,-0.472656 0.23828,-0.316407 0.23828,-0.789063 0,-0.703125 -0.55078,-1.117187 -0.54687,-0.417969 -1.39062,-0.417969 -0.42969,0 -0.83203,0.101562 -0.39844,0.09766 -0.64063,0.25 -0.16797,0.101563 -0.16797,0.308594 0,0.175781 0.11719,0.332031 0.12109,0.152344 0.27344,0.152344 0.0586,0 0.12109,-0.03125 0.45703,-0.222656 1.04688,-0.222656 0.24218,0 0.4414,0.07422 0.20313,0.07422 0.34375,0.25 0.14063,0.175781 0.14063,0.429687 0,0.402344 -0.3086,0.613281 -0.30468,0.207032 -0.78125,0.207032 h -0.30859 q -0.16016,0 -0.24609,0.117187 -0.0859,0.113281 -0.0859,0.269531 0,0.160157 0.082,0.273438 0.0859,0.109375 0.25,0.109375 h 0.32812 q 0.50782,0 0.83985,0.261719 0.33203,0.261718 0.33203,0.691406 0,0.40625 -0.26953,0.597656 -0.26953,0.1875 -0.74219,0.1875 -0.20703,0 -0.43359,-0.05078 -0.22266,-0.05469 -0.32032,-0.09375 -0.0976,-0.03906 -0.28125,-0.121094 -0.0508,-0.02344 -0.10156,-0.02344 -0.15234,0 -0.27734,0.160156 -0.125,0.15625 -0.125,0.339844 0,0.242187 0.22265,0.351562 0.64844,0.324219 1.42188,0.324219 z"
           style="font-size:8px;fill:#cccccc"
           id="path1417-6" />
      </g>
      <g
         transform="translate(-231.40544,81.38312)"
         aria-label="K4"
         id="text2990-0"
         style="font-style:normal;font-weight:normal;font-size:40px;line-height:1.25;font-family:sans-serif;fill:#cccccc;fill-opacity:1;stroke:none">
        <path
           inkscape:connector-curvature="0"
           d="m 450.17975,47.925339 q 0.22656,0 0.39453,-0.160157 0.16797,-0.160156 0.16797,-0.414062 v -2.203125 l 2.08594,2.414062 q 0.0976,0.121094 0.15625,0.183594 0.0586,0.0625 0.15234,0.121094 0.0937,0.05469 0.18359,0.05469 h 0.008 q 0.21484,0 0.38281,-0.152343 0.17187,-0.152344 0.17187,-0.363282 0,-0.207031 -0.15234,-0.414062 l -1.83203,-2.042969 1.64844,-1.785156 q 0.15234,-0.183594 0.15234,-0.378906 0,-0.203125 -0.16016,-0.34375 -0.16015,-0.144532 -0.36328,-0.144532 -0.21094,0 -0.45703,0.304688 l -1.97656,2.246094 v -1.980469 q 0,-0.257813 -0.16797,-0.417969 -0.16797,-0.160156 -0.39453,-0.160156 -0.22656,0 -0.39453,0.160156 -0.16407,0.160156 -0.16407,0.417969 v 4.484375 q 0,0.257812 0.16407,0.417969 0.16406,0.15625 0.39453,0.15625 z"
           style="font-size:8px;fill:#cccccc"
           id="path1420-3" />
        <path
           inkscape:connector-curvature="0"
           d="m 457.61334,47.94487 q 0.22266,0 0.3711,-0.144531 0.15234,-0.148438 0.15234,-0.398438 v -0.636719 h 0.45312 q 0.19532,0 0.29688,-0.109375 0.10156,-0.113281 0.10156,-0.285156 0,-0.179687 -0.10547,-0.289062 -0.10547,-0.109375 -0.29297,-0.109375 h -0.44921 V 43.10112 q 0,-0.425781 -0.21094,-0.613281 -0.21094,-0.191407 -0.56641,-0.191407 -0.57031,0 -0.89062,0.53125 l -1.91016,3.171875 q -0.0664,0.125 -0.0664,0.257813 0,0.207031 0.13672,0.359375 0.13672,0.148437 0.36328,0.148437 h 2.09375 v 0.640625 q 0,0.253907 0.15235,0.398438 0.15234,0.140625 0.37109,0.140625 z m -2.0664,-1.972656 1.54296,-2.65625 v 2.65625 z"
           style="font-size:8px;fill:#cccccc"
           id="path1422-9" />
      </g>
      <g
         transform="translate(-229.32727,137.11665)"
         aria-label="K5"
         id="text2996"
         style="font-style:normal;font-weight:normal;font-size:40px;line-height:1.25;font-family:sans-serif;fill:#cccccc;fill-opacity:1;stroke:none">
        <path
           inkscape:connector-curvature="0"
           d="m 270.17975,87.925339 q 0.22656,0 0.39453,-0.160157 0.16797,-0.160156 0.16797,-0.414062 v -2.203125 l 2.08594,2.414062 q 0.0976,0.121094 0.15625,0.183594 0.0586,0.0625 0.15234,0.121094 0.0937,0.05469 0.18359,0.05469 h 0.008 q 0.21484,0 0.38281,-0.152343 0.17187,-0.152344 0.17187,-0.363282 0,-0.207031 -0.15234,-0.414062 l -1.83203,-2.042969 1.64844,-1.785156 q 0.15234,-0.183594 0.15234,-0.378906 0,-0.203125 -0.16016,-0.34375 -0.16015,-0.144532 -0.36328,-0.144532 -0.21094,0 -0.45703,0.304688 l -1.97656,2.246094 v -1.980469 q 0,-0.257813 -0.16797,-0.417969 -0.16797,-0.160156 -0.39453,-0.160156 -0.22656,0 -0.39453,0.160156 -0.16407,0.160156 -0.16407,0.417969 v 4.484375 q 0,0.257812 0.16407,0.417969 0.16406,0.15625 0.39453,0.15625 z"
           style="font-size:8px;fill:#cccccc"
           id="path1388" />
        <path
           inkscape:connector-curvature="0"
           d="m 276.68756,88.015182 q 0.5625,0 1.01953,-0.222656 0.45703,-0.222656 0.72656,-0.652344 0.27344,-0.429687 0.27344,-0.988281 0,-0.820312 -0.48828,-1.308594 -0.48437,-0.488281 -1.25391,-0.488281 -0.21093,0 -0.40625,0.03125 -0.1914,0.03125 -0.3164,0.07422 -0.1211,0.04297 -0.21875,0.08984 -0.0937,0.04297 -0.13672,0.07422 l -0.0391,0.03125 0.008,-1.546875 h 2.15234 q 0.1875,0 0.28907,-0.113281 0.10156,-0.117187 0.10156,-0.292969 0,-0.175781 -0.10156,-0.292968 -0.10157,-0.121094 -0.27344,-0.121094 h -2.47266 q -0.30469,0 -0.44531,0.117187 -0.13672,0.117188 -0.13672,0.402344 v 2.320313 q 0,0.203125 0.20703,0.332031 0.21094,0.128906 0.42578,0.128906 0.11328,0 0.16797,-0.04297 0.48047,-0.359375 0.94922,-0.359375 0.41406,0 0.67188,0.253907 0.26171,0.253906 0.26171,0.707031 0,0.488281 -0.25781,0.746094 -0.25781,0.257812 -0.74609,0.257812 -0.6211,0 -1.17188,-0.40625 -0.082,-0.06641 -0.18359,-0.06641 -0.15625,0 -0.28516,0.15625 -0.125,0.15625 -0.125,0.332031 0,0.15625 0.10547,0.25 0.72656,0.597656 1.69922,0.597656 z"
           style="font-size:8px;fill:#cccccc"
           id="path1390" />
      </g>
      <g
         transform="translate(-230.0278,137.19673)"
         aria-label="K6"
         id="text3002"
         style="font-style:normal;font-weight:normal;font-size:40px;line-height:1.25;font-family:sans-serif;fill:#cccccc;fill-opacity:1;stroke:none">
        <path
           inkscape:connector-curvature="0"
           d="m 330.17975,87.925339 q 0.22656,0 0.39453,-0.160157 0.16797,-0.160156 0.16797,-0.414062 v -2.203125 l 2.08594,2.414062 q 0.0976,0.121094 0.15625,0.183594 0.0586,0.0625 0.15234,0.121094 0.0937,0.05469 0.18359,0.05469 h 0.008 q 0.21484,0 0.38281,-0.152343 0.17187,-0.152344 0.17187,-0.363282 0,-0.207031 -0.15234,-0.414062 l -1.83203,-2.042969 1.64844,-1.785156 q 0.15234,-0.183594 0.15234,-0.378906 0,-0.203125 -0.16016,-0.34375 -0.16015,-0.144532 -0.36328,-0.144532 -0.21094,0 -0.45703,0.304688 l -1.97656,2.246094 v -1.980469 q 0,-0.257813 -0.16797,-0.417969 -0.16797,-0.160156 -0.39453,-0.160156 -0.22656,0 -0.39453,0.160156 -0.16407,0.160156 -0.16407,0.417969 v 4.484375 q 0,0.257812 0.16407,0.417969 0.16406,0.15625 0.39453,0.15625 z"
           style="font-size:8px;fill:#cccccc"
           id="path1405" />
        <path
           inkscape:connector-curvature="0"
           d="m 336.78131,88.011276 q 0.92969,0 1.48047,-0.523437 0.55469,-0.527344 0.55469,-1.367188 0,-0.796875 -0.53125,-1.285156 -0.52735,-0.492188 -1.32422,-0.492188 -0.46485,0 -0.8086,0.164063 -0.34375,0.160156 -0.45703,0.390625 0,-0.347656 0.0312,-0.613281 0.0312,-0.265625 0.11719,-0.515625 0.0859,-0.25 0.23047,-0.40625 0.14453,-0.160157 0.38281,-0.253907 0.23828,-0.09766 0.5586,-0.09766 0.41406,0 0.97265,0.207031 0.0586,0.01953 0.0977,0.01953 0.15234,0 0.26172,-0.15625 0.10937,-0.160157 0.10937,-0.34375 0,-0.246094 -0.1914,-0.328125 -0.57813,-0.277344 -1.23438,-0.277344 -0.57031,0 -1.00391,0.171875 -0.43359,0.171875 -0.70703,0.464844 -0.27343,0.289062 -0.44531,0.714843 -0.17187,0.425782 -0.23828,0.886719 -0.0664,0.457031 -0.0664,1.015625 0,0.449219 0.0742,0.835938 0.0742,0.382812 0.23828,0.71875 0.16797,0.332031 0.41797,0.566406 0.25391,0.234375 0.62891,0.371094 0.3789,0.132812 0.85156,0.132812 z m 0.0195,-2.921875 q 0.48047,0 0.71875,0.285156 0.24219,0.285157 0.24219,0.777344 0,0.503906 -0.26563,0.761719 -0.26562,0.257812 -0.75781,0.257812 -0.44922,0 -0.71875,-0.265625 -0.26562,-0.269531 -0.26562,-0.730468 0,-0.515625 0.26953,-0.800782 0.26953,-0.285156 0.77734,-0.285156 z"
           style="font-size:8px;fill:#cccccc"
           id="path1407" />
      </g>
      <g
         transform="translate(-230.59357,137.16156)"
         aria-label="K7"
         id="text3008"
         style="font-style:normal;font-weight:normal;font-size:40px;line-height:1.25;font-family:sans-serif;fill:#cccccc;fill-opacity:1;stroke:none">
        <path
           inkscape:connector-curvature="0"
           d="m 390.17975,87.925339 q 0.22656,0 0.39453,-0.160157 0.16797,-0.160156 0.16797,-0.414062 v -2.203125 l 2.08594,2.414062 q 0.0976,0.121094 0.15625,0.183594 0.0586,0.0625 0.15234,0.121094 0.0937,0.05469 0.18359,0.05469 h 0.008 q 0.21484,0 0.38281,-0.152343 0.17187,-0.152344 0.17187,-0.363282 0,-0.207031 -0.15234,-0.414062 l -1.83203,-2.042969 1.64844,-1.785156 q 0.15234,-0.183594 0.15234,-0.378906 0,-0.203125 -0.16016,-0.34375 -0.16015,-0.144532 -0.36328,-0.144532 -0.21094,0 -0.45703,0.304688 l -1.97656,2.246094 v -1.980469 q 0,-0.257813 -0.16797,-0.417969 -0.16797,-0.160156 -0.39453,-0.160156 -0.22656,0 -0.39453,0.160156 -0.16407,0.160156 -0.16407,0.417969 v 4.484375 q 0,0.257812 0.16407,0.417969 0.16406,0.15625 0.39453,0.15625 z"
           style="font-size:8px;fill:#cccccc"
           id="path1437" />
        <path
           inkscape:connector-curvature="0"
           d="m 396.16803,87.925339 q 0.14844,0 0.27734,-0.07813 0.12891,-0.08203 0.19922,-0.242188 l 1.86719,-4.207031 q 0.14453,-0.363281 0.14453,-0.613281 0,-0.488282 -0.62109,-0.488282 h -2.9375 q -0.21485,0 -0.32813,0.128907 -0.11328,0.128906 -0.11328,0.316406 0,0.195312 0.11328,0.320312 0.11719,0.125 0.32813,0.125 h 2.33984 l -1.74219,3.871094 q -0.0898,0.230469 -0.0898,0.34375 0,0.226563 0.16797,0.375 0.17187,0.148438 0.39453,0.148438 z"
           style="font-size:8px;fill:#cccccc"
           id="path1439" />
      </g>
      <g
         transform="translate(-231.2902,137.18305)"
         aria-label="K8"
         id="text3014"
         style="font-style:normal;font-weight:normal;font-size:40px;line-height:1.25;font-family:sans-serif;fill:#cccccc;fill-opacity:1;stroke:none">
        <path
           inkscape:connector-curvature="0"
           d="m 450.17975,87.925339 q 0.22656,0 0.39453,-0.160157 0.16797,-0.160156 0.16797,-0.414062 v -2.203125 l 2.08594,2.414062 q 0.0976,0.121094 0.15625,0.183594 0.0586,0.0625 0.15234,0.121094 0.0937,0.05469 0.18359,0.05469 h 0.008 q 0.21484,0 0.38281,-0.152343 0.17187,-0.152344 0.17187,-0.363282 0,-0.207031 -0.15234,-0.414062 l -1.83203,-2.042969 1.64844,-1.785156 q 0.15234,-0.183594 0.15234,-0.378906 0,-0.203125 -0.16016,-0.34375 -0.16015,-0.144532 -0.36328,-0.144532 -0.21094,0 -0.45703,0.304688 l -1.97656,2.246094 v -1.980469 q 0,-0.257813 -0.16797,-0.417969 -0.16797,-0.160156 -0.39453,-0.160156 -0.22656,0 -0.39453,0.160156 -0.16407,0.160156 -0.16407,0.417969 v 4.484375 q 0,0.257812 0.16407,0.417969 0.16406,0.15625 0.39453,0.15625 z"
           style="font-size:8px;fill:#cccccc"
           id="path1425" />
        <path
           inkscape:connector-curvature="0"
           d="m 456.66803,88.015182 q 0.95703,0 1.52344,-0.441406 0.5664,-0.445312 0.5664,-1.1875 0,-0.542969 -0.27343,-0.898437 -0.26954,-0.359375 -0.80079,-0.496094 0.44922,-0.101563 0.70704,-0.4375 0.26171,-0.335938 0.26171,-0.820313 0,-0.738281 -0.54687,-1.15625 -0.54297,-0.421875 -1.4375,-0.421875 -0.89453,0 -1.43359,0.421875 -0.53516,0.421875 -0.53516,1.15625 0,0.496094 0.25391,0.824219 0.25781,0.328125 0.71093,0.433594 -0.51562,0.113281 -0.79687,0.492187 -0.27735,0.375 -0.27735,0.902344 0,0.742188 0.5586,1.1875 0.5625,0.441406 1.51953,0.441406 z m 0.008,-0.820312 q -0.98437,0 -0.98437,-0.851563 0,-0.457031 0.27343,-0.6875 0.27344,-0.230468 0.71094,-0.230468 0.4336,0 0.70313,0.234375 0.27343,0.230468 0.27343,0.683593 0,0.851563 -0.97656,0.851563 z m 0,-2.648438 q -0.4414,0 -0.68359,-0.207031 -0.24219,-0.207031 -0.24219,-0.621094 0,-0.28125 0.12891,-0.460937 0.13281,-0.179688 0.32812,-0.246094 0.19922,-0.06641 0.46875,-0.06641 0.26563,0 0.46094,0.06641 0.19922,0.06641 0.32812,0.246094 0.13282,0.179687 0.13282,0.460937 0,0.414063 -0.24219,0.621094 -0.23828,0.207031 -0.67969,0.207031 z"
           style="font-size:8px;fill:#cccccc"
           id="path1427" />
      </g>
      <g
         transform="translate(-229.36635,192.95365)"
         aria-label="K9"
         id="text3020"
         style="font-style:normal;font-weight:normal;font-size:40px;line-height:1.25;font-family:sans-serif;fill:#cccccc;fill-opacity:1;stroke:none">
        <path
           inkscape:connector-curvature="0"
           d="m 270.17975,127.92534 q 0.22656,0 0.39453,-0.16016 0.16797,-0.16015 0.16797,-0.41406 v -2.20313 l 2.08594,2.41407 q 0.0976,0.12109 0.15625,0.18359 0.0586,0.0625 0.15234,0.12109 0.0937,0.0547 0.18359,0.0547 h 0.008 q 0.21484,0 0.38281,-0.15234 0.17187,-0.15235 0.17187,-0.36328 0,-0.20703 -0.15234,-0.41407 l -1.83203,-2.04296 1.64844,-1.78516 q 0.15234,-0.18359 0.15234,-0.37891 0,-0.20312 -0.16016,-0.34375 -0.16015,-0.14453 -0.36328,-0.14453 -0.21094,0 -0.45703,0.30469 l -1.97656,2.24609 v -1.98047 q 0,-0.25781 -0.16797,-0.41796 -0.16797,-0.16016 -0.39453,-0.16016 -0.22656,0 -0.39453,0.16016 -0.16407,0.16015 -0.16407,0.41796 v 4.48438 q 0,0.25781 0.16407,0.41797 0.16406,0.15625 0.39453,0.15625 z"
           style="font-size:8px;fill:#cccccc"
           id="path1393" />
        <path
           inkscape:connector-curvature="0"
           d="m 276.32428,128.02299 q 0.41016,0 0.75,-0.0898 0.33984,-0.0898 0.58984,-0.24609 0.25391,-0.16016 0.44532,-0.39063 0.19531,-0.23437 0.32031,-0.50781 0.1289,-0.27344 0.20703,-0.60547 0.082,-0.33594 0.11328,-0.67969 0.0352,-0.34375 0.0352,-0.73437 0,-0.44922 -0.0742,-0.83203 -0.0742,-0.38672 -0.24219,-0.71875 -0.16406,-0.33594 -0.41797,-0.57032 -0.2539,-0.23437 -0.6289,-0.36718 -0.375,-0.13672 -0.84766,-0.13672 -0.92969,0 -1.48438,0.52734 -0.55078,0.52344 -0.55078,1.35938 0,0.80078 0.52735,1.29297 0.53125,0.48828 1.32812,0.48828 0.46485,0 0.8086,-0.16407 0.34375,-0.16406 0.45703,-0.39062 0,0.34766 -0.0312,0.61328 -0.0312,0.26563 -0.11719,0.51563 -0.0859,0.25 -0.23047,0.41015 -0.14453,0.15625 -0.38281,0.25391 -0.23828,0.0937 -0.5586,0.0937 -0.39843,0 -0.97265,-0.20703 -0.0586,-0.0195 -0.0977,-0.0195 -0.15625,0 -0.26562,0.15625 -0.10938,0.15625 -0.10938,0.33984 0,0.25 0.19531,0.33203 0.57813,0.27734 1.23438,0.27734 z m 0.22266,-2.95703 q -0.47657,0 -0.71485,-0.28515 -0.23828,-0.28516 -0.23828,-0.78125 0,-0.5 0.26563,-0.75782 0.26562,-0.25781 0.7539,-0.25781 0.44922,0 0.71875,0.26953 0.26953,0.26563 0.26953,0.72657 0,0.51562 -0.27343,0.80078 -0.27344,0.28515 -0.78125,0.28515 z"
           style="font-size:8px;fill:#cccccc"
           id="path1395" />
      </g>
      <g
         transform="translate(-232.43014,192.94001)"
         aria-label="K10"
         id="text3026"
         style="font-style:normal;font-weight:normal;font-size:40px;line-height:1.25;font-family:sans-serif;fill:#cccccc;fill-opacity:1;stroke:none">
        <path
           inkscape:connector-curvature="0"
           d="m 330.17975,127.92534 q 0.22656,0 0.39453,-0.16016 0.16797,-0.16015 0.16797,-0.41406 v -2.20313 l 2.08594,2.41407 q 0.0976,0.12109 0.15625,0.18359 0.0586,0.0625 0.15234,0.12109 0.0937,0.0547 0.18359,0.0547 h 0.008 q 0.21484,0 0.38281,-0.15234 0.17187,-0.15235 0.17187,-0.36328 0,-0.20703 -0.15234,-0.41407 l -1.83203,-2.04296 1.64844,-1.78516 q 0.15234,-0.18359 0.15234,-0.37891 0,-0.20312 -0.16016,-0.34375 -0.16015,-0.14453 -0.36328,-0.14453 -0.21094,0 -0.45703,0.30469 l -1.97656,2.24609 v -1.98047 q 0,-0.25781 -0.16797,-0.41796 -0.16797,-0.16016 -0.39453,-0.16016 -0.22656,0 -0.39453,0.16016 -0.16407,0.16015 -0.16407,0.41796 v 4.48438 q 0,0.25781 0.16407,0.41797 0.16406,0.15625 0.39453,0.15625 z"
           style="font-size:8px;fill:#cccccc"
           id="path1398" />
        <path
           inkscape:connector-curvature="0"
           d="m 336.95319,127.92534 q 0.23828,0 0.39453,-0.17188 0.15625,-0.17187 0.15625,-0.45703 l -0.004,-4.35937 q 0,-0.3086 -0.14844,-0.47657 -0.14453,-0.16796 -0.375,-0.16796 -0.15625,0.004 -0.3164,0.10156 l -1.38282,0.8164 q -0.20312,0.125 -0.20312,0.33594 0,0.16016 0.10937,0.28125 0.10938,0.1211 0.26563,0.1211 0.11328,0 0.19922,-0.0586 l 0.75781,-0.46484 0.004,3.84765 q 0,0.3125 0.15234,0.48438 0.15234,0.16797 0.39063,0.16797 z"
           style="font-size:8px;fill:#cccccc"
           id="path1400" />
        <path
           inkscape:connector-curvature="0"
           d="m 341.51178,127.15581 q -0.21094,0 -0.37891,-0.0781 -0.16406,-0.0781 -0.27343,-0.22656 -0.10547,-0.15234 -0.17969,-0.33594 -0.0703,-0.18359 -0.10938,-0.43359 -0.0352,-0.25 -0.0508,-0.48047 -0.0117,-0.23047 -0.0117,-0.51953 0,-0.28906 0.0117,-0.51563 0.0156,-0.23047 0.0508,-0.47656 0.0391,-0.24609 0.10938,-0.42578 0.0742,-0.17969 0.17969,-0.32813 0.10937,-0.14843 0.27343,-0.22265 0.16797,-0.0781 0.37891,-0.0781 0.21094,0 0.375,0.0781 0.16797,0.0742 0.27344,0.22265 0.10937,0.14844 0.17968,0.32813 0.0742,0.17969 0.10938,0.42578 0.0391,0.24609 0.0508,0.47656 0.0156,0.23047 0.0156,0.51563 0,0.28906 -0.0156,0.52344 -0.0117,0.23046 -0.0508,0.48046 -0.0352,0.2461 -0.10938,0.42969 -0.0742,0.1836 -0.18359,0.33594 -0.10547,0.14844 -0.26953,0.22656 -0.16406,0.0781 -0.375,0.0781 z m 0,0.87109 q 0.46875,0 0.83594,-0.16016 0.36718,-0.16406 0.60156,-0.43359 0.23828,-0.27344 0.39062,-0.65625 0.15625,-0.38672 0.21875,-0.80078 0.0625,-0.41797 0.0625,-0.89453 0,-0.48047 -0.0664,-0.89453 -0.0625,-0.41407 -0.21875,-0.78907 -0.15235,-0.3789 -0.39063,-0.64453 -0.23437,-0.26953 -0.60156,-0.42578 -0.36719,-0.16015 -0.83203,-0.16015 -0.47266,0 -0.84375,0.16015 -0.36719,0.16016 -0.60156,0.42969 -0.23438,0.26562 -0.39063,0.64844 -0.15234,0.3789 -0.21484,0.78906 -0.0625,0.41016 -0.0625,0.88672 0,0.48047 0.0625,0.89844 0.0625,0.41406 0.21484,0.80078 0.15625,0.38281 0.39063,0.65234 0.23828,0.26953 0.60547,0.43359 0.37109,0.16016 0.83984,0.16016 z"
           style="font-size:8px;fill:#cccccc"
           id="path1402" />
      </g>
      <g
         transform="translate(-232.42365,192.93023)"
         aria-label="K11"
         id="text3032"
         style="font-style:normal;font-weight:normal;font-size:40px;line-height:1.25;font-family:sans-serif;fill:#cccccc;fill-opacity:1;stroke:none">
        <path
           inkscape:connector-curvature="0"
           d="m 390.17975,127.92534 q 0.22656,0 0.39453,-0.16016 0.16797,-0.16015 0.16797,-0.41406 v -2.20313 l 2.08594,2.41407 q 0.0976,0.12109 0.15625,0.18359 0.0586,0.0625 0.15234,0.12109 0.0937,0.0547 0.18359,0.0547 h 0.008 q 0.21484,0 0.38281,-0.15234 0.17187,-0.15235 0.17187,-0.36328 0,-0.20703 -0.15234,-0.41407 l -1.83203,-2.04296 1.64844,-1.78516 q 0.15234,-0.18359 0.15234,-0.37891 0,-0.20312 -0.16016,-0.34375 -0.16015,-0.14453 -0.36328,-0.14453 -0.21094,0 -0.45703,0.30469 l -1.97656,2.24609 v -1.98047 q 0,-0.25781 -0.16797,-0.41796 -0.16797,-0.16016 -0.39453,-0.16016 -0.22656,0 -0.39453,0.16016 -0.16407,0.16015 -0.16407,0.41796 v 4.48438 q 0,0.25781 0.16407,0.41797 0.16406,0.15625 0.39453,0.15625 z"
           style="font-size:8px;fill:#cccccc"
           id="path1442" />
        <path
           inkscape:connector-curvature="0"
           d="m 396.95319,127.92534 q 0.23828,0 0.39453,-0.17188 0.15625,-0.17187 0.15625,-0.45703 l -0.004,-4.35937 q 0,-0.3086 -0.14844,-0.47657 -0.14453,-0.16796 -0.375,-0.16796 -0.15625,0.004 -0.3164,0.10156 l -1.38282,0.8164 q -0.20312,0.125 -0.20312,0.33594 0,0.16016 0.10937,0.28125 0.10938,0.1211 0.26563,0.1211 0.11328,0 0.19922,-0.0586 l 0.75781,-0.46484 0.004,3.84765 q 0,0.3125 0.15234,0.48438 0.15234,0.16797 0.39063,0.16797 z"
           style="font-size:8px;fill:#cccccc"
           id="path1444" />
        <path
           inkscape:connector-curvature="0"
           d="m 401.76569,127.92534 q 0.23828,0 0.39453,-0.17188 0.15625,-0.17187 0.15625,-0.45703 l -0.004,-4.35937 q 0,-0.3086 -0.14844,-0.47657 -0.14453,-0.16796 -0.375,-0.16796 -0.15625,0.004 -0.3164,0.10156 l -1.38282,0.8164 q -0.20312,0.125 -0.20312,0.33594 0,0.16016 0.10937,0.28125 0.10938,0.1211 0.26563,0.1211 0.11328,0 0.19922,-0.0586 l 0.75781,-0.46484 0.004,3.84765 q 0,0.3125 0.15234,0.48438 0.15234,0.16797 0.39063,0.16797 z"
           style="font-size:8px;fill:#cccccc"
           id="path1446" />
      </g>
      <g
         transform="translate(-233.56755,192.93803)"
         aria-label="K12"
         id="text3038"
         style="font-style:normal;font-weight:normal;font-size:40px;line-height:1.25;font-family:sans-serif;fill:#cccccc;fill-opacity:1;stroke:none">
        <path
           inkscape:connector-curvature="0"
           d="m 450.17975,127.92534 q 0.22656,0 0.39453,-0.16016 0.16797,-0.16015 0.16797,-0.41406 v -2.20313 l 2.08594,2.41407 q 0.0976,0.12109 0.15625,0.18359 0.0586,0.0625 0.15234,0.12109 0.0937,0.0547 0.18359,0.0547 h 0.008 q 0.21484,0 0.38281,-0.15234 0.17187,-0.15235 0.17187,-0.36328 0,-0.20703 -0.15234,-0.41407 l -1.83203,-2.04296 1.64844,-1.78516 q 0.15234,-0.18359 0.15234,-0.37891 0,-0.20312 -0.16016,-0.34375 -0.16015,-0.14453 -0.36328,-0.14453 -0.21094,0 -0.45703,0.30469 l -1.97656,2.24609 v -1.98047 q 0,-0.25781 -0.16797,-0.41796 -0.16797,-0.16016 -0.39453,-0.16016 -0.22656,0 -0.39453,0.16016 -0.16407,0.16015 -0.16407,0.41796 v 4.48438 q 0,0.25781 0.16407,0.41797 0.16406,0.15625 0.39453,0.15625 z"
           style="font-size:8px;fill:#cccccc"
           id="path1430" />
        <path
           inkscape:connector-curvature="0"
           d="m 456.95319,127.92534 q 0.23828,0 0.39453,-0.17188 0.15625,-0.17187 0.15625,-0.45703 l -0.004,-4.35937 q 0,-0.3086 -0.14844,-0.47657 -0.14453,-0.16796 -0.375,-0.16796 -0.15625,0.004 -0.3164,0.10156 l -1.38282,0.8164 q -0.20312,0.125 -0.20312,0.33594 0,0.16016 0.10937,0.28125 0.10938,0.1211 0.26563,0.1211 0.11328,0 0.19922,-0.0586 l 0.75781,-0.46484 0.004,3.84765 q 0,0.3125 0.15234,0.48438 0.15234,0.16797 0.39063,0.16797 z"
           style="font-size:8px;fill:#cccccc"
           id="path1432" />
        <path
           inkscape:connector-curvature="0"
           d="m 463.31256,123.89018 q 0,-0.67969 -0.51172,-1.14844 -0.50781,-0.46875 -1.30469,-0.46875 -0.48046,0 -0.875,0.12891 -0.39453,0.125 -0.78515,0.35547 -0.20313,0.12109 -0.20313,0.32422 0,0.17578 0.14063,0.32812 0.14062,0.15235 0.30078,0.15235 0.0625,0 0.11328,-0.0273 0.0312,-0.0156 0.22656,-0.1289 0.19532,-0.11328 0.28125,-0.14844 0.0859,-0.0391 0.28125,-0.0859 0.19922,-0.0469 0.41797,-0.0469 0.3711,0 0.62891,0.23047 0.26172,0.23046 0.26172,0.59375 0,0.43359 -0.4961,0.91796 l -2.02343,2.01172 q -0.21485,0.21485 -0.21485,0.5 0,0.22657 0.14844,0.38672 0.15234,0.16016 0.41016,0.16016 h 2.78125 q 0.16015,0 0.25,-0.125 0.0898,-0.12891 0.0898,-0.30078 0,-0.17188 -0.0898,-0.29297 -0.0899,-0.125 -0.25,-0.125 h -2.16407 l 1.65235,-1.46485 q 0.93359,-0.8164 0.93359,-1.72656 z"
           style="font-size:8px;fill:#cccccc"
           id="path1434" />
      </g>
    </g>
  </g>
  <path
     style="opacity:1;fill:#ffffff;fill-opacity:0.1371;stroke-width:1.21898"
     id="rect1261"
     class="st15"
     d="m 218.44076,24.968178 c 0.97521,0 1.82848,0.853297 1.82848,1.828492 0,0.975195 -0.85327,1.828492 -1.82848,1.828492 -0.97521,0 -1.82848,-0.853297 -1.82848,-1.828492 0,-0.975195 0.85327,-1.828492 1.82848,-1.828492 z" />
  <path
     style="opacity:1;fill:#ffffff;fill-opacity:0.1371;stroke-width:1.21898"
     id="rect1263"
     class="st15"
     d="m 234.44076,24.968178 c 0.97521,0 1.82848,0.853297 1.82848,1.828492 0,0.975195 -0.85327,1.828492 -1.82848,1.828492 -0.97521,0 -1.82848,-0.853297 -1.82848,-1.828492 0,-0.975195 0.73139,-1.828492 1.82848,-1.828492 z" />
  <g
     style="opacity:1"
     transform="translate(-1.05924,-6.7033297)"
     id="g1181">
    <g
       aria-label="A"
       id="text1167"
       style="font-style:normal;font-weight:normal;font-size:5.33333000000000013px;line-height:1.25;font-family:sans-serif;fill:#e6e6e6;fill-opacity:1;stroke:none">
      <path
         d="m 221.2552,40.087418 h -0.54948 l -0.38021,-1.080729 h -1.67708 l -0.38021,1.080729 h -0.52343 l 1.41145,-3.877602 h 0.6875 z m -1.08854,-1.523437 -0.67969,-1.903645 -0.68229,1.903645 z"
         id="path1914" />
    </g>
    <g
       aria-label="B"
       id="text1171"
       style="font-style:normal;font-weight:normal;font-size:5.33333000000000013px;line-height:1.25;font-family:sans-serif;fill:#e6e6e6;fill-opacity:1;stroke:none">
      <path
         d="m 236.96223,38.89471 q 0,0.289062 -0.10937,0.510416 -0.10938,0.221354 -0.29427,0.364583 -0.21875,0.171875 -0.48177,0.244792 -0.26042,0.07292 -0.66407,0.07292 h -1.37499 v -3.877602 h 1.14843 q 0.42448,0 0.63542,0.03125 0.21094,0.03125 0.40364,0.130208 0.21355,0.111979 0.3099,0.289062 0.0964,0.174479 0.0964,0.419271 0,0.276041 -0.14062,0.471354 -0.14063,0.192708 -0.375,0.309895 v 0.02083 q 0.39323,0.08073 0.61979,0.346354 0.22656,0.26302 0.22656,0.666666 z m -0.86718,-1.747395 q 0,-0.140625 -0.0469,-0.236979 -0.0469,-0.09635 -0.15104,-0.15625 -0.1224,-0.07031 -0.29688,-0.08594 -0.17447,-0.01823 -0.43229,-0.01823 h -0.61458 v 1.119791 h 0.66667 q 0.24218,0 0.38541,-0.02344 0.14323,-0.02604 0.26563,-0.104166 0.12239,-0.07813 0.17187,-0.200521 0.0521,-0.125 0.0521,-0.294271 z m 0.33072,1.768228 q 0,-0.234375 -0.0703,-0.372395 -0.0703,-0.138021 -0.25521,-0.234375 -0.125,-0.0651 -0.30468,-0.08333 -0.17709,-0.02083 -0.43229,-0.02083 h -0.8099 v 1.442708 h 0.68229 q 0.33854,0 0.55469,-0.03385 0.21614,-0.03646 0.35416,-0.130209 0.14584,-0.101562 0.21355,-0.23177 0.0677,-0.130209 0.0677,-0.335938 z"
         id="path1917" />
    </g>
  </g>
  <g
     transform="translate(-1.05924,-6.7033297)"
     aria-label="CONTROL BANK"
     id="text1175"
     style="font-style:normal;font-weight:normal;font-size:5.33333000000000013px;line-height:1.25;font-family:sans-serif;fill:#e6e6e6;fill-opacity:1;stroke:none;opacity:1">
    <path
       d="m 209.27539,47.047405 q -0.14323,0.0625 -0.26042,0.117188 -0.11458,0.05469 -0.30208,0.114583 -0.15886,0.04948 -0.34636,0.08333 -0.18489,0.03646 -0.40885,0.03646 -0.42187,0 -0.76823,-0.117188 -0.34375,-0.119791 -0.59896,-0.372395 -0.25,-0.247396 -0.39062,-0.627604 -0.14063,-0.382812 -0.14063,-0.88802 0,-0.479167 0.13542,-0.856771 0.13542,-0.377604 0.39063,-0.63802 0.24739,-0.252604 0.59635,-0.385417 0.35156,-0.132812 0.77865,-0.132812 0.31249,0 0.62239,0.07552 0.3125,0.07552 0.69271,0.265625 v 0.611978 h -0.0391 q -0.32032,-0.268229 -0.63542,-0.390624 -0.3151,-0.122396 -0.67448,-0.122396 -0.29427,0 -0.53125,0.09635 -0.23437,0.09375 -0.41927,0.294271 -0.17969,0.195312 -0.28125,0.494791 -0.099,0.296875 -0.099,0.6875 0,0.408853 0.10938,0.703124 0.11198,0.294271 0.28646,0.479167 0.18229,0.192708 0.42447,0.286458 0.2448,0.09114 0.51563,0.09114 0.37239,0 0.69792,-0.127604 0.32552,-0.127604 0.60937,-0.382812 h 0.0365 z"
       id="path1920" />
    <path
       d="m 212.90039,43.896366 q 0.23698,0.260416 0.36198,0.63802 0.1276,0.377604 0.1276,0.85677 0,0.479167 -0.13021,0.859375 -0.1276,0.377604 -0.35937,0.630208 -0.23959,0.263021 -0.56771,0.395833 -0.32552,0.132812 -0.74479,0.132812 -0.40886,0 -0.74479,-0.135416 -0.33334,-0.135417 -0.56771,-0.393229 -0.23438,-0.257813 -0.36198,-0.632812 -0.125,-0.375 -0.125,-0.856771 0,-0.473958 0.125,-0.848957 0.125,-0.377604 0.36458,-0.645833 0.22917,-0.255209 0.56771,-0.390625 0.34115,-0.135417 0.74219,-0.135417 0.41666,0 0.74739,0.138021 0.33334,0.135417 0.56511,0.388021 z m -0.0469,1.49479 q 0,-0.755207 -0.33854,-1.164061 -0.33854,-0.411458 -0.92448,-0.411458 -0.59114,0 -0.92969,0.411458 -0.33593,0.408854 -0.33593,1.164061 0,0.763021 0.34375,1.169271 0.34375,0.403645 0.92187,0.403645 0.57813,0 0.91927,-0.403645 0.34375,-0.40625 0.34375,-1.169271 z"
       id="path1922" />
    <path
       d="m 217.16601,47.328655 h -0.63802 l -1.83854,-3.468748 v 3.468748 h -0.48177 v -3.877602 h 0.79948 l 1.67708,3.166665 v -3.166665 h 0.48177 z"
       id="path1924" />
    <path
       d="m 220.96288,43.909386 h -1.38541 v 3.419269 h -0.51563 v -3.419269 h -1.38542 v -0.458333 h 3.28646 z"
       id="path1926" />
    <path
       d="m 224.69725,47.328655 h -0.66927 l -1.29687,-1.541666 h -0.72656 v 1.541666 h -0.51563 v -3.877602 h 1.08594 q 0.35156,0 0.58594,0.04687 0.23437,0.04427 0.42187,0.161459 0.21094,0.132812 0.32813,0.335937 0.11979,0.200521 0.11979,0.510416 0,0.419271 -0.21094,0.703125 -0.21094,0.28125 -0.58073,0.424479 z m -1.20572,-2.786456 q 0,-0.166667 -0.0599,-0.294271 -0.0573,-0.130208 -0.19271,-0.21875 -0.11198,-0.07552 -0.26562,-0.104167 -0.15365,-0.03125 -0.36198,-0.03125 h -0.60677 v 1.463541 h 0.52083 q 0.24479,0 0.42708,-0.04167 0.1823,-0.04427 0.3099,-0.161459 0.11719,-0.109375 0.17187,-0.249999 0.0573,-0.14323 0.0573,-0.361979 z"
       id="path1928" />
    <path
       d="m 228.08788,43.896366 q 0.23698,0.260416 0.36198,0.63802 0.1276,0.377604 0.1276,0.85677 0,0.479167 -0.13021,0.859375 -0.1276,0.377604 -0.35937,0.630208 -0.23959,0.263021 -0.56771,0.395833 -0.32552,0.132812 -0.74479,0.132812 -0.40886,0 -0.74479,-0.135416 -0.33334,-0.135417 -0.56771,-0.393229 -0.23438,-0.257813 -0.36198,-0.632812 -0.125,-0.375 -0.125,-0.856771 0,-0.473958 0.125,-0.848957 0.125,-0.377604 0.36458,-0.645833 0.22917,-0.255209 0.56771,-0.390625 0.34115,-0.135417 0.74219,-0.135417 0.41666,0 0.74739,0.138021 0.33334,0.135417 0.56511,0.388021 z m -0.0469,1.49479 q 0,-0.755207 -0.33854,-1.164061 -0.33854,-0.411458 -0.92448,-0.411458 -0.59114,0 -0.92969,0.411458 -0.33593,0.408854 -0.33593,1.164061 0,0.763021 0.34375,1.169271 0.34375,0.403645 0.92187,0.403645 0.57813,0 0.91927,-0.403645 0.34375,-0.40625 0.34375,-1.169271 z"
       id="path1930" />
    <path
       d="m 231.84829,47.328655 h -2.45312 v -3.877602 h 0.51562 v 3.419269 h 1.9375 z"
       id="path1932" />
    <path
       d="m 237.16339,46.135948 q 0,0.289062 -0.10937,0.510416 -0.10938,0.221354 -0.29427,0.364583 -0.21875,0.171875 -0.48177,0.244792 -0.26042,0.07292 -0.66407,0.07292 h -1.37499 v -3.877602 h 1.14843 q 0.42448,0 0.63542,0.03125 0.21094,0.03125 0.40364,0.130209 0.21355,0.111979 0.3099,0.289062 0.0964,0.174479 0.0964,0.419271 0,0.276041 -0.14062,0.471353 -0.14063,0.192709 -0.375,0.309896 v 0.02083 q 0.39323,0.08073 0.61979,0.346354 0.22656,0.263021 0.22656,0.666667 z m -0.86718,-1.747395 q 0,-0.140625 -0.0469,-0.236979 -0.0469,-0.09635 -0.15104,-0.15625 -0.1224,-0.07031 -0.29688,-0.08594 -0.17447,-0.01823 -0.43229,-0.01823 h -0.61458 v 1.119791 h 0.66667 q 0.24218,0 0.38541,-0.02344 0.14323,-0.02604 0.26563,-0.104167 0.12239,-0.07813 0.17187,-0.200521 0.0521,-0.124999 0.0521,-0.29427 z m 0.33072,1.768228 q 0,-0.234375 -0.0703,-0.372396 -0.0703,-0.13802 -0.25521,-0.234375 -0.125,-0.0651 -0.30468,-0.08333 -0.17709,-0.02083 -0.43229,-0.02083 h -0.8099 v 1.442707 h 0.68229 q 0.33854,0 0.55469,-0.03385 0.21614,-0.03646 0.35417,-0.130208 0.14583,-0.101563 0.21354,-0.231771 0.0677,-0.130208 0.0677,-0.335937 z"
       id="path1934" />
    <path
       d="m 240.95245,47.328655 h -0.54948 l -0.3802,-1.080728 h -1.67709 l -0.3802,1.080728 h -0.52344 l 1.41146,-3.877602 h 0.6875 z m -1.08854,-1.523436 -0.67968,-1.903645 -0.6823,1.903645 z"
       id="path1936" />
    <path
       d="m 244.49933,47.328655 h -0.63803 l -1.83854,-3.468748 v 3.468748 h -0.48177 v -3.877602 h 0.79948 l 1.67708,3.166665 v -3.166665 h 0.48178 z"
       id="path1938" />
    <path
       d="m 248.64776,47.328655 h -0.66927 l -1.53385,-1.726561 -0.38542,0.411458 v 1.315103 h -0.51562 v -3.877602 h 0.51562 v 2.023437 l 1.88281,-2.023437 h 0.625 l -1.73177,1.822916 z"
       id="path1940" />
  </g>
  <g
     id="g1785">
    <text
       id="text1039"
       y="165.9375"
       x="99.199219"
       style="font-style:normal;font-variant:normal;font-weight:normal;font-stretch:normal;font-size:8px;line-height:1.25;font-family:sans-serif;-inkscape-font-specification:sans-serif;fill:#e6e6e6;fill-opacity:1"
       xml:space="preserve"><tspan
         style="font-style:normal;font-variant:normal;font-weight:normal;font-stretch:normal;font-family:sans-serif;-inkscape-font-specification:sans-serif"
         y="165.9375"
         x="99.199219"
         id="tspan1037"
         sodipodi:role="line">K2</tspan></text>
    <text
       xml:space="preserve"
       style="font-style:normal;font-variant:normal;font-weight:normal;font-stretch:normal;font-size:8px;line-height:1.25;font-family:sans-serif;-inkscape-font-specification:sans-serif;fill:#e6e6e6;fill-opacity:1"
       x="159.19922"
       y="165.9375"
       id="text1048"><tspan
         sodipodi:role="line"
         id="tspan1046"
         x="159.19922"
         y="165.9375"
         style="font-style:normal;font-variant:normal;font-weight:normal;font-stretch:normal;font-family:sans-serif;-inkscape-font-specification:sans-serif">K3</tspan></text>
    <text
       id="text1052"
       y="165.81641"
       x="218.19922"
       style="font-style:normal;font-variant:normal;font-weight:normal;font-stretch:normal;font-size:8px;line-height:1.25;font-family:sans-serif;-inkscape-font-specification:sans-serif;fill:#e6e6e6;fill-opacity:1"
       xml:space="preserve"><tspan
         style="font-style:normal;font-variant:normal;font-weight:normal;font-stretch:normal;font-family:sans-serif;-inkscape-font-specification:sans-serif"
         y="165.81641"
         x="218.19922"
         id="tspan1050"
         sodipodi:role="line">K4</tspan></text>
    <text
       xml:space="preserve"
       style="font-style:normal;font-variant:normal;font-weight:normal;font-stretch:normal;font-size:8px;line-height:1.25;font-family:sans-serif;-inkscape-font-specification:sans-serif;fill:#e6e6e6;fill-opacity:1"
       x="40.199219"
       y="165.83594"
       id="text1056"><tspan
         sodipodi:role="line"
         id="tspan1054"
         x="40.199219"
         y="165.83594"
         style="font-style:normal;font-variant:normal;font-weight:normal;font-stretch:normal;font-family:sans-serif;-inkscape-font-specification:sans-serif">K1</tspan></text>
    <text
       xml:space="preserve"
       style="font-style:normal;font-variant:normal;font-weight:normal;font-stretch:normal;font-size:8px;line-height:1.25;font-family:sans-serif;-inkscape-font-specification:sans-serif;fill:#e6e6e6;fill-opacity:1"
       x="99.199219"
       y="261.92578"
       id="text1070"><tspan
         sodipodi:role="line"
         id="tspan1068"
         x="99.199219"
         y="261.92578"
         style="font-style:normal;font-variant:normal;font-weight:normal;font-stretch:normal;font-family:sans-serif;-inkscape-font-specification:sans-serif">K6</tspan></text>
    <text
       id="text1074"
       y="261.81641"
       x="159.19922"
       style="font-style:normal;font-variant:normal;font-weight:normal;font-stretch:normal;font-size:8px;line-height:1.25;font-family:sans-serif;-inkscape-font-specification:sans-serif;fill:#e6e6e6;fill-opacity:1"
       xml:space="preserve"><tspan
         style="font-style:normal;font-variant:normal;font-weight:normal;font-stretch:normal;font-family:sans-serif;-inkscape-font-specification:sans-serif"
         y="261.81641"
         x="159.19922"
         id="tspan1072"
         sodipodi:role="line">K7</tspan></text>
    <text
       xml:space="preserve"
       style="font-style:normal;font-variant:normal;font-weight:normal;font-stretch:normal;font-size:8px;line-height:1.25;font-family:sans-serif;-inkscape-font-specification:sans-serif;fill:#e6e6e6;fill-opacity:1"
       x="218.19922"
       y="261.94922"
       id="text1078"><tspan
         sodipodi:role="line"
         id="tspan1076"
         x="218.19922"
         y="261.94922"
         style="font-style:normal;font-variant:normal;font-weight:normal;font-stretch:normal;font-family:sans-serif;-inkscape-font-specification:sans-serif">K8</tspan></text>
    <text
       id="text1082"
       y="261.81641"
       x="40.199219"
       style="font-style:normal;font-variant:normal;font-weight:normal;font-stretch:normal;font-size:8px;line-height:1.25;font-family:sans-serif;-inkscape-font-specification:sans-serif;fill:#e6e6e6;fill-opacity:1"
       xml:space="preserve"><tspan
         style="font-style:normal;font-variant:normal;font-weight:normal;font-stretch:normal;font-family:sans-serif;-inkscape-font-specification:sans-serif"
         y="261.81641"
         x="40.199219"
         id="tspan1080"
         sodipodi:role="line">K5</tspan></text>
    <text
       id="text1088"
       y="357.93359"
       x="96.699219"
       style="font-style:normal;font-variant:normal;font-weight:normal;font-stretch:normal;font-size:8px;line-height:1.25;font-family:sans-serif;-inkscape-font-specification:sans-serif;fill:#e6e6e6;fill-opacity:1"
       xml:space="preserve"><tspan
         style="font-style:normal;font-variant:normal;font-weight:normal;font-stretch:normal;font-family:sans-serif;-inkscape-font-specification:sans-serif"
         y="357.93359"
         x="96.699219"
         id="tspan1086"
         sodipodi:role="line">K10</tspan></text>
    <text
       xml:space="preserve"
       style="font-style:normal;font-variant:normal;font-weight:normal;font-stretch:normal;font-size:8px;line-height:1.25;font-family:sans-serif;-inkscape-font-specification:sans-serif;fill:#e6e6e6;fill-opacity:1"
       x="156.82617"
       y="357.83594"
       id="text1092"><tspan
         sodipodi:role="line"
         id="tspan1090"
         x="156.82617"
         y="357.83594"
         style="font-style:normal;font-variant:normal;font-weight:normal;font-stretch:normal;font-family:sans-serif;-inkscape-font-specification:sans-serif">K11</tspan></text>
    <text
       id="text1096"
       y="357.9375"
       x="215.67383"
       style="font-style:normal;font-variant:normal;font-weight:normal;font-stretch:normal;font-size:8px;line-height:1.25;font-family:sans-serif;-inkscape-font-specification:sans-serif;fill:#e6e6e6;fill-opacity:1"
       xml:space="preserve"><tspan
         style="font-style:normal;font-variant:normal;font-weight:normal;font-stretch:normal;font-family:sans-serif;-inkscape-font-specification:sans-serif"
         y="357.9375"
         x="215.67383"
         id="tspan1094"
         sodipodi:role="line">K12</tspan></text>
    <text
       xml:space="preserve"
       style="font-style:normal;font-variant:normal;font-weight:normal;font-stretch:normal;font-size:8px;line-height:1.25;font-family:sans-serif;-inkscape-font-specification:sans-serif;fill:#e6e6e6;fill-opacity:1"
       x="37.794922"
       y="357.83594"
       id="text1100"><tspan
         sodipodi:role="line"
         id="tspan1098"
         x="37.794922"
         y="357.83594"
         style="font-style:normal;font-variant:normal;font-weight:normal;font-stretch:normal;font-family:sans-serif;-inkscape-font-specification:sans-serif">K11</tspan></text>
  </g>
  <g
     id="g1835">
    <g
       aria-label="K2"
       id="text1789"
       style="font-style:normal;font-variant:normal;font-weight:normal;font-stretch:normal;font-size:8px;line-height:1.25;font-family:sans-serif;-inkscape-font-specification:sans-serif;fill:#e6e6e6;fill-opacity:1">
      <path
         d="m 104.65625,165.9375 h -1.00391 l -2.30078,-2.58984 -0.57812,0.61718 v 1.97266 H 100 v -5.81641 h 0.77344 v 3.03516 l 2.82422,-3.03516 h 0.9375 l -2.59766,2.73438 z"
         style="font-style:normal;font-variant:normal;font-weight:normal;font-stretch:normal;font-family:sans-serif;-inkscape-font-specification:sans-serif"
         id="path1837" />
      <path
         d="m 109.3125,165.9375 h -3.9375 v -0.81641 q 0.41016,-0.35156 0.82031,-0.70312 0.41407,-0.35156 0.76953,-0.69922 0.75,-0.72656 1.02735,-1.15234 0.27734,-0.42969 0.27734,-0.92579 0,-0.45312 -0.30078,-0.70703 -0.29687,-0.25781 -0.83203,-0.25781 -0.35547,0 -0.76953,0.125 -0.41406,0.125 -0.8086,0.38281 h -0.0391 v -0.82031 q 0.27735,-0.13672 0.73828,-0.25 Q 106.72266,160 107.15625,160 q 0.89453,0 1.40234,0.43359 0.50782,0.42969 0.50782,1.16797 0,0.33203 -0.0859,0.6211 -0.082,0.28515 -0.24609,0.54296 -0.15235,0.24219 -0.35938,0.47657 -0.20312,0.23437 -0.49609,0.51953 -0.41797,0.41015 -0.86328,0.79687 -0.44532,0.38282 -0.83204,0.71094 h 3.12891 z"
         style="font-style:normal;font-variant:normal;font-weight:normal;font-stretch:normal;font-family:sans-serif;-inkscape-font-specification:sans-serif"
         id="path1839" />
    </g>
    <g
       aria-label="K3"
       id="text1793"
       style="font-style:normal;font-variant:normal;font-weight:normal;font-stretch:normal;font-size:8px;line-height:1.25;font-family:sans-serif;-inkscape-font-specification:sans-serif;fill:#e6e6e6;fill-opacity:1">
      <path
         d="m 164.65625,165.9375 h -1.00391 l -2.30078,-2.58984 -0.57812,0.61718 v 1.97266 H 160 v -5.81641 h 0.77344 v 3.03516 l 2.82422,-3.03516 h 0.9375 l -2.59766,2.73438 z"
         style="font-style:normal;font-variant:normal;font-weight:normal;font-stretch:normal;font-family:sans-serif;-inkscape-font-specification:sans-serif"
         id="path1842" />
      <path
         d="m 168.80078,163.13672 q 0.1875,0.16797 0.30859,0.42187 0.1211,0.25391 0.1211,0.65625 0,0.39844 -0.14453,0.73047 -0.14453,0.33203 -0.40625,0.57813 -0.29297,0.27343 -0.69141,0.40625 -0.39453,0.1289 -0.86719,0.1289 -0.48437,0 -0.95312,-0.11718 -0.46875,-0.11329 -0.76953,-0.25 V 164.875 h 0.0586 q 0.33203,0.21875 0.78125,0.36328 0.44922,0.14453 0.86719,0.14453 0.24609,0 0.52344,-0.082 0.27734,-0.082 0.44921,-0.24219 0.17969,-0.17187 0.26563,-0.3789 0.0898,-0.20703 0.0898,-0.52344 0,-0.3125 -0.10156,-0.51563 -0.0977,-0.20703 -0.27344,-0.32421 -0.17578,-0.1211 -0.42578,-0.16407 -0.25,-0.0469 -0.53906,-0.0469 h -0.35156 v -0.64844 h 0.27343 q 0.59375,0 0.94532,-0.24609 0.35547,-0.25 0.35547,-0.72657 0,-0.21093 -0.0898,-0.36718 -0.0898,-0.16016 -0.25,-0.26172 -0.16797,-0.10156 -0.35937,-0.14063 -0.19141,-0.0391 -0.4336,-0.0391 -0.37109,0 -0.78906,0.13281 -0.41797,0.13282 -0.78906,0.375 h -0.0391 v -0.8164 q 0.27734,-0.13672 0.73828,-0.25 Q 166.76953,160 167.20312,160 q 0.42579,0 0.75,0.0781 0.32422,0.0781 0.58594,0.25 0.28125,0.1875 0.42578,0.45313 0.14453,0.26562 0.14453,0.62109 0,0.48438 -0.34375,0.84766 -0.33984,0.35937 -0.80468,0.45312 v 0.0547 q 0.1875,0.0312 0.42968,0.13281 0.24219,0.0977 0.41016,0.2461 z"
         style="font-style:normal;font-variant:normal;font-weight:normal;font-stretch:normal;font-family:sans-serif;-inkscape-font-specification:sans-serif"
         id="path1844" />
    </g>
    <g
       aria-label="K4"
       id="text1797"
       style="font-style:normal;font-variant:normal;font-weight:normal;font-stretch:normal;font-size:8px;line-height:1.25;font-family:sans-serif;-inkscape-font-specification:sans-serif;fill:#e6e6e6;fill-opacity:1">
      <path
         d="m 223.65625,165.81641 h -1.00391 l -2.30078,-2.58985 -0.57812,0.61719 v 1.97266 H 219 V 160 h 0.77344 v 3.03516 L 222.59766,160 h 0.9375 l -2.59766,2.73437 z"
         style="font-style:normal;font-variant:normal;font-weight:normal;font-stretch:normal;font-family:sans-serif;-inkscape-font-specification:sans-serif"
         id="path1847" />
      <path
         d="m 228.44531,164.17969 h -0.86328 v 1.63672 h -0.75 v -1.63672 h -2.78516 v -0.89844 L 226.86328,160 h 0.71875 v 3.55469 h 0.86328 z m -1.61328,-0.625 v -2.625 l -2.25391,2.625 z"
         style="font-style:normal;font-variant:normal;font-weight:normal;font-stretch:normal;font-family:sans-serif;-inkscape-font-specification:sans-serif"
         id="path1849" />
    </g>
    <g
       aria-label="K1"
       id="text1801"
       style="font-style:normal;font-variant:normal;font-weight:normal;font-stretch:normal;font-size:8px;line-height:1.25;font-family:sans-serif;-inkscape-font-specification:sans-serif;fill:#e6e6e6;fill-opacity:1">
      <path
         d="m 45.65625,165.83594 h -1.003906 l -2.300782,-2.58985 -0.578125,0.61719 v 1.97266 H 41 v -5.81641 h 0.773437 v 3.03516 l 2.824219,-3.03516 h 0.9375 l -2.597656,2.73438 z"
         style="font-style:normal;font-variant:normal;font-weight:normal;font-stretch:normal;font-family:sans-serif;-inkscape-font-specification:sans-serif"
         id="path1852" />
      <path
         d="m 49.980469,165.83594 h -3.148438 v -0.59375 h 1.210938 v -3.89844 h -1.210938 v -0.53125 q 0.246094,0 0.527344,-0.0391 0.28125,-0.043 0.425781,-0.1211 0.179688,-0.0977 0.28125,-0.24609 Q 48.171875,160.25391 48.1875,160 h 0.605469 v 5.24219 h 1.1875 z"
         style="font-style:normal;font-variant:normal;font-weight:normal;font-stretch:normal;font-family:sans-serif;-inkscape-font-specification:sans-serif"
         id="path1854" />
    </g>
    <g
       aria-label="K6"
       id="text1805"
       style="font-style:normal;font-variant:normal;font-weight:normal;font-stretch:normal;font-size:8px;line-height:1.25;font-family:sans-serif;-inkscape-font-specification:sans-serif;fill:#e6e6e6;fill-opacity:1">
      <path
         d="m 104.65625,261.92578 h -1.00391 l -2.30078,-2.58984 -0.57812,0.61718 v 1.97266 H 100 v -5.81641 h 0.77344 v 3.03516 l 2.82422,-3.03516 h 0.9375 l -2.59766,2.73438 z"
         style="font-style:normal;font-variant:normal;font-weight:normal;font-stretch:normal;font-family:sans-serif;-inkscape-font-specification:sans-serif"
         id="path1857" />
      <path
         d="m 109.39844,260.03906 q 0,0.88672 -0.58594,1.44922 -0.58203,0.55859 -1.42969,0.55859 -0.42968,0 -0.78125,-0.13281 -0.35156,-0.13281 -0.62109,-0.39453 -0.33594,-0.32422 -0.51953,-0.85937 -0.17969,-0.53516 -0.17969,-1.28907 0,-0.77343 0.16406,-1.37109 0.16797,-0.59766 0.53125,-1.0625 0.34375,-0.44141 0.88672,-0.6875 0.54297,-0.25 1.26563,-0.25 0.23047,0 0.38672,0.0195 0.15625,0.0195 0.3164,0.0703 v 0.7461 h -0.0391 q -0.10938,-0.0586 -0.33203,-0.10938 -0.21875,-0.0547 -0.44922,-0.0547 -0.83984,0 -1.33984,0.52735 -0.5,0.52344 -0.58204,1.41797 0.32813,-0.19922 0.64454,-0.30078 0.32031,-0.10547 0.73828,-0.10547 0.37109,0 0.65234,0.0703 0.28516,0.0664 0.58203,0.27344 0.34375,0.23828 0.51563,0.60156 0.17578,0.36328 0.17578,0.88281 z m -0.79297,0.0312 q 0,-0.36328 -0.10938,-0.60156 -0.10546,-0.23828 -0.35156,-0.41406 -0.17969,-0.125 -0.39844,-0.16407 -0.21875,-0.0391 -0.45703,-0.0391 -0.33203,0 -0.61718,0.0781 -0.28516,0.0781 -0.58594,0.24218 -0.008,0.0859 -0.0117,0.16797 -0.004,0.0781 -0.004,0.19922 0,0.61719 0.125,0.97656 0.12891,0.35547 0.35157,0.5625 0.17968,0.17188 0.38671,0.25391 0.21094,0.0781 0.45704,0.0781 0.5664,0 0.89062,-0.34375 0.32422,-0.34766 0.32422,-0.9961 z"
         style="font-style:normal;font-variant:normal;font-weight:normal;font-stretch:normal;font-family:sans-serif;-inkscape-font-specification:sans-serif"
         id="path1859" />
    </g>
    <g
       aria-label="K7"
       id="text1809"
       style="font-style:normal;font-variant:normal;font-weight:normal;font-stretch:normal;font-size:8px;line-height:1.25;font-family:sans-serif;-inkscape-font-specification:sans-serif;fill:#e6e6e6;fill-opacity:1">
      <path
         d="m 164.65625,261.81641 h -1.00391 l -2.30078,-2.58985 -0.57812,0.61719 v 1.97266 H 160 V 256 h 0.77344 v 3.03516 L 163.59766,256 h 0.9375 l -2.59766,2.73437 z"
         style="font-style:normal;font-variant:normal;font-weight:normal;font-stretch:normal;font-family:sans-serif;-inkscape-font-specification:sans-serif"
         id="path1862" />
      <path
         d="m 169.32812,256.87109 -2.63281,4.94532 h -0.83594 l 2.80079,-5.13282 h -3.3125 V 256 h 3.98046 z"
         style="font-style:normal;font-variant:normal;font-weight:normal;font-stretch:normal;font-family:sans-serif;-inkscape-font-specification:sans-serif"
         id="path1864" />
    </g>
    <g
       aria-label="K8"
       id="text1813"
       style="font-style:normal;font-variant:normal;font-weight:normal;font-stretch:normal;font-size:8px;line-height:1.25;font-family:sans-serif;-inkscape-font-specification:sans-serif;fill:#e6e6e6;fill-opacity:1">
      <path
         d="m 223.65625,261.94922 h -1.00391 l -2.30078,-2.58985 -0.57812,0.61719 v 1.97266 H 219 v -5.81641 h 0.77344 v 3.03516 l 2.82422,-3.03516 h 0.9375 l -2.59766,2.73438 z"
         style="font-style:normal;font-variant:normal;font-weight:normal;font-stretch:normal;font-family:sans-serif;-inkscape-font-specification:sans-serif"
         id="path1867" />
      <path
         d="m 228.35547,260.32812 q 0,0.75391 -0.58985,1.25391 -0.58593,0.5 -1.47656,0.5 -0.94531,0 -1.50781,-0.48828 -0.55859,-0.48828 -0.55859,-1.25 0,-0.48438 0.28125,-0.875 0.28125,-0.39453 0.79296,-0.625 v -0.0234 q -0.46875,-0.25 -0.69531,-0.54687 -0.22265,-0.29688 -0.22265,-0.74219 0,-0.65625 0.53906,-1.09375 0.53906,-0.4375 1.37109,-0.4375 0.8711,0 1.39063,0.41797 0.51953,0.41797 0.51953,1.0625 0,0.39453 -0.2461,0.77734 -0.24609,0.37891 -0.72265,0.59375 v 0.0234 q 0.54687,0.23437 0.83594,0.57812 0.28906,0.34375 0.28906,0.875 z m -0.92578,-2.83984 q 0,-0.41797 -0.32422,-0.66406 -0.32031,-0.25 -0.82031,-0.25 -0.49219,0 -0.8086,0.23437 -0.3125,0.23438 -0.3125,0.63282 0,0.28125 0.15625,0.48828 0.16016,0.20312 0.48047,0.36328 0.14453,0.0703 0.41406,0.18359 0.27344,0.11328 0.53125,0.1875 0.38672,-0.25781 0.53516,-0.53515 0.14844,-0.27735 0.14844,-0.64063 z m 0.12109,2.91406 q 0,-0.35937 -0.16016,-0.57422 -0.15625,-0.21875 -0.61718,-0.4375 -0.1836,-0.0859 -0.40235,-0.16015 -0.21875,-0.0742 -0.58203,-0.20703 -0.35156,0.1914 -0.5664,0.51953 -0.21094,0.32812 -0.21094,0.74219 0,0.52734 0.36328,0.87109 0.36328,0.34375 0.92187,0.34375 0.57032,0 0.91016,-0.29297 0.34375,-0.29297 0.34375,-0.80469 z"
         style="font-style:normal;font-variant:normal;font-weight:normal;font-stretch:normal;font-family:sans-serif;-inkscape-font-specification:sans-serif"
         id="path1869" />
    </g>
    <g
       aria-label="K5"
       id="text1817"
       style="font-style:normal;font-variant:normal;font-weight:normal;font-stretch:normal;font-size:8px;line-height:1.25;font-family:sans-serif;-inkscape-font-specification:sans-serif;fill:#e6e6e6;fill-opacity:1">
      <path
         d="m 45.65625,261.81641 h -1.003906 l -2.300782,-2.58985 -0.578125,0.61719 v 1.97266 H 41 V 256 h 0.773437 v 3.03516 L 44.597656,256 h 0.9375 l -2.597656,2.73437 z"
         style="font-style:normal;font-variant:normal;font-weight:normal;font-stretch:normal;font-family:sans-serif;-inkscape-font-specification:sans-serif"
         id="path1872" />
      <path
         d="m 50.265625,259.96875 q 0,0.40625 -0.148438,0.77734 -0.148437,0.3711 -0.40625,0.625 -0.28125,0.27344 -0.671875,0.42188 -0.386718,0.14453 -0.898437,0.14453 -0.476563,0 -0.917969,-0.10156 -0.441406,-0.0977 -0.746094,-0.23828 v -0.82422 h 0.05469 q 0.320312,0.20312 0.75,0.34765 0.429687,0.14063 0.84375,0.14063 0.277344,0 0.535156,-0.0781 0.261719,-0.0781 0.464844,-0.27343 0.171875,-0.16797 0.257812,-0.40235 0.08984,-0.23437 0.08984,-0.54297 0,-0.30078 -0.105469,-0.50781 -0.101562,-0.20703 -0.285156,-0.33203 -0.203125,-0.14844 -0.496094,-0.20703 -0.289062,-0.0625 -0.648437,-0.0625 -0.34375,0 -0.664063,0.0469 -0.316406,0.0469 -0.546875,0.0937 V 256 h 3.5 v 0.68359 h -2.746093 v 1.54688 q 0.167968,-0.0156 0.34375,-0.0234 0.175781,-0.008 0.304687,-0.008 0.472656,0 0.828125,0.082 0.355469,0.0781 0.652344,0.28125 0.3125,0.21484 0.484375,0.55469 0.171875,0.33984 0.171875,0.85156 z"
         style="font-style:normal;font-variant:normal;font-weight:normal;font-stretch:normal;font-family:sans-serif;-inkscape-font-specification:sans-serif"
         id="path1874" />
    </g>
    <g
       aria-label="K10"
       id="text1821"
       style="font-style:normal;font-variant:normal;font-weight:normal;font-stretch:normal;font-size:8px;line-height:1.25;font-family:sans-serif;-inkscape-font-specification:sans-serif;fill:#e6e6e6;fill-opacity:1">
      <path
         d="m 102.15625,357.93359 h -1.00391 l -2.300778,-2.58984 -0.578125,0.61719 v 1.97265 H 97.5 v -5.8164 h 0.773437 v 3.03515 l 2.824223,-3.03515 h 0.9375 l -2.59766,2.73437 z"
         style="font-style:normal;font-variant:normal;font-weight:normal;font-stretch:normal;font-family:sans-serif;-inkscape-font-specification:sans-serif"
         id="path1877" />
      <path
         d="m 106.48047,357.93359 h -3.14844 v -0.59375 h 1.21094 v -3.89843 h -1.21094 v -0.53125 q 0.2461,0 0.52735,-0.0391 0.28125,-0.043 0.42578,-0.12109 0.17968,-0.0977 0.28125,-0.24609 0.10547,-0.15235 0.12109,-0.40625 h 0.60547 v 5.24218 h 1.1875 z"
         style="font-style:normal;font-variant:normal;font-weight:normal;font-stretch:normal;font-family:sans-serif;-inkscape-font-specification:sans-serif"
         id="path1879" />
      <path
         d="m 111.89844,355.02344 q 0,1.5664 -0.49219,2.30078 -0.48828,0.73047 -1.51953,0.73047 -1.04688,0 -1.53125,-0.74219 -0.48047,-0.74219 -0.48047,-2.28125 0,-1.55078 0.48828,-2.28906 Q 108.85156,352 109.88672,352 q 1.04687,0 1.52734,0.75391 0.48438,0.75 0.48438,2.26953 z m -1.02735,1.77343 q 0.13672,-0.3164 0.1836,-0.74218 0.0508,-0.42969 0.0508,-1.03125 0,-0.59375 -0.0508,-1.03125 -0.0469,-0.4375 -0.1875,-0.74219 -0.13672,-0.30078 -0.375,-0.45313 -0.23438,-0.15234 -0.60547,-0.15234 -0.36719,0 -0.60938,0.15234 -0.23828,0.15235 -0.3789,0.46094 -0.13281,0.28906 -0.1836,0.75391 -0.0469,0.46484 -0.0469,1.01953 0,0.60937 0.043,1.01953 0.043,0.41016 0.18359,0.73438 0.12891,0.30468 0.36328,0.46484 0.23828,0.16016 0.62891,0.16016 0.36719,0 0.60937,-0.15235 0.24219,-0.15234 0.375,-0.46094 z"
         style="font-style:normal;font-variant:normal;font-weight:normal;font-stretch:normal;font-family:sans-serif;-inkscape-font-specification:sans-serif"
         id="path1881" />
    </g>
    <g
       aria-label="K11"
       id="text1825"
       style="font-style:normal;font-variant:normal;font-weight:normal;font-stretch:normal;font-size:8px;line-height:1.25;font-family:sans-serif;-inkscape-font-specification:sans-serif;fill:#e6e6e6;fill-opacity:1">
      <path
         d="m 162.2832,357.83594 h -1.0039 l -2.30078,-2.58985 -0.57813,0.61719 v 1.97266 h -0.77344 v -5.81641 h 0.77344 v 3.03516 l 2.82422,-3.03516 h 0.9375 l -2.59766,2.73438 z"
         style="font-style:normal;font-variant:normal;font-weight:normal;font-stretch:normal;font-family:sans-serif;-inkscape-font-specification:sans-serif"
         id="path1884" />
      <path
         d="m 166.60742,357.83594 h -3.14844 v -0.59375 h 1.21094 v -3.89844 h -1.21094 v -0.53125 q 0.2461,0 0.52735,-0.0391 0.28125,-0.043 0.42578,-0.1211 0.17969,-0.0976 0.28125,-0.24609 0.10547,-0.15234 0.12109,-0.40625 h 0.60547 v 5.24219 h 1.1875 z"
         style="font-style:normal;font-variant:normal;font-weight:normal;font-stretch:normal;font-family:sans-serif;-inkscape-font-specification:sans-serif"
         id="path1886" />
      <path
         d="m 171.70117,357.83594 h -3.14844 v -0.59375 h 1.21094 v -3.89844 h -1.21094 v -0.53125 q 0.2461,0 0.52735,-0.0391 0.28125,-0.043 0.42578,-0.1211 0.17969,-0.0976 0.28125,-0.24609 0.10547,-0.15234 0.12109,-0.40625 h 0.60547 v 5.24219 h 1.1875 z"
         style="font-style:normal;font-variant:normal;font-weight:normal;font-stretch:normal;font-family:sans-serif;-inkscape-font-specification:sans-serif"
         id="path1888" />
    </g>
    <g
       aria-label="K12"
       id="text1829"
       style="font-style:normal;font-variant:normal;font-weight:normal;font-stretch:normal;font-size:8px;line-height:1.25;font-family:sans-serif;-inkscape-font-specification:sans-serif;fill:#e6e6e6;fill-opacity:1">
      <path
         d="m 221.13086,357.9375 h -1.00391 l -2.30078,-2.58984 -0.57812,0.61718 v 1.97266 h -0.77344 v -5.81641 h 0.77344 v 3.03516 l 2.82422,-3.03516 h 0.9375 l -2.59766,2.73438 z"
         style="font-style:normal;font-variant:normal;font-weight:normal;font-stretch:normal;font-family:sans-serif;-inkscape-font-specification:sans-serif"
         id="path1891" />
      <path
         d="m 225.45508,357.9375 h -3.14844 v -0.59375 h 1.21094 v -3.89844 h -1.21094 v -0.53125 q 0.24609,0 0.52734,-0.0391 0.28125,-0.043 0.42579,-0.12109 0.17968,-0.0977 0.28125,-0.2461 0.10546,-0.15234 0.12109,-0.40625 h 0.60547 v 5.24219 h 1.1875 z"
         style="font-style:normal;font-variant:normal;font-weight:normal;font-stretch:normal;font-family:sans-serif;-inkscape-font-specification:sans-serif"
         id="path1893" />
      <path
         d="m 230.88086,357.9375 h -3.9375 v -0.81641 q 0.41016,-0.35156 0.82031,-0.70312 0.41406,-0.35156 0.76953,-0.69922 0.75,-0.72656 1.02735,-1.15234 0.27734,-0.42969 0.27734,-0.92579 0,-0.45312 -0.30078,-0.70703 -0.29688,-0.25781 -0.83203,-0.25781 -0.35547,0 -0.76953,0.125 -0.41407,0.125 -0.8086,0.38281 h -0.0391 v -0.82031 q 0.27734,-0.13672 0.73828,-0.25 Q 228.29102,352 228.72461,352 q 0.89453,0 1.40234,0.43359 0.50782,0.42969 0.50782,1.16797 0,0.33203 -0.0859,0.6211 -0.082,0.28515 -0.2461,0.54296 -0.15234,0.24219 -0.35937,0.47657 -0.20313,0.23437 -0.49609,0.51953 -0.41797,0.41015 -0.86329,0.79687 -0.44531,0.38282 -0.83203,0.71094 h 3.12891 z"
         style="font-style:normal;font-variant:normal;font-weight:normal;font-stretch:normal;font-family:sans-serif;-inkscape-font-specification:sans-serif"
         id="path1895" />
    </g>
    <g
       aria-label="K11"
       id="text1833"
       style="font-style:normal;font-variant:normal;font-weight:normal;font-stretch:normal;font-size:8px;line-height:1.25;font-family:sans-serif;-inkscape-font-specification:sans-serif;fill:#e6e6e6;fill-opacity:1">
      <path
         d="m 43.251953,357.83594 h -1.003906 l -2.300781,-2.58985 -0.578125,0.61719 v 1.97266 h -0.773438 v -5.81641 h 0.773438 v 3.03516 l 2.824218,-3.03516 h 0.9375 l -2.597656,2.73438 z"
         style="font-style:normal;font-variant:normal;font-weight:normal;font-stretch:normal;font-family:sans-serif;-inkscape-font-specification:sans-serif"
         id="path1898" />
      <path
         d="m 47.576172,357.83594 h -3.148438 v -0.59375 h 1.210938 v -3.89844 h -1.210938 v -0.53125 q 0.246094,0 0.527344,-0.0391 0.28125,-0.043 0.425781,-0.1211 0.179688,-0.0976 0.28125,-0.24609 0.105469,-0.15234 0.121094,-0.40625 h 0.605469 v 5.24219 h 1.1875 z"
         style="font-style:normal;font-variant:normal;font-weight:normal;font-stretch:normal;font-family:sans-serif;-inkscape-font-specification:sans-serif"
         id="path1900" />
      <path
         d="m 52.669922,357.83594 h -3.148438 v -0.59375 h 1.210938 v -3.89844 h -1.210938 v -0.53125 q 0.246094,0 0.527344,-0.0391 0.28125,-0.043 0.425781,-0.1211 0.179688,-0.0976 0.28125,-0.24609 0.105469,-0.15234 0.121094,-0.40625 h 0.605469 v 5.24219 h 1.1875 z"
         style="font-style:normal;font-variant:normal;font-weight:normal;font-stretch:normal;font-family:sans-serif;-inkscape-font-specification:sans-serif"
         id="path1902" />
    </g>
  </g>
</svg>
