<?xml version="1.0" encoding="UTF-8" standalone="no"?>
<svg
   xmlns:osb="http://www.openswatchbook.org/uri/2009/osb"
   xmlns:dc="http://purl.org/dc/elements/1.1/"
   xmlns:cc="http://creativecommons.org/ns#"
   xmlns:rdf="http://www.w3.org/1999/02/22-rdf-syntax-ns#"
   xmlns:svg="http://www.w3.org/2000/svg"
   xmlns="http://www.w3.org/2000/svg"
   xmlns:xlink="http://www.w3.org/1999/xlink"
   xmlns:sodipodi="http://sodipodi.sourceforge.net/DTD/sodipodi-0.dtd"
   xmlns:inkscape="http://www.inkscape.org/namespaces/inkscape"
   id="svg4226"
   version="1.1"
   height="380"
   width="270"
   sodipodi:docname="MpMapper.svg"
   inkscape:version="1.0 (4035a4f, 2020-05-01)">
  <sodipodi:namedview
     inkscape:document-units="px"
     units="px"
     pagecolor="#ffffff"
     bordercolor="#666666"
     inkscape:document-rotation="0"
     borderopacity="1"
     objecttolerance="10"
     gridtolerance="10"
     guidetolerance="10"
     inkscape:pageopacity="0"
     inkscape:pageshadow="2"
     inkscape:window-width="754"
     inkscape:window-height="955"
     id="namedview852"
     showgrid="false"
     inkscape:snap-page="true"
     inkscape:zoom="1.1266872"
     inkscape:cx="122.01353"
     inkscape:cy="222.62488"
     inkscape:window-x="0"
     inkscape:window-y="23"
     inkscape:window-maximized="0"
     inkscape:current-layer="svg4226" />
  <metadata
     id="metadata14">
    <rdf:RDF>
      <cc:Work
         rdf:about="">
        <dc:format>image/svg+xml</dc:format>
        <dc:type
           rdf:resource="http://purl.org/dc/dcmitype/StillImage" />
        <dc:title />
      </cc:Work>
    </rdf:RDF>
  </metadata>
  <defs
     id="defs12">
    <linearGradient
       id="linearGradient12367"
       osb:paint="gradient">
      <stop
         style="stop-color:#000000;stop-opacity:1;"
         offset="0"
         id="stop12363" />
      <stop
         style="stop-color:#000000;stop-opacity:0;"
         offset="1"
         id="stop12365" />
    </linearGradient>
    <linearGradient
       id="linearGradient4164"
       osb:paint="solid">
      <stop
         style="stop-color:#1d55ff;stop-opacity:1;"
         offset="0"
         id="stop4162" />
    </linearGradient>
    <linearGradient
       id="linearGradient2698"
       osb:paint="solid">
      <stop
         style="stop-color:#000000;stop-opacity:1;"
         offset="0"
         id="stop2696" />
    </linearGradient>
    <linearGradient
       id="linearGradient2677"
       osb:paint="solid">
      <stop
         style="stop-color:#000000;stop-opacity:1;"
         offset="0"
         id="stop2675" />
    </linearGradient>
    <linearGradient
       id="linearGradient2667"
       osb:paint="solid">
      <stop
         style="stop-color:#80261a;stop-opacity:1;"
         offset="0"
         id="stop2665" />
    </linearGradient>
    <linearGradient
       id="linearGradient2661"
       osb:paint="solid">
      <stop
         style="stop-color:#80261a;stop-opacity:1;"
         offset="0"
         id="stop2659" />
    </linearGradient>
    <linearGradient
       id="linearGradient2655"
       osb:paint="solid">
      <stop
         style="stop-color:#80261a;stop-opacity:1;"
         offset="0"
         id="stop2653" />
    </linearGradient>
    <linearGradient
       id="linearGradient2649"
       osb:paint="solid"
       gradientTransform="matrix(1.1572579,0,0,14.27017,0,-4706.064)">
      <stop
         style="stop-color:#80261a;stop-opacity:1;"
         offset="0"
         id="stop2647" />
    </linearGradient>
    <linearGradient
       id="linearGradient2641"
       osb:paint="solid"
       gradientTransform="matrix(0.94992449,0,0,1,10.4468,32.899769)">
      <stop
         style="stop-color:#cc4a00;stop-opacity:1;"
         offset="0"
         id="stop2639" />
    </linearGradient>
    <linearGradient
       id="linearGradient1781"
       osb:paint="solid">
      <stop
         style="stop-color:#cccccc;stop-opacity:1;"
         offset="0"
         id="stop1779" />
    </linearGradient>
    <linearGradient
       osb:paint="solid"
       id="linearGradient3000">
      <stop
         id="stop2998"
         offset="0"
         style="stop-color:#c6c6c6;stop-opacity:1;" />
    </linearGradient>
    <linearGradient
       osb:paint="solid"
       id="linearGradient1145">
      <stop
         id="stop1143"
         offset="0"
         style="stop-color:#d0d4d1;stop-opacity:1;" />
    </linearGradient>
    <linearGradient
       id="linearGradient3532"
       osb:paint="solid"
       gradientTransform="matrix(1,0,0,1.0083925,31.675324,-8.8256304)">
      <stop
         style="stop-color:#ff0000;stop-opacity:1;"
         offset="0"
         id="stop3530" />
    </linearGradient>
    <linearGradient
       id="linearGradient1580"
       osb:paint="solid">
      <stop
         style="stop-color:#80261a;stop-opacity:1;"
         offset="0"
         id="stop1578" />
    </linearGradient>
    <linearGradient
       id="linearGradient4116"
       osb:paint="solid">
      <stop
         style="stop-color:#b1b8b3;stop-opacity:1;"
         offset="0"
         id="stop4114" />
    </linearGradient>
    <linearGradient
       id="linearGradient3145"
       osb:paint="solid">
      <stop
         style="stop-color:#aeb4af;stop-opacity:1;"
         offset="0"
         id="stop3143" />
    </linearGradient>
    <linearGradient
       id="linearGradient3133"
       osb:paint="solid">
      <stop
         style="stop-color:#000000;stop-opacity:1;"
         offset="0"
         id="stop3131" />
    </linearGradient>
    <linearGradient
       id="linearGradient3114"
       osb:paint="solid">
      <stop
         style="stop-color:#292c31;stop-opacity:1;"
         offset="0"
         id="stop3112" />
    </linearGradient>
    <linearGradient
       id="linearGradient3054"
       osb:paint="solid">
      <stop
         style="stop-color:#b8bfba;stop-opacity:1;"
         offset="0"
         id="stop3052" />
    </linearGradient>
    <linearGradient
       id="linearGradient3048"
       osb:paint="solid">
      <stop
         style="stop-color:#0c0c0c;stop-opacity:1;"
         offset="0"
         id="stop3046" />
    </linearGradient>
    <linearGradient
       inkscape:collect="always"
       xlink:href="#linearGradient3145"
       id="linearGradient3193"
       gradientUnits="userSpaceOnUse"
       gradientTransform="matrix(1,0,0,1.1432544,0.23109943,-13.116007)"
       x1="274.1532"
       y1="95.40947"
       x2="274.2532"
       y2="95.40947" />
    <linearGradient
       osb:paint="solid"
       id="linearGradient858">
      <stop
         id="stop856"
         offset="0"
         style="stop-color:#0000c4;stop-opacity:1;" />
    </linearGradient>
    <linearGradient
       inkscape:collect="always"
       xlink:href="#linearGradient4164"
       id="linearGradient4252"
       x1="280.72424"
       y1="240.14365"
       x2="294.06335"
       y2="240.14365"
       gradientUnits="userSpaceOnUse" />
    <linearGradient
       inkscape:collect="always"
       xlink:href="#linearGradient4164"
       id="linearGradient4254"
       x1="301.43774"
       y1="240.14365"
       x2="314.02872"
       y2="240.14365"
       gradientUnits="userSpaceOnUse" />
    <linearGradient
       inkscape:collect="always"
       xlink:href="#linearGradient4164"
       id="linearGradient4256"
       x1="321.90991"
       y1="240.14365"
       x2="335.24902"
       y2="240.14365"
       gradientUnits="userSpaceOnUse" />
    <linearGradient
       inkscape:collect="always"
       xlink:href="#linearGradient4164"
       id="linearGradient4258"
       x1="342.50272"
       y1="240.14365"
       x2="355.8418"
       y2="240.14365"
       gradientUnits="userSpaceOnUse" />
    <linearGradient
       inkscape:collect="always"
       xlink:href="#linearGradient4164"
       id="linearGradient4274"
       x1="268.48123"
       y1="238.39453"
       x2="341.43631"
       y2="238.39453"
       gradientUnits="userSpaceOnUse" />
    <linearGradient
       inkscape:collect="always"
       xlink:href="#linearGradient4164"
       id="linearGradient4278"
       x1="280.72424"
       y1="240.14365"
       x2="294.06335"
       y2="240.14365"
       gradientUnits="userSpaceOnUse" />
    <linearGradient
       inkscape:collect="always"
       xlink:href="#linearGradient2649"
       id="linearGradient12371"
       gradientUnits="userSpaceOnUse"
       gradientTransform="matrix(0.94992449,0,0,1,10.4468,32.899769)"
       x1="208.62096"
       y1="-4.3072739"
       x2="258.12228"
       y2="-4.3072739" />
  </defs>
  <rect
     style="opacity:1;fill:#1a1c1f;fill-opacity:1;stroke:none;stroke-width:0;stroke-linecap:round;stroke-linejoin:bevel;stroke-miterlimit:10;stroke-dasharray:none;stroke-dashoffset:0.0173858;stroke-opacity:1;paint-order:markers stroke fill"
     id="rect3016-1"
     width="270"
     height="380"
     x="0"
     y="0"
     rx="0"
     ry="0" />
  <text
     xml:space="preserve"
     style="font-style:normal;font-weight:normal;font-size:40px;line-height:1.25;font-family:sans-serif;fill:#000000;fill-opacity:1;stroke:none"
     x="300.79858"
     y="78.01963"
     id="text2951"><tspan
       sodipodi:role="line"
       id="tspan2949"
       x="300.79858"
       y="78.01963" /></text>
  <g
     id="g1775"
     style="display:none">
    <g
       aria-label="K1"
       id="text2876-6"
       style="font-style:normal;font-weight:normal;font-size:40px;line-height:1.25;font-family:sans-serif;fill:#cccccc;fill-opacity:1;stroke:none"
       transform="matrix(0.87439144,0,0,0.87439144,94.361811,5.6658232)">
      <path
         d="m 270.17975,47.925339 q 0.22656,0 0.39453,-0.160157 0.16797,-0.160156 0.16797,-0.414062 v -2.203125 l 2.08594,2.414062 q 0.0976,0.121094 0.15625,0.183594 0.0586,0.0625 0.15234,0.121094 0.0937,0.05469 0.18359,0.05469 h 0.008 q 0.21484,0 0.38281,-0.152343 0.17187,-0.152344 0.17187,-0.363282 0,-0.207031 -0.15234,-0.414062 l -1.83203,-2.042969 1.64844,-1.785156 q 0.15234,-0.183594 0.15234,-0.378906 0,-0.203125 -0.16016,-0.34375 -0.16015,-0.144532 -0.36328,-0.144532 -0.21094,0 -0.45703,0.304688 l -1.97656,2.246094 v -1.980469 q 0,-0.257813 -0.16797,-0.417969 -0.16797,-0.160156 -0.39453,-0.160156 -0.22656,0 -0.39453,0.160156 -0.16407,0.160156 -0.16407,0.417969 v 4.484375 q 0,0.257812 0.16407,0.417969 0.16406,0.15625 0.39453,0.15625 z"
         style="font-size:8px;fill:#cccccc"
         id="path1383"
         inkscape:connector-curvature="0" />
      <path
         d="m 276.95319,47.925339 q 0.23828,0 0.39453,-0.171875 0.15625,-0.171875 0.15625,-0.457032 l -0.004,-4.359375 q 0,-0.308593 -0.14844,-0.476562 -0.14453,-0.167969 -0.375,-0.167969 -0.15625,0.0039 -0.3164,0.101563 l -1.38282,0.816406 q -0.20312,0.125 -0.20312,0.335937 0,0.160157 0.10937,0.28125 0.10938,0.121094 0.26563,0.121094 0.11328,0 0.19922,-0.05859 l 0.75781,-0.464843 0.004,3.847656 q 0,0.3125 0.15234,0.484375 0.15234,0.167969 0.39063,0.167969 z"
         style="font-size:8px;fill:#cccccc"
         id="path1385"
         inkscape:connector-curvature="0" />
    </g>
    <g
       aria-label="K2"
       id="text2978"
       style="font-style:normal;font-weight:normal;font-size:40px;line-height:1.25;font-family:sans-serif;fill:#cccccc;fill-opacity:1;stroke:none"
       transform="matrix(0.87439144,0,0,0.87439144,81.960884,5.6648418)">
      <path
         d="m 330.17975,47.925339 q 0.22656,0 0.39453,-0.160157 0.16797,-0.160156 0.16797,-0.414062 v -2.203125 l 2.08594,2.414062 q 0.0976,0.121094 0.15625,0.183594 0.0586,0.0625 0.15234,0.121094 0.0937,0.05469 0.18359,0.05469 h 0.008 q 0.21484,0 0.38281,-0.152343 0.17187,-0.152344 0.17187,-0.363282 0,-0.207031 -0.15234,-0.414062 l -1.83203,-2.042969 1.64844,-1.785156 q 0.15234,-0.183594 0.15234,-0.378906 0,-0.203125 -0.16016,-0.34375 -0.16015,-0.144532 -0.36328,-0.144532 -0.21094,0 -0.45703,0.304688 l -1.97656,2.246094 v -1.980469 q 0,-0.257813 -0.16797,-0.417969 -0.16797,-0.160156 -0.39453,-0.160156 -0.22656,0 -0.39453,0.160156 -0.16407,0.160156 -0.16407,0.417969 v 4.484375 q 0,0.257812 0.16407,0.417969 0.16406,0.15625 0.39453,0.15625 z"
         style="font-size:8px;fill:#cccccc"
         id="path1410"
         inkscape:connector-curvature="0" />
      <path
         d="m 338.50006,43.890182 q 0,-0.679687 -0.51172,-1.148437 -0.50781,-0.46875 -1.30469,-0.46875 -0.48046,0 -0.875,0.128906 -0.39453,0.125 -0.78515,0.355469 -0.20313,0.121094 -0.20313,0.324219 0,0.175781 0.14063,0.328125 0.14062,0.152343 0.30078,0.152343 0.0625,0 0.11328,-0.02734 0.0312,-0.01563 0.22656,-0.128907 0.19532,-0.113281 0.28125,-0.148437 0.0859,-0.03906 0.28125,-0.08594 0.19922,-0.04687 0.41797,-0.04687 0.3711,0 0.62891,0.230469 0.26172,0.230469 0.26172,0.59375 0,0.433594 -0.4961,0.917969 l -2.02343,2.011719 q -0.21485,0.214843 -0.21485,0.5 0,0.226562 0.14844,0.386718 0.15234,0.160157 0.41016,0.160157 h 2.78125 q 0.16015,0 0.25,-0.125 0.0898,-0.128907 0.0898,-0.300782 0,-0.171875 -0.0898,-0.292968 -0.0899,-0.125 -0.25,-0.125 h -2.16407 l 1.65235,-1.464844 q 0.93359,-0.816406 0.93359,-1.726563 z"
         style="font-size:8px;fill:#cccccc"
         id="path1412"
         inkscape:connector-curvature="0" />
    </g>
    <g
       aria-label="K3"
       id="text2984"
       style="font-style:normal;font-weight:normal;font-size:40px;line-height:1.25;font-family:sans-serif;fill:#cccccc;fill-opacity:1;stroke:none"
       transform="matrix(0.87439144,0,0,0.87439144,69.503039,5.6621427)">
      <path
         d="m 390.17975,47.925339 q 0.22656,0 0.39453,-0.160157 0.16797,-0.160156 0.16797,-0.414062 v -2.203125 l 2.08594,2.414062 q 0.0976,0.121094 0.15625,0.183594 0.0586,0.0625 0.15234,0.121094 0.0937,0.05469 0.18359,0.05469 h 0.008 q 0.21484,0 0.38281,-0.152343 0.17187,-0.152344 0.17187,-0.363282 0,-0.207031 -0.15234,-0.414062 l -1.83203,-2.042969 1.64844,-1.785156 q 0.15234,-0.183594 0.15234,-0.378906 0,-0.203125 -0.16016,-0.34375 -0.16015,-0.144532 -0.36328,-0.144532 -0.21094,0 -0.45703,0.304688 l -1.97656,2.246094 v -1.980469 q 0,-0.257813 -0.16797,-0.417969 -0.16797,-0.160156 -0.39453,-0.160156 -0.22656,0 -0.39453,0.160156 -0.16407,0.160156 -0.16407,0.417969 v 4.484375 q 0,0.257812 0.16407,0.417969 0.16406,0.15625 0.39453,0.15625 z"
         style="font-size:8px;fill:#cccccc"
         id="path1415"
         inkscape:connector-curvature="0" />
      <path
         d="m 396.57428,48.00737 q 0.42578,0 0.78125,-0.09766 0.35937,-0.09766 0.63672,-0.289063 0.28125,-0.191406 0.4375,-0.507812 0.16015,-0.316407 0.16015,-0.726563 0,-0.554687 -0.25781,-0.929687 -0.25781,-0.375 -0.76172,-0.511719 0.4336,-0.15625 0.66797,-0.472656 0.23828,-0.316407 0.23828,-0.789063 0,-0.703125 -0.55078,-1.117187 -0.54687,-0.417969 -1.39062,-0.417969 -0.42969,0 -0.83203,0.101562 -0.39844,0.09766 -0.64063,0.25 -0.16797,0.101563 -0.16797,0.308594 0,0.175781 0.11719,0.332031 0.12109,0.152344 0.27344,0.152344 0.0586,0 0.12109,-0.03125 0.45703,-0.222656 1.04688,-0.222656 0.24218,0 0.4414,0.07422 0.20313,0.07422 0.34375,0.25 0.14063,0.175781 0.14063,0.429687 0,0.402344 -0.3086,0.613281 -0.30468,0.207032 -0.78125,0.207032 h -0.30859 q -0.16016,0 -0.24609,0.117187 -0.0859,0.113281 -0.0859,0.269531 0,0.160157 0.082,0.273438 0.0859,0.109375 0.25,0.109375 h 0.32812 q 0.50782,0 0.83985,0.261719 0.33203,0.261718 0.33203,0.691406 0,0.40625 -0.26953,0.597656 -0.26953,0.1875 -0.74219,0.1875 -0.20703,0 -0.43359,-0.05078 -0.22266,-0.05469 -0.32032,-0.09375 -0.0976,-0.03906 -0.28125,-0.121094 -0.0508,-0.02344 -0.10156,-0.02344 -0.15234,0 -0.27734,0.160156 -0.125,0.15625 -0.125,0.339844 0,0.242187 0.22265,0.351562 0.64844,0.324219 1.42188,0.324219 z"
         style="font-size:8px;fill:#cccccc"
         id="path1417"
         inkscape:connector-curvature="0" />
    </g>
    <g
       aria-label="K4"
       id="text2990"
       style="font-style:normal;font-weight:normal;font-size:40px;line-height:1.25;font-family:sans-serif;fill:#cccccc;fill-opacity:1;stroke:none"
       transform="matrix(0.87439144,0,0,0.87439144,57.064578,5.6670496)">
      <path
         d="m 450.17975,47.925339 q 0.22656,0 0.39453,-0.160157 0.16797,-0.160156 0.16797,-0.414062 v -2.203125 l 2.08594,2.414062 q 0.0976,0.121094 0.15625,0.183594 0.0586,0.0625 0.15234,0.121094 0.0937,0.05469 0.18359,0.05469 h 0.008 q 0.21484,0 0.38281,-0.152343 0.17187,-0.152344 0.17187,-0.363282 0,-0.207031 -0.15234,-0.414062 l -1.83203,-2.042969 1.64844,-1.785156 q 0.15234,-0.183594 0.15234,-0.378906 0,-0.203125 -0.16016,-0.34375 -0.16015,-0.144532 -0.36328,-0.144532 -0.21094,0 -0.45703,0.304688 l -1.97656,2.246094 v -1.980469 q 0,-0.257813 -0.16797,-0.417969 -0.16797,-0.160156 -0.39453,-0.160156 -0.22656,0 -0.39453,0.160156 -0.16407,0.160156 -0.16407,0.417969 v 4.484375 q 0,0.257812 0.16407,0.417969 0.16406,0.15625 0.39453,0.15625 z"
         style="font-size:8px;fill:#cccccc"
         id="path1420"
         inkscape:connector-curvature="0" />
      <path
         d="m 457.61334,47.94487 q 0.22266,0 0.3711,-0.144531 0.15234,-0.148438 0.15234,-0.398438 v -0.636719 h 0.45312 q 0.19532,0 0.29688,-0.109375 0.10156,-0.113281 0.10156,-0.285156 0,-0.179687 -0.10547,-0.289062 -0.10547,-0.109375 -0.29297,-0.109375 h -0.44921 V 43.10112 q 0,-0.425781 -0.21094,-0.613281 -0.21094,-0.191407 -0.56641,-0.191407 -0.57031,0 -0.89062,0.53125 l -1.91016,3.171875 q -0.0664,0.125 -0.0664,0.257813 0,0.207031 0.13672,0.359375 0.13672,0.148437 0.36328,0.148437 h 2.09375 v 0.640625 q 0,0.253907 0.15235,0.398438 0.15234,0.140625 0.37109,0.140625 z m -2.0664,-1.972656 1.54296,-2.65625 v 2.65625 z"
         style="font-size:8px;fill:#cccccc"
         id="path1422"
         inkscape:connector-curvature="0" />
    </g>
  </g>
  <text
     id="text1107"
     y="85.432465"
     x="299.27896"
     style="font-style:normal;font-weight:normal;font-size:40px;line-height:1.25;font-family:sans-serif;fill:#000000;fill-opacity:1;stroke:none"
     xml:space="preserve"><tspan
       y="85.432465"
       x="299.27896"
       id="tspan1105"
       sodipodi:role="line" /></text>
  <rect
     ry="3.5172427"
     rx="0"
     y="10.000001"
     x="80.609367"
     height="59.282722"
     width="101.95598"
     id="rect3052"
     style="opacity:0.994;fill:#151619;fill-opacity:0.996078;stroke:#b0b7b2;stroke-width:0;stroke-linecap:round;stroke-linejoin:bevel;stroke-miterlimit:10;stroke-dasharray:none;stroke-dashoffset:0.0173858;stroke-opacity:1;paint-order:markers stroke fill" />
  <rect
     style="opacity:0.994;fill:#475998;fill-opacity:0.996078;stroke:#b0b7b2;stroke-width:0;stroke-linecap:round;stroke-linejoin:bevel;stroke-miterlimit:10;stroke-dasharray:none;stroke-dashoffset:0.0173858;stroke-opacity:1;paint-order:markers stroke fill"
     id="rect3054"
     width="92.11264"
     height="50.533085"
     x="85.531044"
     y="14.374818"
     rx="0"
     ry="1.3078228" />
  <g
     style="display:none"
     id="g217">
    <rect
       ry="0.065954722"
       y="80.227219"
       x="10.580633"
       height="289.7728"
       width="248.83873"
       id="rect854"
       style="opacity:0.993569;fill:#151619;fill-opacity:1;stroke:none;stroke-width:0;stroke-linecap:round;stroke-linejoin:bevel;stroke-miterlimit:10;paint-order:markers stroke fill" />
    <g
       id="g174">
      <g
         style="font-style:normal;font-weight:normal;font-size:40px;line-height:1.25;font-family:sans-serif;fill:#cccccc;fill-opacity:1;stroke:none"
         id="text2876-6-2"
         aria-label="K1"
         transform="translate(-228.72571,81.39289)">
        <path
           id="path1383-3"
           style="font-size:8px;fill:#cccccc"
           d="m 270.17975,47.925339 q 0.22656,0 0.39453,-0.160157 0.16797,-0.160156 0.16797,-0.414062 v -2.203125 l 2.08594,2.414062 q 0.0976,0.121094 0.15625,0.183594 0.0586,0.0625 0.15234,0.121094 0.0937,0.05469 0.18359,0.05469 h 0.008 q 0.21484,0 0.38281,-0.152343 0.17187,-0.152344 0.17187,-0.363282 0,-0.207031 -0.15234,-0.414062 l -1.83203,-2.042969 1.64844,-1.785156 q 0.15234,-0.183594 0.15234,-0.378906 0,-0.203125 -0.16016,-0.34375 -0.16015,-0.144532 -0.36328,-0.144532 -0.21094,0 -0.45703,0.304688 l -1.97656,2.246094 v -1.980469 q 0,-0.257813 -0.16797,-0.417969 -0.16797,-0.160156 -0.39453,-0.160156 -0.22656,0 -0.39453,0.160156 -0.16407,0.160156 -0.16407,0.417969 v 4.484375 q 0,0.257812 0.16407,0.417969 0.16406,0.15625 0.39453,0.15625 z"
           inkscape:connector-curvature="0" />
        <path
           id="path1385-7"
           style="font-size:8px;fill:#cccccc"
           d="m 276.95319,47.925339 q 0.23828,0 0.39453,-0.171875 0.15625,-0.171875 0.15625,-0.457032 l -0.004,-4.359375 q 0,-0.308593 -0.14844,-0.476562 -0.14453,-0.167969 -0.375,-0.167969 -0.15625,0.0039 -0.3164,0.101563 l -1.38282,0.816406 q -0.20312,0.125 -0.20312,0.335937 0,0.160157 0.10937,0.28125 0.10938,0.121094 0.26563,0.121094 0.11328,0 0.19922,-0.05859 l 0.75781,-0.464843 0.004,3.847656 q 0,0.3125 0.15234,0.484375 0.15234,0.167969 0.39063,0.167969 z"
           inkscape:connector-curvature="0" />
      </g>
      <g
         style="font-style:normal;font-weight:normal;font-size:40px;line-height:1.25;font-family:sans-serif;fill:#cccccc;fill-opacity:1;stroke:none"
         id="text2978-2"
         aria-label="K2"
         transform="translate(-229.8696,81.4007)">
        <path
           id="path1410-4"
           style="font-size:8px;fill:#cccccc"
           d="m 330.17975,47.925339 q 0.22656,0 0.39453,-0.160157 0.16797,-0.160156 0.16797,-0.414062 v -2.203125 l 2.08594,2.414062 q 0.0976,0.121094 0.15625,0.183594 0.0586,0.0625 0.15234,0.121094 0.0937,0.05469 0.18359,0.05469 h 0.008 q 0.21484,0 0.38281,-0.152343 0.17187,-0.152344 0.17187,-0.363282 0,-0.207031 -0.15234,-0.414062 l -1.83203,-2.042969 1.64844,-1.785156 q 0.15234,-0.183594 0.15234,-0.378906 0,-0.203125 -0.16016,-0.34375 -0.16015,-0.144532 -0.36328,-0.144532 -0.21094,0 -0.45703,0.304688 l -1.97656,2.246094 v -1.980469 q 0,-0.257813 -0.16797,-0.417969 -0.16797,-0.160156 -0.39453,-0.160156 -0.22656,0 -0.39453,0.160156 -0.16407,0.160156 -0.16407,0.417969 v 4.484375 q 0,0.257812 0.16407,0.417969 0.16406,0.15625 0.39453,0.15625 z"
           inkscape:connector-curvature="0" />
        <path
           id="path1412-1"
           style="font-size:8px;fill:#cccccc"
           d="m 338.50006,43.890182 q 0,-0.679687 -0.51172,-1.148437 -0.50781,-0.46875 -1.30469,-0.46875 -0.48046,0 -0.875,0.128906 -0.39453,0.125 -0.78515,0.355469 -0.20313,0.121094 -0.20313,0.324219 0,0.175781 0.14063,0.328125 0.14062,0.152343 0.30078,0.152343 0.0625,0 0.11328,-0.02734 0.0312,-0.01563 0.22656,-0.128907 0.19532,-0.113281 0.28125,-0.148437 0.0859,-0.03906 0.28125,-0.08594 0.19922,-0.04687 0.41797,-0.04687 0.3711,0 0.62891,0.230469 0.26172,0.230469 0.26172,0.59375 0,0.433594 -0.4961,0.917969 l -2.02343,2.011719 q -0.21485,0.214843 -0.21485,0.5 0,0.226562 0.14844,0.386718 0.15234,0.160157 0.41016,0.160157 h 2.78125 q 0.16015,0 0.25,-0.125 0.0898,-0.128907 0.0898,-0.300782 0,-0.171875 -0.0898,-0.292968 -0.0899,-0.125 -0.25,-0.125 h -2.16407 l 1.65235,-1.464844 q 0.93359,-0.816406 0.93359,-1.726563 z"
           inkscape:connector-curvature="0" />
      </g>
      <g
         style="font-style:normal;font-weight:normal;font-size:40px;line-height:1.25;font-family:sans-serif;fill:#cccccc;fill-opacity:1;stroke:none"
         id="text2984-8"
         aria-label="K3"
         transform="translate(-230.56037,81.42219)">
        <path
           id="path1415-2"
           style="font-size:8px;fill:#cccccc"
           d="m 390.17975,47.925339 q 0.22656,0 0.39453,-0.160157 0.16797,-0.160156 0.16797,-0.414062 v -2.203125 l 2.08594,2.414062 q 0.0976,0.121094 0.15625,0.183594 0.0586,0.0625 0.15234,0.121094 0.0937,0.05469 0.18359,0.05469 h 0.008 q 0.21484,0 0.38281,-0.152343 0.17187,-0.152344 0.17187,-0.363282 0,-0.207031 -0.15234,-0.414062 l -1.83203,-2.042969 1.64844,-1.785156 q 0.15234,-0.183594 0.15234,-0.378906 0,-0.203125 -0.16016,-0.34375 -0.16015,-0.144532 -0.36328,-0.144532 -0.21094,0 -0.45703,0.304688 l -1.97656,2.246094 v -1.980469 q 0,-0.257813 -0.16797,-0.417969 -0.16797,-0.160156 -0.39453,-0.160156 -0.22656,0 -0.39453,0.160156 -0.16407,0.160156 -0.16407,0.417969 v 4.484375 q 0,0.257812 0.16407,0.417969 0.16406,0.15625 0.39453,0.15625 z"
           inkscape:connector-curvature="0" />
        <path
           id="path1417-6"
           style="font-size:8px;fill:#cccccc"
           d="m 396.57428,48.00737 q 0.42578,0 0.78125,-0.09766 0.35937,-0.09766 0.63672,-0.289063 0.28125,-0.191406 0.4375,-0.507812 0.16015,-0.316407 0.16015,-0.726563 0,-0.554687 -0.25781,-0.929687 -0.25781,-0.375 -0.76172,-0.511719 0.4336,-0.15625 0.66797,-0.472656 0.23828,-0.316407 0.23828,-0.789063 0,-0.703125 -0.55078,-1.117187 -0.54687,-0.417969 -1.39062,-0.417969 -0.42969,0 -0.83203,0.101562 -0.39844,0.09766 -0.64063,0.25 -0.16797,0.101563 -0.16797,0.308594 0,0.175781 0.11719,0.332031 0.12109,0.152344 0.27344,0.152344 0.0586,0 0.12109,-0.03125 0.45703,-0.222656 1.04688,-0.222656 0.24218,0 0.4414,0.07422 0.20313,0.07422 0.34375,0.25 0.14063,0.175781 0.14063,0.429687 0,0.402344 -0.3086,0.613281 -0.30468,0.207032 -0.78125,0.207032 h -0.30859 q -0.16016,0 -0.24609,0.117187 -0.0859,0.113281 -0.0859,0.269531 0,0.160157 0.082,0.273438 0.0859,0.109375 0.25,0.109375 h 0.32812 q 0.50782,0 0.83985,0.261719 0.33203,0.261718 0.33203,0.691406 0,0.40625 -0.26953,0.597656 -0.26953,0.1875 -0.74219,0.1875 -0.20703,0 -0.43359,-0.05078 -0.22266,-0.05469 -0.32032,-0.09375 -0.0976,-0.03906 -0.28125,-0.121094 -0.0508,-0.02344 -0.10156,-0.02344 -0.15234,0 -0.27734,0.160156 -0.125,0.15625 -0.125,0.339844 0,0.242187 0.22265,0.351562 0.64844,0.324219 1.42188,0.324219 z"
           inkscape:connector-curvature="0" />
      </g>
      <g
         style="font-style:normal;font-weight:normal;font-size:40px;line-height:1.25;font-family:sans-serif;fill:#cccccc;fill-opacity:1;stroke:none"
         id="text2990-0"
         aria-label="K4"
         transform="translate(-231.40544,81.38312)">
        <path
           id="path1420-3"
           style="font-size:8px;fill:#cccccc"
           d="m 450.17975,47.925339 q 0.22656,0 0.39453,-0.160157 0.16797,-0.160156 0.16797,-0.414062 v -2.203125 l 2.08594,2.414062 q 0.0976,0.121094 0.15625,0.183594 0.0586,0.0625 0.15234,0.121094 0.0937,0.05469 0.18359,0.05469 h 0.008 q 0.21484,0 0.38281,-0.152343 0.17187,-0.152344 0.17187,-0.363282 0,-0.207031 -0.15234,-0.414062 l -1.83203,-2.042969 1.64844,-1.785156 q 0.15234,-0.183594 0.15234,-0.378906 0,-0.203125 -0.16016,-0.34375 -0.16015,-0.144532 -0.36328,-0.144532 -0.21094,0 -0.45703,0.304688 l -1.97656,2.246094 v -1.980469 q 0,-0.257813 -0.16797,-0.417969 -0.16797,-0.160156 -0.39453,-0.160156 -0.22656,0 -0.39453,0.160156 -0.16407,0.160156 -0.16407,0.417969 v 4.484375 q 0,0.257812 0.16407,0.417969 0.16406,0.15625 0.39453,0.15625 z"
           inkscape:connector-curvature="0" />
        <path
           id="path1422-9"
           style="font-size:8px;fill:#cccccc"
           d="m 457.61334,47.94487 q 0.22266,0 0.3711,-0.144531 0.15234,-0.148438 0.15234,-0.398438 v -0.636719 h 0.45312 q 0.19532,0 0.29688,-0.109375 0.10156,-0.113281 0.10156,-0.285156 0,-0.179687 -0.10547,-0.289062 -0.10547,-0.109375 -0.29297,-0.109375 h -0.44921 V 43.10112 q 0,-0.425781 -0.21094,-0.613281 -0.21094,-0.191407 -0.56641,-0.191407 -0.57031,0 -0.89062,0.53125 l -1.91016,3.171875 q -0.0664,0.125 -0.0664,0.257813 0,0.207031 0.13672,0.359375 0.13672,0.148437 0.36328,0.148437 h 2.09375 v 0.640625 q 0,0.253907 0.15235,0.398438 0.15234,0.140625 0.37109,0.140625 z m -2.0664,-1.972656 1.54296,-2.65625 v 2.65625 z"
           inkscape:connector-curvature="0" />
      </g>
      <g
         style="font-style:normal;font-weight:normal;font-size:40px;line-height:1.25;font-family:sans-serif;fill:#cccccc;fill-opacity:1;stroke:none"
         id="text2996"
         aria-label="K5"
         transform="translate(-229.32727,137.11665)">
        <path
           id="path1388"
           style="font-size:8px;fill:#cccccc"
           d="m 270.17975,87.925339 q 0.22656,0 0.39453,-0.160157 0.16797,-0.160156 0.16797,-0.414062 v -2.203125 l 2.08594,2.414062 q 0.0976,0.121094 0.15625,0.183594 0.0586,0.0625 0.15234,0.121094 0.0937,0.05469 0.18359,0.05469 h 0.008 q 0.21484,0 0.38281,-0.152343 0.17187,-0.152344 0.17187,-0.363282 0,-0.207031 -0.15234,-0.414062 l -1.83203,-2.042969 1.64844,-1.785156 q 0.15234,-0.183594 0.15234,-0.378906 0,-0.203125 -0.16016,-0.34375 -0.16015,-0.144532 -0.36328,-0.144532 -0.21094,0 -0.45703,0.304688 l -1.97656,2.246094 v -1.980469 q 0,-0.257813 -0.16797,-0.417969 -0.16797,-0.160156 -0.39453,-0.160156 -0.22656,0 -0.39453,0.160156 -0.16407,0.160156 -0.16407,0.417969 v 4.484375 q 0,0.257812 0.16407,0.417969 0.16406,0.15625 0.39453,0.15625 z"
           inkscape:connector-curvature="0" />
        <path
           id="path1390"
           style="font-size:8px;fill:#cccccc"
           d="m 276.68756,88.015182 q 0.5625,0 1.01953,-0.222656 0.45703,-0.222656 0.72656,-0.652344 0.27344,-0.429687 0.27344,-0.988281 0,-0.820312 -0.48828,-1.308594 -0.48437,-0.488281 -1.25391,-0.488281 -0.21093,0 -0.40625,0.03125 -0.1914,0.03125 -0.3164,0.07422 -0.1211,0.04297 -0.21875,0.08984 -0.0937,0.04297 -0.13672,0.07422 l -0.0391,0.03125 0.008,-1.546875 h 2.15234 q 0.1875,0 0.28907,-0.113281 0.10156,-0.117187 0.10156,-0.292969 0,-0.175781 -0.10156,-0.292968 -0.10157,-0.121094 -0.27344,-0.121094 h -2.47266 q -0.30469,0 -0.44531,0.117187 -0.13672,0.117188 -0.13672,0.402344 v 2.320313 q 0,0.203125 0.20703,0.332031 0.21094,0.128906 0.42578,0.128906 0.11328,0 0.16797,-0.04297 0.48047,-0.359375 0.94922,-0.359375 0.41406,0 0.67188,0.253907 0.26171,0.253906 0.26171,0.707031 0,0.488281 -0.25781,0.746094 -0.25781,0.257812 -0.74609,0.257812 -0.6211,0 -1.17188,-0.40625 -0.082,-0.06641 -0.18359,-0.06641 -0.15625,0 -0.28516,0.15625 -0.125,0.15625 -0.125,0.332031 0,0.15625 0.10547,0.25 0.72656,0.597656 1.69922,0.597656 z"
           inkscape:connector-curvature="0" />
      </g>
      <g
         style="font-style:normal;font-weight:normal;font-size:40px;line-height:1.25;font-family:sans-serif;fill:#cccccc;fill-opacity:1;stroke:none"
         id="text3002"
         aria-label="K6"
         transform="translate(-230.0278,137.19673)">
        <path
           id="path1405"
           style="font-size:8px;fill:#cccccc"
           d="m 330.17975,87.925339 q 0.22656,0 0.39453,-0.160157 0.16797,-0.160156 0.16797,-0.414062 v -2.203125 l 2.08594,2.414062 q 0.0976,0.121094 0.15625,0.183594 0.0586,0.0625 0.15234,0.121094 0.0937,0.05469 0.18359,0.05469 h 0.008 q 0.21484,0 0.38281,-0.152343 0.17187,-0.152344 0.17187,-0.363282 0,-0.207031 -0.15234,-0.414062 l -1.83203,-2.042969 1.64844,-1.785156 q 0.15234,-0.183594 0.15234,-0.378906 0,-0.203125 -0.16016,-0.34375 -0.16015,-0.144532 -0.36328,-0.144532 -0.21094,0 -0.45703,0.304688 l -1.97656,2.246094 v -1.980469 q 0,-0.257813 -0.16797,-0.417969 -0.16797,-0.160156 -0.39453,-0.160156 -0.22656,0 -0.39453,0.160156 -0.16407,0.160156 -0.16407,0.417969 v 4.484375 q 0,0.257812 0.16407,0.417969 0.16406,0.15625 0.39453,0.15625 z"
           inkscape:connector-curvature="0" />
        <path
           id="path1407"
           style="font-size:8px;fill:#cccccc"
           d="m 336.78131,88.011276 q 0.92969,0 1.48047,-0.523437 0.55469,-0.527344 0.55469,-1.367188 0,-0.796875 -0.53125,-1.285156 -0.52735,-0.492188 -1.32422,-0.492188 -0.46485,0 -0.8086,0.164063 -0.34375,0.160156 -0.45703,0.390625 0,-0.347656 0.0312,-0.613281 0.0312,-0.265625 0.11719,-0.515625 0.0859,-0.25 0.23047,-0.40625 0.14453,-0.160157 0.38281,-0.253907 0.23828,-0.09766 0.5586,-0.09766 0.41406,0 0.97265,0.207031 0.0586,0.01953 0.0977,0.01953 0.15234,0 0.26172,-0.15625 0.10937,-0.160157 0.10937,-0.34375 0,-0.246094 -0.1914,-0.328125 -0.57813,-0.277344 -1.23438,-0.277344 -0.57031,0 -1.00391,0.171875 -0.43359,0.171875 -0.70703,0.464844 -0.27343,0.289062 -0.44531,0.714843 -0.17187,0.425782 -0.23828,0.886719 -0.0664,0.457031 -0.0664,1.015625 0,0.449219 0.0742,0.835938 0.0742,0.382812 0.23828,0.71875 0.16797,0.332031 0.41797,0.566406 0.25391,0.234375 0.62891,0.371094 0.3789,0.132812 0.85156,0.132812 z m 0.0195,-2.921875 q 0.48047,0 0.71875,0.285156 0.24219,0.285157 0.24219,0.777344 0,0.503906 -0.26563,0.761719 -0.26562,0.257812 -0.75781,0.257812 -0.44922,0 -0.71875,-0.265625 -0.26562,-0.269531 -0.26562,-0.730468 0,-0.515625 0.26953,-0.800782 0.26953,-0.285156 0.77734,-0.285156 z"
           inkscape:connector-curvature="0" />
      </g>
      <g
         style="font-style:normal;font-weight:normal;font-size:40px;line-height:1.25;font-family:sans-serif;fill:#cccccc;fill-opacity:1;stroke:none"
         id="text3008"
         aria-label="K7"
         transform="translate(-230.59357,137.16156)">
        <path
           id="path1437"
           style="font-size:8px;fill:#cccccc"
           d="m 390.17975,87.925339 q 0.22656,0 0.39453,-0.160157 0.16797,-0.160156 0.16797,-0.414062 v -2.203125 l 2.08594,2.414062 q 0.0976,0.121094 0.15625,0.183594 0.0586,0.0625 0.15234,0.121094 0.0937,0.05469 0.18359,0.05469 h 0.008 q 0.21484,0 0.38281,-0.152343 0.17187,-0.152344 0.17187,-0.363282 0,-0.207031 -0.15234,-0.414062 l -1.83203,-2.042969 1.64844,-1.785156 q 0.15234,-0.183594 0.15234,-0.378906 0,-0.203125 -0.16016,-0.34375 -0.16015,-0.144532 -0.36328,-0.144532 -0.21094,0 -0.45703,0.304688 l -1.97656,2.246094 v -1.980469 q 0,-0.257813 -0.16797,-0.417969 -0.16797,-0.160156 -0.39453,-0.160156 -0.22656,0 -0.39453,0.160156 -0.16407,0.160156 -0.16407,0.417969 v 4.484375 q 0,0.257812 0.16407,0.417969 0.16406,0.15625 0.39453,0.15625 z"
           inkscape:connector-curvature="0" />
        <path
           id="path1439"
           style="font-size:8px;fill:#cccccc"
           d="m 396.16803,87.925339 q 0.14844,0 0.27734,-0.07813 0.12891,-0.08203 0.19922,-0.242188 l 1.86719,-4.207031 q 0.14453,-0.363281 0.14453,-0.613281 0,-0.488282 -0.62109,-0.488282 h -2.9375 q -0.21485,0 -0.32813,0.128907 -0.11328,0.128906 -0.11328,0.316406 0,0.195312 0.11328,0.320312 0.11719,0.125 0.32813,0.125 h 2.33984 l -1.74219,3.871094 q -0.0898,0.230469 -0.0898,0.34375 0,0.226563 0.16797,0.375 0.17187,0.148438 0.39453,0.148438 z"
           inkscape:connector-curvature="0" />
      </g>
      <g
         style="font-style:normal;font-weight:normal;font-size:40px;line-height:1.25;font-family:sans-serif;fill:#cccccc;fill-opacity:1;stroke:none"
         id="text3014"
         aria-label="K8"
         transform="translate(-231.2902,137.18305)">
        <path
           id="path1425"
           style="font-size:8px;fill:#cccccc"
           d="m 450.17975,87.925339 q 0.22656,0 0.39453,-0.160157 0.16797,-0.160156 0.16797,-0.414062 v -2.203125 l 2.08594,2.414062 q 0.0976,0.121094 0.15625,0.183594 0.0586,0.0625 0.15234,0.121094 0.0937,0.05469 0.18359,0.05469 h 0.008 q 0.21484,0 0.38281,-0.152343 0.17187,-0.152344 0.17187,-0.363282 0,-0.207031 -0.15234,-0.414062 l -1.83203,-2.042969 1.64844,-1.785156 q 0.15234,-0.183594 0.15234,-0.378906 0,-0.203125 -0.16016,-0.34375 -0.16015,-0.144532 -0.36328,-0.144532 -0.21094,0 -0.45703,0.304688 l -1.97656,2.246094 v -1.980469 q 0,-0.257813 -0.16797,-0.417969 -0.16797,-0.160156 -0.39453,-0.160156 -0.22656,0 -0.39453,0.160156 -0.16407,0.160156 -0.16407,0.417969 v 4.484375 q 0,0.257812 0.16407,0.417969 0.16406,0.15625 0.39453,0.15625 z"
           inkscape:connector-curvature="0" />
        <path
           id="path1427"
           style="font-size:8px;fill:#cccccc"
           d="m 456.66803,88.015182 q 0.95703,0 1.52344,-0.441406 0.5664,-0.445312 0.5664,-1.1875 0,-0.542969 -0.27343,-0.898437 -0.26954,-0.359375 -0.80079,-0.496094 0.44922,-0.101563 0.70704,-0.4375 0.26171,-0.335938 0.26171,-0.820313 0,-0.738281 -0.54687,-1.15625 -0.54297,-0.421875 -1.4375,-0.421875 -0.89453,0 -1.43359,0.421875 -0.53516,0.421875 -0.53516,1.15625 0,0.496094 0.25391,0.824219 0.25781,0.328125 0.71093,0.433594 -0.51562,0.113281 -0.79687,0.492187 -0.27735,0.375 -0.27735,0.902344 0,0.742188 0.5586,1.1875 0.5625,0.441406 1.51953,0.441406 z m 0.008,-0.820312 q -0.98437,0 -0.98437,-0.851563 0,-0.457031 0.27343,-0.6875 0.27344,-0.230468 0.71094,-0.230468 0.4336,0 0.70313,0.234375 0.27343,0.230468 0.27343,0.683593 0,0.851563 -0.97656,0.851563 z m 0,-2.648438 q -0.4414,0 -0.68359,-0.207031 -0.24219,-0.207031 -0.24219,-0.621094 0,-0.28125 0.12891,-0.460937 0.13281,-0.179688 0.32812,-0.246094 0.19922,-0.06641 0.46875,-0.06641 0.26563,0 0.46094,0.06641 0.19922,0.06641 0.32812,0.246094 0.13282,0.179687 0.13282,0.460937 0,0.414063 -0.24219,0.621094 -0.23828,0.207031 -0.67969,0.207031 z"
           inkscape:connector-curvature="0" />
      </g>
      <g
         style="font-style:normal;font-weight:normal;font-size:40px;line-height:1.25;font-family:sans-serif;fill:#cccccc;fill-opacity:1;stroke:none"
         id="text3020"
         aria-label="K9"
         transform="translate(-229.36635,192.95365)">
        <path
           id="path1393"
           style="font-size:8px;fill:#cccccc"
           d="m 270.17975,127.92534 q 0.22656,0 0.39453,-0.16016 0.16797,-0.16015 0.16797,-0.41406 v -2.20313 l 2.08594,2.41407 q 0.0976,0.12109 0.15625,0.18359 0.0586,0.0625 0.15234,0.12109 0.0937,0.0547 0.18359,0.0547 h 0.008 q 0.21484,0 0.38281,-0.15234 0.17187,-0.15235 0.17187,-0.36328 0,-0.20703 -0.15234,-0.41407 l -1.83203,-2.04296 1.64844,-1.78516 q 0.15234,-0.18359 0.15234,-0.37891 0,-0.20312 -0.16016,-0.34375 -0.16015,-0.14453 -0.36328,-0.14453 -0.21094,0 -0.45703,0.30469 l -1.97656,2.24609 v -1.98047 q 0,-0.25781 -0.16797,-0.41796 -0.16797,-0.16016 -0.39453,-0.16016 -0.22656,0 -0.39453,0.16016 -0.16407,0.16015 -0.16407,0.41796 v 4.48438 q 0,0.25781 0.16407,0.41797 0.16406,0.15625 0.39453,0.15625 z"
           inkscape:connector-curvature="0" />
        <path
           id="path1395"
           style="font-size:8px;fill:#cccccc"
           d="m 276.32428,128.02299 q 0.41016,0 0.75,-0.0898 0.33984,-0.0898 0.58984,-0.24609 0.25391,-0.16016 0.44532,-0.39063 0.19531,-0.23437 0.32031,-0.50781 0.1289,-0.27344 0.20703,-0.60547 0.082,-0.33594 0.11328,-0.67969 0.0352,-0.34375 0.0352,-0.73437 0,-0.44922 -0.0742,-0.83203 -0.0742,-0.38672 -0.24219,-0.71875 -0.16406,-0.33594 -0.41797,-0.57032 -0.2539,-0.23437 -0.6289,-0.36718 -0.375,-0.13672 -0.84766,-0.13672 -0.92969,0 -1.48438,0.52734 -0.55078,0.52344 -0.55078,1.35938 0,0.80078 0.52735,1.29297 0.53125,0.48828 1.32812,0.48828 0.46485,0 0.8086,-0.16407 0.34375,-0.16406 0.45703,-0.39062 0,0.34766 -0.0312,0.61328 -0.0312,0.26563 -0.11719,0.51563 -0.0859,0.25 -0.23047,0.41015 -0.14453,0.15625 -0.38281,0.25391 -0.23828,0.0937 -0.5586,0.0937 -0.39843,0 -0.97265,-0.20703 -0.0586,-0.0195 -0.0977,-0.0195 -0.15625,0 -0.26562,0.15625 -0.10938,0.15625 -0.10938,0.33984 0,0.25 0.19531,0.33203 0.57813,0.27734 1.23438,0.27734 z m 0.22266,-2.95703 q -0.47657,0 -0.71485,-0.28515 -0.23828,-0.28516 -0.23828,-0.78125 0,-0.5 0.26563,-0.75782 0.26562,-0.25781 0.7539,-0.25781 0.44922,0 0.71875,0.26953 0.26953,0.26563 0.26953,0.72657 0,0.51562 -0.27343,0.80078 -0.27344,0.28515 -0.78125,0.28515 z"
           inkscape:connector-curvature="0" />
      </g>
      <g
         style="font-style:normal;font-weight:normal;font-size:40px;line-height:1.25;font-family:sans-serif;fill:#cccccc;fill-opacity:1;stroke:none"
         id="text3026"
         aria-label="K10"
         transform="translate(-232.43014,192.94001)">
        <path
           id="path1398"
           style="font-size:8px;fill:#cccccc"
           d="m 330.17975,127.92534 q 0.22656,0 0.39453,-0.16016 0.16797,-0.16015 0.16797,-0.41406 v -2.20313 l 2.08594,2.41407 q 0.0976,0.12109 0.15625,0.18359 0.0586,0.0625 0.15234,0.12109 0.0937,0.0547 0.18359,0.0547 h 0.008 q 0.21484,0 0.38281,-0.15234 0.17187,-0.15235 0.17187,-0.36328 0,-0.20703 -0.15234,-0.41407 l -1.83203,-2.04296 1.64844,-1.78516 q 0.15234,-0.18359 0.15234,-0.37891 0,-0.20312 -0.16016,-0.34375 -0.16015,-0.14453 -0.36328,-0.14453 -0.21094,0 -0.45703,0.30469 l -1.97656,2.24609 v -1.98047 q 0,-0.25781 -0.16797,-0.41796 -0.16797,-0.16016 -0.39453,-0.16016 -0.22656,0 -0.39453,0.16016 -0.16407,0.16015 -0.16407,0.41796 v 4.48438 q 0,0.25781 0.16407,0.41797 0.16406,0.15625 0.39453,0.15625 z"
           inkscape:connector-curvature="0" />
        <path
           id="path1400"
           style="font-size:8px;fill:#cccccc"
           d="m 336.95319,127.92534 q 0.23828,0 0.39453,-0.17188 0.15625,-0.17187 0.15625,-0.45703 l -0.004,-4.35937 q 0,-0.3086 -0.14844,-0.47657 -0.14453,-0.16796 -0.375,-0.16796 -0.15625,0.004 -0.3164,0.10156 l -1.38282,0.8164 q -0.20312,0.125 -0.20312,0.33594 0,0.16016 0.10937,0.28125 0.10938,0.1211 0.26563,0.1211 0.11328,0 0.19922,-0.0586 l 0.75781,-0.46484 0.004,3.84765 q 0,0.3125 0.15234,0.48438 0.15234,0.16797 0.39063,0.16797 z"
           inkscape:connector-curvature="0" />
        <path
           id="path1402"
           style="font-size:8px;fill:#cccccc"
           d="m 341.51178,127.15581 q -0.21094,0 -0.37891,-0.0781 -0.16406,-0.0781 -0.27343,-0.22656 -0.10547,-0.15234 -0.17969,-0.33594 -0.0703,-0.18359 -0.10938,-0.43359 -0.0352,-0.25 -0.0508,-0.48047 -0.0117,-0.23047 -0.0117,-0.51953 0,-0.28906 0.0117,-0.51563 0.0156,-0.23047 0.0508,-0.47656 0.0391,-0.24609 0.10938,-0.42578 0.0742,-0.17969 0.17969,-0.32813 0.10937,-0.14843 0.27343,-0.22265 0.16797,-0.0781 0.37891,-0.0781 0.21094,0 0.375,0.0781 0.16797,0.0742 0.27344,0.22265 0.10937,0.14844 0.17968,0.32813 0.0742,0.17969 0.10938,0.42578 0.0391,0.24609 0.0508,0.47656 0.0156,0.23047 0.0156,0.51563 0,0.28906 -0.0156,0.52344 -0.0117,0.23046 -0.0508,0.48046 -0.0352,0.2461 -0.10938,0.42969 -0.0742,0.1836 -0.18359,0.33594 -0.10547,0.14844 -0.26953,0.22656 -0.16406,0.0781 -0.375,0.0781 z m 0,0.87109 q 0.46875,0 0.83594,-0.16016 0.36718,-0.16406 0.60156,-0.43359 0.23828,-0.27344 0.39062,-0.65625 0.15625,-0.38672 0.21875,-0.80078 0.0625,-0.41797 0.0625,-0.89453 0,-0.48047 -0.0664,-0.89453 -0.0625,-0.41407 -0.21875,-0.78907 -0.15235,-0.3789 -0.39063,-0.64453 -0.23437,-0.26953 -0.60156,-0.42578 -0.36719,-0.16015 -0.83203,-0.16015 -0.47266,0 -0.84375,0.16015 -0.36719,0.16016 -0.60156,0.42969 -0.23438,0.26562 -0.39063,0.64844 -0.15234,0.3789 -0.21484,0.78906 -0.0625,0.41016 -0.0625,0.88672 0,0.48047 0.0625,0.89844 0.0625,0.41406 0.21484,0.80078 0.15625,0.38281 0.39063,0.65234 0.23828,0.26953 0.60547,0.43359 0.37109,0.16016 0.83984,0.16016 z"
           inkscape:connector-curvature="0" />
      </g>
      <g
         style="font-style:normal;font-weight:normal;font-size:40px;line-height:1.25;font-family:sans-serif;fill:#cccccc;fill-opacity:1;stroke:none"
         id="text3032"
         aria-label="K11"
         transform="translate(-232.42365,192.93023)">
        <path
           id="path1442"
           style="font-size:8px;fill:#cccccc"
           d="m 390.17975,127.92534 q 0.22656,0 0.39453,-0.16016 0.16797,-0.16015 0.16797,-0.41406 v -2.20313 l 2.08594,2.41407 q 0.0976,0.12109 0.15625,0.18359 0.0586,0.0625 0.15234,0.12109 0.0937,0.0547 0.18359,0.0547 h 0.008 q 0.21484,0 0.38281,-0.15234 0.17187,-0.15235 0.17187,-0.36328 0,-0.20703 -0.15234,-0.41407 l -1.83203,-2.04296 1.64844,-1.78516 q 0.15234,-0.18359 0.15234,-0.37891 0,-0.20312 -0.16016,-0.34375 -0.16015,-0.14453 -0.36328,-0.14453 -0.21094,0 -0.45703,0.30469 l -1.97656,2.24609 v -1.98047 q 0,-0.25781 -0.16797,-0.41796 -0.16797,-0.16016 -0.39453,-0.16016 -0.22656,0 -0.39453,0.16016 -0.16407,0.16015 -0.16407,0.41796 v 4.48438 q 0,0.25781 0.16407,0.41797 0.16406,0.15625 0.39453,0.15625 z"
           inkscape:connector-curvature="0" />
        <path
           id="path1444"
           style="font-size:8px;fill:#cccccc"
           d="m 396.95319,127.92534 q 0.23828,0 0.39453,-0.17188 0.15625,-0.17187 0.15625,-0.45703 l -0.004,-4.35937 q 0,-0.3086 -0.14844,-0.47657 -0.14453,-0.16796 -0.375,-0.16796 -0.15625,0.004 -0.3164,0.10156 l -1.38282,0.8164 q -0.20312,0.125 -0.20312,0.33594 0,0.16016 0.10937,0.28125 0.10938,0.1211 0.26563,0.1211 0.11328,0 0.19922,-0.0586 l 0.75781,-0.46484 0.004,3.84765 q 0,0.3125 0.15234,0.48438 0.15234,0.16797 0.39063,0.16797 z"
           inkscape:connector-curvature="0" />
        <path
           id="path1446"
           style="font-size:8px;fill:#cccccc"
           d="m 401.76569,127.92534 q 0.23828,0 0.39453,-0.17188 0.15625,-0.17187 0.15625,-0.45703 l -0.004,-4.35937 q 0,-0.3086 -0.14844,-0.47657 -0.14453,-0.16796 -0.375,-0.16796 -0.15625,0.004 -0.3164,0.10156 l -1.38282,0.8164 q -0.20312,0.125 -0.20312,0.33594 0,0.16016 0.10937,0.28125 0.10938,0.1211 0.26563,0.1211 0.11328,0 0.19922,-0.0586 l 0.75781,-0.46484 0.004,3.84765 q 0,0.3125 0.15234,0.48438 0.15234,0.16797 0.39063,0.16797 z"
           inkscape:connector-curvature="0" />
      </g>
      <g
         style="font-style:normal;font-weight:normal;font-size:40px;line-height:1.25;font-family:sans-serif;fill:#cccccc;fill-opacity:1;stroke:none"
         id="text3038"
         aria-label="K12"
         transform="translate(-233.56755,192.93803)">
        <path
           id="path1430"
           style="font-size:8px;fill:#cccccc"
           d="m 450.17975,127.92534 q 0.22656,0 0.39453,-0.16016 0.16797,-0.16015 0.16797,-0.41406 v -2.20313 l 2.08594,2.41407 q 0.0976,0.12109 0.15625,0.18359 0.0586,0.0625 0.15234,0.12109 0.0937,0.0547 0.18359,0.0547 h 0.008 q 0.21484,0 0.38281,-0.15234 0.17187,-0.15235 0.17187,-0.36328 0,-0.20703 -0.15234,-0.41407 l -1.83203,-2.04296 1.64844,-1.78516 q 0.15234,-0.18359 0.15234,-0.37891 0,-0.20312 -0.16016,-0.34375 -0.16015,-0.14453 -0.36328,-0.14453 -0.21094,0 -0.45703,0.30469 l -1.97656,2.24609 v -1.98047 q 0,-0.25781 -0.16797,-0.41796 -0.16797,-0.16016 -0.39453,-0.16016 -0.22656,0 -0.39453,0.16016 -0.16407,0.16015 -0.16407,0.41796 v 4.48438 q 0,0.25781 0.16407,0.41797 0.16406,0.15625 0.39453,0.15625 z"
           inkscape:connector-curvature="0" />
        <path
           id="path1432"
           style="font-size:8px;fill:#cccccc"
           d="m 456.95319,127.92534 q 0.23828,0 0.39453,-0.17188 0.15625,-0.17187 0.15625,-0.45703 l -0.004,-4.35937 q 0,-0.3086 -0.14844,-0.47657 -0.14453,-0.16796 -0.375,-0.16796 -0.15625,0.004 -0.3164,0.10156 l -1.38282,0.8164 q -0.20312,0.125 -0.20312,0.33594 0,0.16016 0.10937,0.28125 0.10938,0.1211 0.26563,0.1211 0.11328,0 0.19922,-0.0586 l 0.75781,-0.46484 0.004,3.84765 q 0,0.3125 0.15234,0.48438 0.15234,0.16797 0.39063,0.16797 z"
           inkscape:connector-curvature="0" />
        <path
           id="path1434"
           style="font-size:8px;fill:#cccccc"
           d="m 463.31256,123.89018 q 0,-0.67969 -0.51172,-1.14844 -0.50781,-0.46875 -1.30469,-0.46875 -0.48046,0 -0.875,0.12891 -0.39453,0.125 -0.78515,0.35547 -0.20313,0.12109 -0.20313,0.32422 0,0.17578 0.14063,0.32812 0.14062,0.15235 0.30078,0.15235 0.0625,0 0.11328,-0.0273 0.0312,-0.0156 0.22656,-0.1289 0.19532,-0.11328 0.28125,-0.14844 0.0859,-0.0391 0.28125,-0.0859 0.19922,-0.0469 0.41797,-0.0469 0.3711,0 0.62891,0.23047 0.26172,0.23046 0.26172,0.59375 0,0.43359 -0.4961,0.91796 l -2.02343,2.01172 q -0.21485,0.21485 -0.21485,0.5 0,0.22657 0.14844,0.38672 0.15234,0.16016 0.41016,0.16016 h 2.78125 q 0.16015,0 0.25,-0.125 0.0898,-0.12891 0.0898,-0.30078 0,-0.17188 -0.0898,-0.29297 -0.0899,-0.125 -0.25,-0.125 h -2.16407 l 1.65235,-1.46485 q 0.93359,-0.8164 0.93359,-1.72656 z"
           inkscape:connector-curvature="0" />
      </g>
    </g>
  </g>
  <g
     aria-label="MpEG"
     id="text12339"
     style="font-size:14.6667px;line-height:1.25;font-family:'LED Counter 7';-inkscape-font-specification:'LED Counter 7, ';fill:#e6e6e6;fill-opacity:1">
    <path
       d="m 90.758583,28.141665 q 0,-0.278668 0.190667,-0.469335 0.190667,-0.190667 0.469335,-0.190667 0.278667,0 0.469334,0.190667 0.190667,0.190667 0.190667,0.469335 0,0.278667 -0.190667,0.469334 -0.190667,0.190667 -0.469334,0.190667 -0.278668,0 -0.469335,-0.190667 -0.190667,-0.190667 -0.190667,-0.469334 z m 5.86668,0 q 0,-0.278668 0.190667,-0.469335 0.190667,-0.190667 0.469335,-0.190667 0.278667,0 0.469334,0.190667 0.190667,0.190667 0.190667,0.469335 0,0.278667 -0.190667,0.469334 -0.190667,0.190667 -0.469334,0.190667 -0.278668,0 -0.469335,-0.190667 -0.190667,-0.190667 -0.190667,-0.469334 z m -5.86668,-1.46667 q 0,-0.278668 0.190667,-0.469335 0.190667,-0.190667 0.469335,-0.190667 0.278667,0 0.469334,0.190667 0.190667,0.190667 0.190667,0.469335 0,0.278667 -0.190667,0.469334 -0.190667,0.190667 -0.469334,0.190667 -0.278668,0 -0.469335,-0.190667 -0.190667,-0.190667 -0.190667,-0.469334 z m 5.86668,0 q 0,-0.278668 0.190667,-0.469335 0.190667,-0.190667 0.469335,-0.190667 0.278667,0 0.469334,0.190667 0.190667,0.190667 0.190667,0.469335 0,0.278667 -0.190667,0.469334 -0.190667,0.190667 -0.469334,0.190667 -0.278668,0 -0.469335,-0.190667 -0.190667,-0.190667 -0.190667,-0.469334 z m -5.86668,-1.46667 q 0,-0.278668 0.190667,-0.469335 0.190667,-0.190667 0.469335,-0.190667 0.278667,0 0.469334,0.190667 0.190667,0.190667 0.190667,0.469335 0,0.278667 -0.190667,0.469334 -0.190667,0.190667 -0.469334,0.190667 -0.278668,0 -0.469335,-0.190667 -0.190667,-0.190667 -0.190667,-0.469334 z m 5.86668,0 q 0,-0.278668 0.190667,-0.469335 0.190667,-0.190667 0.469335,-0.190667 0.278667,0 0.469334,0.190667 0.190667,0.190667 0.190667,0.469335 0,0.278667 -0.190667,0.469334 -0.190667,0.190667 -0.469334,0.190667 -0.278668,0 -0.469335,-0.190667 -0.190667,-0.190667 -0.190667,-0.469334 z m -5.86668,-1.46667 q 0,-0.278668 0.190667,-0.469335 0.190667,-0.190667 0.469335,-0.190667 0.278667,0 0.469334,0.190667 0.190667,0.190667 0.190667,0.469335 0,0.278667 -0.190667,0.469334 -0.190667,0.190667 -0.469334,0.190667 -0.278668,0 -0.469335,-0.190667 -0.190667,-0.190667 -0.190667,-0.469334 z m 2.93334,0 q 0,-0.278668 0.190667,-0.469335 0.190667,-0.190667 0.469335,-0.190667 0.278667,0 0.469334,0.190667 0.190667,0.190667 0.190667,0.469335 0,0.278667 -0.190667,0.469334 -0.190667,0.190667 -0.469334,0.190667 -0.278668,0 -0.469335,-0.190667 -0.190667,-0.190667 -0.190667,-0.469334 z m 2.93334,0 q 0,-0.278668 0.190667,-0.469335 0.190667,-0.190667 0.469335,-0.190667 0.278667,0 0.469334,0.190667 0.190667,0.190667 0.190667,0.469335 0,0.278667 -0.190667,0.469334 -0.190667,0.190667 -0.469334,0.190667 -0.278668,0 -0.469335,-0.190667 -0.190667,-0.190667 -0.190667,-0.469334 z m -5.86668,-1.46667 q 0,-0.278668 0.190667,-0.469335 0.190667,-0.190667 0.469335,-0.190667 0.278667,0 0.469334,0.190667 0.190667,0.190667 0.190667,0.469335 0,0.278667 -0.190667,0.469334 -0.190667,0.190667 -0.469334,0.190667 -0.278668,0 -0.469335,-0.190667 -0.190667,-0.190667 -0.190667,-0.469334 z m 2.93334,0 q 0,-0.278668 0.190667,-0.469335 0.190667,-0.190667 0.469335,-0.190667 0.278667,0 0.469334,0.190667 0.190667,0.190667 0.190667,0.469335 0,0.278667 -0.190667,0.469334 -0.190667,0.190667 -0.469334,0.190667 -0.278668,0 -0.469335,-0.190667 -0.190667,-0.190667 -0.190667,-0.469334 z m 2.93334,0 q 0,-0.278668 0.190667,-0.469335 0.190667,-0.190667 0.469335,-0.190667 0.278667,0 0.469334,0.190667 0.190667,0.190667 0.190667,0.469335 0,0.278667 -0.190667,0.469334 -0.190667,0.190667 -0.469334,0.190667 -0.278668,0 -0.469335,-0.190667 -0.190667,-0.190667 -0.190667,-0.469334 z m -5.86668,-1.46667 q 0,-0.278668 0.190667,-0.469335 0.190667,-0.190667 0.469335,-0.190667 0.278667,0 0.469334,0.190667 0.190667,0.190667 0.190667,0.469335 0,0.278667 -0.190667,0.469334 -0.190667,0.190667 -0.469334,0.190667 -0.278668,0 -0.469335,-0.190667 -0.190667,-0.190667 -0.190667,-0.469334 z m 1.46667,0 q 0,-0.278668 0.190667,-0.469335 0.190667,-0.190667 0.469335,-0.190667 0.278667,0 0.469334,0.190667 0.190667,0.190667 0.190667,0.469335 0,0.278667 -0.190667,0.469334 -0.190667,0.190667 -0.469334,0.190667 -0.278668,0 -0.469335,-0.190667 -0.190667,-0.190667 -0.190667,-0.469334 z m 2.93334,0 q 0,-0.278668 0.190667,-0.469335 0.190667,-0.190667 0.469335,-0.190667 0.278667,0 0.469334,0.190667 0.190667,0.190667 0.190667,0.469335 0,0.278667 -0.190667,0.469334 -0.190667,0.190667 -0.469334,0.190667 -0.278668,0 -0.469335,-0.190667 -0.190667,-0.190667 -0.190667,-0.469334 z m 1.46667,0 q 0,-0.278668 0.190667,-0.469335 0.190667,-0.190667 0.469335,-0.190667 0.278667,0 0.469334,0.190667 0.190667,0.190667 0.190667,0.469335 0,0.278667 -0.190667,0.469334 -0.190667,0.190667 -0.469334,0.190667 -0.278668,0 -0.469335,-0.190667 -0.190667,-0.190667 -0.190667,-0.469334 z m -5.86668,-1.46667 q 0,-0.278668 0.190667,-0.469335 0.190667,-0.190667 0.469335,-0.190667 0.278667,0 0.469334,0.190667 0.190667,0.190667 0.190667,0.469335 0,0.278667 -0.190667,0.469334 -0.190667,0.190667 -0.469334,0.190667 -0.278668,0 -0.469335,-0.190667 -0.190667,-0.190667 -0.190667,-0.469334 z m 5.86668,0 q 0,-0.278668 0.190667,-0.469335 0.190667,-0.190667 0.469335,-0.190667 0.278667,0 0.469334,0.190667 0.190667,0.190667 0.190667,0.469335 0,0.278667 -0.190667,0.469334 -0.190667,0.190667 -0.469334,0.190667 -0.278668,0 -0.469335,-0.190667 -0.190667,-0.190667 -0.190667,-0.469334 z"
       id="path12348" />
    <path
       d="m 99.552875,28.141665 q 0,-0.278668 0.190667,-0.469335 0.190667,-0.190667 0.469338,-0.190667 0.27866,0 0.46933,0.190667 0.19067,0.190667 0.19067,0.469335 0,0.278667 -0.19067,0.469334 -0.19067,0.190667 -0.46933,0.190667 -0.278671,0 -0.469338,-0.190667 -0.190667,-0.190667 -0.190667,-0.469334 z m 1.466665,0 q 0,-0.278668 0.19067,-0.469335 0.19067,-0.190667 0.46934,-0.190667 0.27866,0 0.46933,0.190667 0.19067,0.190667 0.19067,0.469335 0,0.278667 -0.19067,0.469334 -0.19067,0.190667 -0.46933,0.190667 -0.27867,0 -0.46934,-0.190667 -0.19067,-0.190667 -0.19067,-0.469334 z m 1.46667,0 q 0,-0.278668 0.19067,-0.469335 0.19067,-0.190667 0.46934,-0.190667 0.27866,0 0.46933,0.190667 0.19067,0.190667 0.19067,0.469335 0,0.278667 -0.19067,0.469334 -0.19067,0.190667 -0.46933,0.190667 -0.27867,0 -0.46934,-0.190667 -0.19067,-0.190667 -0.19067,-0.469334 z m -2.933335,-1.46667 q 0,-0.278668 0.190667,-0.469335 0.190667,-0.190667 0.469338,-0.190667 0.27866,0 0.46933,0.190667 0.19067,0.190667 0.19067,0.469335 0,0.278667 -0.19067,0.469334 -0.19067,0.190667 -0.46933,0.190667 -0.278671,0 -0.469338,-0.190667 -0.190667,-0.190667 -0.190667,-0.469334 z m 4.400005,0 q 0,-0.278668 0.19067,-0.469335 0.19067,-0.190667 0.46934,-0.190667 0.27866,0 0.46933,0.190667 0.19067,0.190667 0.19067,0.469335 0,0.278667 -0.19067,0.469334 -0.19067,0.190667 -0.46933,0.190667 -0.27867,0 -0.46934,-0.190667 -0.19067,-0.190667 -0.19067,-0.469334 z m -4.400005,-1.46667 q 0,-0.278668 0.190667,-0.469335 0.190667,-0.190667 0.469338,-0.190667 0.27866,0 0.46933,0.190667 0.19067,0.190667 0.19067,0.469335 0,0.278667 -0.19067,0.469334 -0.19067,0.190667 -0.46933,0.190667 -0.278671,0 -0.469338,-0.190667 -0.190667,-0.190667 -0.190667,-0.469334 z m 4.400005,0 q 0,-0.278668 0.19067,-0.469335 0.19067,-0.190667 0.46934,-0.190667 0.27866,0 0.46933,0.190667 0.19067,0.190667 0.19067,0.469335 0,0.278667 -0.19067,0.469334 -0.19067,0.190667 -0.46933,0.190667 -0.27867,0 -0.46934,-0.190667 -0.19067,-0.190667 -0.19067,-0.469334 z m -4.400005,-1.46667 q 0,-0.278668 0.190667,-0.469335 0.190667,-0.190667 0.469338,-0.190667 0.27866,0 0.46933,0.190667 0.19067,0.190667 0.19067,0.469335 0,0.278667 -0.19067,0.469334 -0.19067,0.190667 -0.46933,0.190667 -0.278671,0 -0.469338,-0.190667 -0.190667,-0.190667 -0.190667,-0.469334 z m 4.400005,0 q 0,-0.278668 0.19067,-0.469335 0.19067,-0.190667 0.46934,-0.190667 0.27866,0 0.46933,0.190667 0.19067,0.190667 0.19067,0.469335 0,0.278667 -0.19067,0.469334 -0.19067,0.190667 -0.46933,0.190667 -0.27867,0 -0.46934,-0.190667 -0.19067,-0.190667 -0.19067,-0.469334 z m -4.400005,-1.46667 q 0,-0.278668 0.190667,-0.469335 0.190667,-0.190667 0.469338,-0.190667 0.27866,0 0.46933,0.190667 0.19067,0.190667 0.19067,0.469335 0,0.278667 -0.19067,0.469334 -0.19067,0.190667 -0.46933,0.190667 -0.278671,0 -0.469338,-0.190667 -0.190667,-0.190667 -0.190667,-0.469334 z m 1.466665,0 q 0,-0.278668 0.19067,-0.469335 0.19067,-0.190667 0.46934,-0.190667 0.27866,0 0.46933,0.190667 0.19067,0.190667 0.19067,0.469335 0,0.278667 -0.19067,0.469334 -0.19067,0.190667 -0.46933,0.190667 -0.27867,0 -0.46934,-0.190667 -0.19067,-0.190667 -0.19067,-0.469334 z m 1.46667,0 q 0,-0.278668 0.19067,-0.469335 0.19067,-0.190667 0.46934,-0.190667 0.27866,0 0.46933,0.190667 0.19067,0.190667 0.19067,0.469335 0,0.278667 -0.19067,0.469334 -0.19067,0.190667 -0.46933,0.190667 -0.27867,0 -0.46934,-0.190667 -0.19067,-0.190667 -0.19067,-0.469334 z m -2.933335,7.318683 q 0,-0.278667 0.190667,-0.469334 0.190667,-0.190667 0.469338,-0.190667 0.27866,0 0.46933,0.190667 0.19067,0.190667 0.19067,0.469334 0,0.278667 -0.19067,0.469334 -0.19067,0.190668 -0.46933,0.190668 -0.278671,0 -0.469338,-0.190668 -0.190667,-0.190667 -0.190667,-0.469334 z m 0.01467,1.496004 q 0,-0.278668 0.190667,-0.469335 0.190667,-0.190667 0.469332,-0.190667 0.27867,0 0.46934,0.190667 0.19066,0.190667 0.19066,0.469335 0,0.278667 -0.19066,0.469334 -0.19067,0.190667 -0.46934,0.190667 -0.278665,0 -0.469332,-0.190667 -0.190667,-0.190667 -0.190667,-0.469334 z"
       id="path12350" />
  </g>
  <g
     aria-label="Mapper"
     id="text958"
     style="font-size:14.6667px;line-height:1.25;font-family:Nunito;-inkscape-font-specification:Nunito;fill:#e6e6e6;fill-opacity:1">
    <path
       d="m 106.36304,28.141665 q 0,-0.278668 0.19066,-0.469335 0.19067,-0.190667 0.46934,-0.190667 0.27867,0 0.46933,0.190667 0.19067,0.190667 0.19067,0.469335 0,0.278667 -0.19067,0.469334 -0.19066,0.190667 -0.46933,0.190667 -0.27867,0 -0.46934,-0.190667 -0.19066,-0.190667 -0.19066,-0.469334 z m 5.86668,0 q 0,-0.278668 0.19066,-0.469335 0.19067,-0.190667 0.46934,-0.190667 0.27867,0 0.46933,0.190667 0.19067,0.190667 0.19067,0.469335 0,0.278667 -0.19067,0.469334 -0.19066,0.190667 -0.46933,0.190667 -0.27867,0 -0.46934,-0.190667 -0.19066,-0.190667 -0.19066,-0.469334 z m -5.86668,-1.46667 q 0,-0.278668 0.19066,-0.469335 0.19067,-0.190667 0.46934,-0.190667 0.27867,0 0.46933,0.190667 0.19067,0.190667 0.19067,0.469335 0,0.278667 -0.19067,0.469334 -0.19066,0.190667 -0.46933,0.190667 -0.27867,0 -0.46934,-0.190667 -0.19066,-0.190667 -0.19066,-0.469334 z m 5.86668,0 q 0,-0.278668 0.19066,-0.469335 0.19067,-0.190667 0.46934,-0.190667 0.27867,0 0.46933,0.190667 0.19067,0.190667 0.19067,0.469335 0,0.278667 -0.19067,0.469334 -0.19066,0.190667 -0.46933,0.190667 -0.27867,0 -0.46934,-0.190667 -0.19066,-0.190667 -0.19066,-0.469334 z m -5.86668,-1.46667 q 0,-0.278668 0.19066,-0.469335 0.19067,-0.190667 0.46934,-0.190667 0.27867,0 0.46933,0.190667 0.19067,0.190667 0.19067,0.469335 0,0.278667 -0.19067,0.469334 -0.19066,0.190667 -0.46933,0.190667 -0.27867,0 -0.46934,-0.190667 -0.19066,-0.190667 -0.19066,-0.469334 z m 5.86668,0 q 0,-0.278668 0.19066,-0.469335 0.19067,-0.190667 0.46934,-0.190667 0.27867,0 0.46933,0.190667 0.19067,0.190667 0.19067,0.469335 0,0.278667 -0.19067,0.469334 -0.19066,0.190667 -0.46933,0.190667 -0.27867,0 -0.46934,-0.190667 -0.19066,-0.190667 -0.19066,-0.469334 z m -5.86668,-1.46667 q 0,-0.278668 0.19066,-0.469335 0.19067,-0.190667 0.46934,-0.190667 0.27867,0 0.46933,0.190667 0.19067,0.190667 0.19067,0.469335 0,0.278667 -0.19067,0.469334 -0.19066,0.190667 -0.46933,0.190667 -0.27867,0 -0.46934,-0.190667 -0.19066,-0.190667 -0.19066,-0.469334 z m 2.93334,0 q 0,-0.278668 0.19066,-0.469335 0.19067,-0.190667 0.46934,-0.190667 0.27867,0 0.46933,0.190667 0.19067,0.190667 0.19067,0.469335 0,0.278667 -0.19067,0.469334 -0.19066,0.190667 -0.46933,0.190667 -0.27867,0 -0.46934,-0.190667 -0.19066,-0.190667 -0.19066,-0.469334 z m 2.93334,0 q 0,-0.278668 0.19066,-0.469335 0.19067,-0.190667 0.46934,-0.190667 0.27867,0 0.46933,0.190667 0.19067,0.190667 0.19067,0.469335 0,0.278667 -0.19067,0.469334 -0.19066,0.190667 -0.46933,0.190667 -0.27867,0 -0.46934,-0.190667 -0.19066,-0.190667 -0.19066,-0.469334 z m -5.86668,-1.46667 q 0,-0.278668 0.19066,-0.469335 0.19067,-0.190667 0.46934,-0.190667 0.27867,0 0.46933,0.190667 0.19067,0.190667 0.19067,0.469335 0,0.278667 -0.19067,0.469334 -0.19066,0.190667 -0.46933,0.190667 -0.27867,0 -0.46934,-0.190667 -0.19066,-0.190667 -0.19066,-0.469334 z m 2.93334,0 q 0,-0.278668 0.19066,-0.469335 0.19067,-0.190667 0.46934,-0.190667 0.27867,0 0.46933,0.190667 0.19067,0.190667 0.19067,0.469335 0,0.278667 -0.19067,0.469334 -0.19066,0.190667 -0.46933,0.190667 -0.27867,0 -0.46934,-0.190667 -0.19066,-0.190667 -0.19066,-0.469334 z m 2.93334,0 q 0,-0.278668 0.19066,-0.469335 0.19067,-0.190667 0.46934,-0.190667 0.27867,0 0.46933,0.190667 0.19067,0.190667 0.19067,0.469335 0,0.278667 -0.19067,0.469334 -0.19066,0.190667 -0.46933,0.190667 -0.27867,0 -0.46934,-0.190667 -0.19066,-0.190667 -0.19066,-0.469334 z m -5.86668,-1.46667 q 0,-0.278668 0.19066,-0.469335 0.19067,-0.190667 0.46934,-0.190667 0.27867,0 0.46933,0.190667 0.19067,0.190667 0.19067,0.469335 0,0.278667 -0.19067,0.469334 -0.19066,0.190667 -0.46933,0.190667 -0.27867,0 -0.46934,-0.190667 -0.19066,-0.190667 -0.19066,-0.469334 z m 1.46667,0 q 0,-0.278668 0.19066,-0.469335 0.19067,-0.190667 0.46934,-0.190667 0.27867,0 0.46933,0.190667 0.19067,0.190667 0.19067,0.469335 0,0.278667 -0.19067,0.469334 -0.19066,0.190667 -0.46933,0.190667 -0.27867,0 -0.46934,-0.190667 -0.19066,-0.190667 -0.19066,-0.469334 z m 2.93334,0 q 0,-0.278668 0.19066,-0.469335 0.19067,-0.190667 0.46934,-0.190667 0.27867,0 0.46933,0.190667 0.19067,0.190667 0.19067,0.469335 0,0.278667 -0.19067,0.469334 -0.19066,0.190667 -0.46933,0.190667 -0.27867,0 -0.46934,-0.190667 -0.19066,-0.190667 -0.19066,-0.469334 z m 1.46667,0 q 0,-0.278668 0.19066,-0.469335 0.19067,-0.190667 0.46934,-0.190667 0.27867,0 0.46933,0.190667 0.19067,0.190667 0.19067,0.469335 0,0.278667 -0.19067,0.469334 -0.19066,0.190667 -0.46933,0.190667 -0.27867,0 -0.46934,-0.190667 -0.19066,-0.190667 -0.19066,-0.469334 z m -5.86668,-1.46667 q 0,-0.278668 0.19066,-0.469335 0.19067,-0.190667 0.46934,-0.190667 0.27867,0 0.46933,0.190667 0.19067,0.190667 0.19067,0.469335 0,0.278667 -0.19067,0.469334 -0.19066,0.190667 -0.46933,0.190667 -0.27867,0 -0.46934,-0.190667 -0.19066,-0.190667 -0.19066,-0.469334 z m 5.86668,0 q 0,-0.278668 0.19066,-0.469335 0.19067,-0.190667 0.46934,-0.190667 0.27867,0 0.46933,0.190667 0.19067,0.190667 0.19067,0.469335 0,0.278667 -0.19067,0.469334 -0.19066,0.190667 -0.46933,0.190667 -0.27867,0 -0.46934,-0.190667 -0.19066,-0.190667 -0.19066,-0.469334 z"
       style="font-style:normal;font-variant:normal;font-weight:normal;font-stretch:normal;font-family:'LED Counter 7';-inkscape-font-specification:'LED Counter 7, ';fill:#e6e6e6;fill-opacity:1"
       id="path954" />
    <path
       d="m 116.624,28.141665 q 0,-0.278668 0.19067,-0.469335 0.19066,-0.190667 0.46933,-0.190667 0.27867,0 0.46933,0.190667 0.19067,0.190667 0.19067,0.469335 0,0.278667 -0.19067,0.469334 -0.19066,0.190667 -0.46933,0.190667 -0.27867,0 -0.46933,-0.190667 -0.19067,-0.190667 -0.19067,-0.469334 z m 1.46667,0 q 0,-0.278668 0.19067,-0.469335 0.19066,-0.190667 0.46933,-0.190667 0.27867,0 0.46933,0.190667 0.19067,0.190667 0.19067,0.469335 0,0.278667 -0.19067,0.469334 -0.19066,0.190667 -0.46933,0.190667 -0.27867,0 -0.46933,-0.190667 -0.19067,-0.190667 -0.19067,-0.469334 z m 1.46667,0 q 0,-0.278668 0.19067,-0.469335 0.19066,-0.190667 0.46933,-0.190667 0.27867,0 0.46933,0.190667 0.19067,0.190667 0.19067,0.469335 0,0.278667 -0.19067,0.469334 -0.19066,0.190667 -0.46933,0.190667 -0.27867,0 -0.46933,-0.190667 -0.19067,-0.190667 -0.19067,-0.469334 z m -4.40001,-1.46667 q 0,-0.278668 0.19067,-0.469335 0.19066,-0.190667 0.46933,-0.190667 0.27867,0 0.46933,0.190667 0.19067,0.190667 0.19067,0.469335 0,0.278667 -0.19067,0.469334 -0.19066,0.190667 -0.46933,0.190667 -0.27867,0 -0.46933,-0.190667 -0.19067,-0.190667 -0.19067,-0.469334 z m 4.40001,0 q 0,-0.278668 0.19067,-0.469335 0.19066,-0.190667 0.46933,-0.190667 0.27867,0 0.46933,0.190667 0.19067,0.190667 0.19067,0.469335 0,0.278667 -0.19067,0.469334 -0.19066,0.190667 -0.46933,0.190667 -0.27867,0 -0.46933,-0.190667 -0.19067,-0.190667 -0.19067,-0.469334 z m -4.40001,-1.46667 q 0,-0.278668 0.19067,-0.469335 0.19066,-0.190667 0.46933,-0.190667 0.27867,0 0.46933,0.190667 0.19067,0.190667 0.19067,0.469335 0,0.278667 -0.19067,0.469334 -0.19066,0.190667 -0.46933,0.190667 -0.27867,0 -0.46933,-0.190667 -0.19067,-0.190667 -0.19067,-0.469334 z m 4.40001,0 q 0,-0.278668 0.19067,-0.469335 0.19066,-0.190667 0.46933,-0.190667 0.27867,0 0.46933,0.190667 0.19067,0.190667 0.19067,0.469335 0,0.278667 -0.19067,0.469334 -0.19066,0.190667 -0.46933,0.190667 -0.27867,0 -0.46933,-0.190667 -0.19067,-0.190667 -0.19067,-0.469334 z m -4.40001,-1.46667 q 0,-0.278668 0.19067,-0.469335 0.19066,-0.190667 0.46933,-0.190667 0.27867,0 0.46933,0.190667 0.19067,0.190667 0.19067,0.469335 0,0.278667 -0.19067,0.469334 -0.19066,0.190667 -0.46933,0.190667 -0.27867,0 -0.46933,-0.190667 -0.19067,-0.190667 -0.19067,-0.469334 z m 4.40001,0 q 0,-0.278668 0.19067,-0.469335 0.19066,-0.190667 0.46933,-0.190667 0.27867,0 0.46933,0.190667 0.19067,0.190667 0.19067,0.469335 0,0.278667 -0.19067,0.469334 -0.19066,0.190667 -0.46933,0.190667 -0.27867,0 -0.46933,-0.190667 -0.19067,-0.190667 -0.19067,-0.469334 z m -2.93334,-1.46667 q 0,-0.278668 0.19067,-0.469335 0.19066,-0.190667 0.46933,-0.190667 0.27867,0 0.46933,0.190667 0.19067,0.190667 0.19067,0.469335 0,0.278667 -0.19067,0.469334 -0.19066,0.190667 -0.46933,0.190667 -0.27867,0 -0.46933,-0.190667 -0.19067,-0.190667 -0.19067,-0.469334 z m 1.46667,0 q 0,-0.278668 0.19067,-0.469335 0.19066,-0.190667 0.46933,-0.190667 0.27867,0 0.46933,0.190667 0.19067,0.190667 0.19067,0.469335 0,0.278667 -0.19067,0.469334 -0.19066,0.190667 -0.46933,0.190667 -0.27867,0 -0.46933,-0.190667 -0.19067,-0.190667 -0.19067,-0.469334 z m 1.46667,0 q 0,-0.278668 0.19067,-0.469335 0.19066,-0.190667 0.46933,-0.190667 0.27867,0 0.46933,0.190667 0.19067,0.190667 0.19067,0.469335 0,0.278667 -0.19067,0.469334 -0.19066,0.190667 -0.46933,0.190667 -0.27867,0 -0.46933,-0.190667 -0.19067,-0.190667 -0.19067,-0.469334 z"
       style="font-style:normal;font-variant:normal;font-weight:normal;font-stretch:normal;font-family:'LED Counter 7';-inkscape-font-specification:'LED Counter 7, ';fill:#e6e6e6;fill-opacity:1"
       id="path956" />
    <path
       d="m 122.49068,28.141665 q 0,-0.278668 0.19067,-0.469335 0.19066,-0.190667 0.46933,-0.190667 0.27867,0 0.46933,0.190667 0.19067,0.190667 0.19067,0.469335 0,0.278667 -0.19067,0.469334 -0.19066,0.190667 -0.46933,0.190667 -0.27867,0 -0.46933,-0.190667 -0.19067,-0.190667 -0.19067,-0.469334 z m 1.46667,0 q 0,-0.278668 0.19067,-0.469335 0.19066,-0.190667 0.46933,-0.190667 0.27867,0 0.46933,0.190667 0.19067,0.190667 0.19067,0.469335 0,0.278667 -0.19067,0.469334 -0.19066,0.190667 -0.46933,0.190667 -0.27867,0 -0.46933,-0.190667 -0.19067,-0.190667 -0.19067,-0.469334 z m 1.46667,0 q 0,-0.278668 0.19067,-0.469335 0.19066,-0.190667 0.46933,-0.190667 0.27867,0 0.46933,0.190667 0.19067,0.190667 0.19067,0.469335 0,0.278667 -0.19067,0.469334 -0.19066,0.190667 -0.46933,0.190667 -0.27867,0 -0.46933,-0.190667 -0.19067,-0.190667 -0.19067,-0.469334 z m -2.93334,-1.46667 q 0,-0.278668 0.19067,-0.469335 0.19066,-0.190667 0.46933,-0.190667 0.27867,0 0.46933,0.190667 0.19067,0.190667 0.19067,0.469335 0,0.278667 -0.19067,0.469334 -0.19066,0.190667 -0.46933,0.190667 -0.27867,0 -0.46933,-0.190667 -0.19067,-0.190667 -0.19067,-0.469334 z m 4.40001,0 q 0,-0.278668 0.19067,-0.469335 0.19066,-0.190667 0.46933,-0.190667 0.27867,0 0.46933,0.190667 0.19067,0.190667 0.19067,0.469335 0,0.278667 -0.19067,0.469334 -0.19066,0.190667 -0.46933,0.190667 -0.27867,0 -0.46933,-0.190667 -0.19067,-0.190667 -0.19067,-0.469334 z m -4.40001,-1.46667 q 0,-0.278668 0.19067,-0.469335 0.19066,-0.190667 0.46933,-0.190667 0.27867,0 0.46933,0.190667 0.19067,0.190667 0.19067,0.469335 0,0.278667 -0.19067,0.469334 -0.19066,0.190667 -0.46933,0.190667 -0.27867,0 -0.46933,-0.190667 -0.19067,-0.190667 -0.19067,-0.469334 z m 4.40001,0 q 0,-0.278668 0.19067,-0.469335 0.19066,-0.190667 0.46933,-0.190667 0.27867,0 0.46933,0.190667 0.19067,0.190667 0.19067,0.469335 0,0.278667 -0.19067,0.469334 -0.19066,0.190667 -0.46933,0.190667 -0.27867,0 -0.46933,-0.190667 -0.19067,-0.190667 -0.19067,-0.469334 z m -4.40001,-1.46667 q 0,-0.278668 0.19067,-0.469335 0.19066,-0.190667 0.46933,-0.190667 0.27867,0 0.46933,0.190667 0.19067,0.190667 0.19067,0.469335 0,0.278667 -0.19067,0.469334 -0.19066,0.190667 -0.46933,0.190667 -0.27867,0 -0.46933,-0.190667 -0.19067,-0.190667 -0.19067,-0.469334 z m 4.40001,0 q 0,-0.278668 0.19067,-0.469335 0.19066,-0.190667 0.46933,-0.190667 0.27867,0 0.46933,0.190667 0.19067,0.190667 0.19067,0.469335 0,0.278667 -0.19067,0.469334 -0.19066,0.190667 -0.46933,0.190667 -0.27867,0 -0.46933,-0.190667 -0.19067,-0.190667 -0.19067,-0.469334 z m -4.40001,-1.46667 q 0,-0.278668 0.19067,-0.469335 0.19066,-0.190667 0.46933,-0.190667 0.27867,0 0.46933,0.190667 0.19067,0.190667 0.19067,0.469335 0,0.278667 -0.19067,0.469334 -0.19066,0.190667 -0.46933,0.190667 -0.27867,0 -0.46933,-0.190667 -0.19067,-0.190667 -0.19067,-0.469334 z m 1.46667,0 q 0,-0.278668 0.19067,-0.469335 0.19066,-0.190667 0.46933,-0.190667 0.27867,0 0.46933,0.190667 0.19067,0.190667 0.19067,0.469335 0,0.278667 -0.19067,0.469334 -0.19066,0.190667 -0.46933,0.190667 -0.27867,0 -0.46933,-0.190667 -0.19067,-0.190667 -0.19067,-0.469334 z m 1.46667,0 q 0,-0.278668 0.19067,-0.469335 0.19066,-0.190667 0.46933,-0.190667 0.27867,0 0.46933,0.190667 0.19067,0.190667 0.19067,0.469335 0,0.278667 -0.19067,0.469334 -0.19066,0.190667 -0.46933,0.190667 -0.27867,0 -0.46933,-0.190667 -0.19067,-0.190667 -0.19067,-0.469334 z m -2.93334,7.318683 q 0,-0.278667 0.19067,-0.469334 0.19066,-0.190667 0.46933,-0.190667 0.27867,0 0.46933,0.190667 0.19067,0.190667 0.19067,0.469334 0,0.278667 -0.19067,0.469334 -0.19066,0.190668 -0.46933,0.190668 -0.27867,0 -0.46933,-0.190668 -0.19067,-0.190667 -0.19067,-0.469334 z m 0.0147,1.496004 q 0,-0.278668 0.19066,-0.469335 0.19067,-0.190667 0.46934,-0.190667 0.27866,0 0.46933,0.190667 0.19067,0.190667 0.19067,0.469335 0,0.278667 -0.19067,0.469334 -0.19067,0.190667 -0.46933,0.190667 -0.27867,0 -0.46934,-0.190667 -0.19066,-0.190667 -0.19066,-0.469334 z"
       style="font-style:normal;font-variant:normal;font-weight:normal;font-stretch:normal;font-family:'LED Counter 7';-inkscape-font-specification:'LED Counter 7, ';fill:#e6e6e6;fill-opacity:1"
       id="path958" />
    <path
       d="m 129.82403,28.141665 q 0,-0.278668 0.19067,-0.469335 0.19066,-0.190667 0.46933,-0.190667 0.27867,0 0.46933,0.190667 0.19067,0.190667 0.19067,0.469335 0,0.278667 -0.19067,0.469334 -0.19066,0.190667 -0.46933,0.190667 -0.27867,0 -0.46933,-0.190667 -0.19067,-0.190667 -0.19067,-0.469334 z m 1.46667,0 q 0,-0.278668 0.19067,-0.469335 0.19066,-0.190667 0.46933,-0.190667 0.27867,0 0.46933,0.190667 0.19067,0.190667 0.19067,0.469335 0,0.278667 -0.19067,0.469334 -0.19066,0.190667 -0.46933,0.190667 -0.27867,0 -0.46933,-0.190667 -0.19067,-0.190667 -0.19067,-0.469334 z m 1.46667,0 q 0,-0.278668 0.19067,-0.469335 0.19066,-0.190667 0.46933,-0.190667 0.27867,0 0.46933,0.190667 0.19067,0.190667 0.19067,0.469335 0,0.278667 -0.19067,0.469334 -0.19066,0.190667 -0.46933,0.190667 -0.27867,0 -0.46933,-0.190667 -0.19067,-0.190667 -0.19067,-0.469334 z m -2.93334,-1.46667 q 0,-0.278668 0.19067,-0.469335 0.19066,-0.190667 0.46933,-0.190667 0.27867,0 0.46933,0.190667 0.19067,0.190667 0.19067,0.469335 0,0.278667 -0.19067,0.469334 -0.19066,0.190667 -0.46933,0.190667 -0.27867,0 -0.46933,-0.190667 -0.19067,-0.190667 -0.19067,-0.469334 z m 4.40001,0 q 0,-0.278668 0.19067,-0.469335 0.19066,-0.190667 0.46933,-0.190667 0.27867,0 0.46933,0.190667 0.19067,0.190667 0.19067,0.469335 0,0.278667 -0.19067,0.469334 -0.19066,0.190667 -0.46933,0.190667 -0.27867,0 -0.46933,-0.190667 -0.19067,-0.190667 -0.19067,-0.469334 z m -4.40001,-1.46667 q 0,-0.278668 0.19067,-0.469335 0.19066,-0.190667 0.46933,-0.190667 0.27867,0 0.46933,0.190667 0.19067,0.190667 0.19067,0.469335 0,0.278667 -0.19067,0.469334 -0.19066,0.190667 -0.46933,0.190667 -0.27867,0 -0.46933,-0.190667 -0.19067,-0.190667 -0.19067,-0.469334 z m 4.40001,0 q 0,-0.278668 0.19067,-0.469335 0.19066,-0.190667 0.46933,-0.190667 0.27867,0 0.46933,0.190667 0.19067,0.190667 0.19067,0.469335 0,0.278667 -0.19067,0.469334 -0.19066,0.190667 -0.46933,0.190667 -0.27867,0 -0.46933,-0.190667 -0.19067,-0.190667 -0.19067,-0.469334 z m -4.40001,-1.46667 q 0,-0.278668 0.19067,-0.469335 0.19066,-0.190667 0.46933,-0.190667 0.27867,0 0.46933,0.190667 0.19067,0.190667 0.19067,0.469335 0,0.278667 -0.19067,0.469334 -0.19066,0.190667 -0.46933,0.190667 -0.27867,0 -0.46933,-0.190667 -0.19067,-0.190667 -0.19067,-0.469334 z m 4.40001,0 q 0,-0.278668 0.19067,-0.469335 0.19066,-0.190667 0.46933,-0.190667 0.27867,0 0.46933,0.190667 0.19067,0.190667 0.19067,0.469335 0,0.278667 -0.19067,0.469334 -0.19066,0.190667 -0.46933,0.190667 -0.27867,0 -0.46933,-0.190667 -0.19067,-0.190667 -0.19067,-0.469334 z m -4.40001,-1.46667 q 0,-0.278668 0.19067,-0.469335 0.19066,-0.190667 0.46933,-0.190667 0.27867,0 0.46933,0.190667 0.19067,0.190667 0.19067,0.469335 0,0.278667 -0.19067,0.469334 -0.19066,0.190667 -0.46933,0.190667 -0.27867,0 -0.46933,-0.190667 -0.19067,-0.190667 -0.19067,-0.469334 z m 1.46667,0 q 0,-0.278668 0.19067,-0.469335 0.19066,-0.190667 0.46933,-0.190667 0.27867,0 0.46933,0.190667 0.19067,0.190667 0.19067,0.469335 0,0.278667 -0.19067,0.469334 -0.19066,0.190667 -0.46933,0.190667 -0.27867,0 -0.46933,-0.190667 -0.19067,-0.190667 -0.19067,-0.469334 z m 1.46667,0 q 0,-0.278668 0.19067,-0.469335 0.19066,-0.190667 0.46933,-0.190667 0.27867,0 0.46933,0.190667 0.19067,0.190667 0.19067,0.469335 0,0.278667 -0.19067,0.469334 -0.19066,0.190667 -0.46933,0.190667 -0.27867,0 -0.46933,-0.190667 -0.19067,-0.190667 -0.19067,-0.469334 z m -2.93334,7.318683 q 0,-0.278667 0.19067,-0.469334 0.19066,-0.190667 0.46933,-0.190667 0.27867,0 0.46933,0.190667 0.19067,0.190667 0.19067,0.469334 0,0.278667 -0.19067,0.469334 -0.19066,0.190668 -0.46933,0.190668 -0.27867,0 -0.46933,-0.190668 -0.19067,-0.190667 -0.19067,-0.469334 z m 0.0147,1.496004 q 0,-0.278668 0.19067,-0.469335 0.19067,-0.190667 0.46934,-0.190667 0.27866,0 0.46933,0.190667 0.19067,0.190667 0.19067,0.469335 0,0.278667 -0.19067,0.469334 -0.19067,0.190667 -0.46933,0.190667 -0.27867,0 -0.46934,-0.190667 -0.19067,-0.190667 -0.19067,-0.469334 z"
       style="font-style:normal;font-variant:normal;font-weight:normal;font-stretch:normal;font-family:'LED Counter 7';-inkscape-font-specification:'LED Counter 7, ';fill:#e6e6e6;fill-opacity:1"
       id="path960" />
    <path
       d="m 138.62405,28.141665 q 0,-0.278668 0.19067,-0.469335 0.19066,-0.190667 0.46933,-0.190667 0.27867,0 0.46934,0.190667 0.19066,0.190667 0.19066,0.469335 0,0.278667 -0.19066,0.469334 -0.19067,0.190667 -0.46934,0.190667 -0.27867,0 -0.46933,-0.190667 -0.19067,-0.190667 -0.19067,-0.469334 z m 1.46667,0 q 0,-0.278668 0.19067,-0.469335 0.19066,-0.190667 0.46933,-0.190667 0.27867,0 0.46934,0.190667 0.19066,0.190667 0.19066,0.469335 0,0.278667 -0.19066,0.469334 -0.19067,0.190667 -0.46934,0.190667 -0.27867,0 -0.46933,-0.190667 -0.19067,-0.190667 -0.19067,-0.469334 z m 1.46667,0 q 0,-0.278668 0.19067,-0.469335 0.19066,-0.190667 0.46933,-0.190667 0.27867,0 0.46934,0.190667 0.19066,0.190667 0.19066,0.469335 0,0.278667 -0.19066,0.469334 -0.19067,0.190667 -0.46934,0.190667 -0.27867,0 -0.46933,-0.190667 -0.19067,-0.190667 -0.19067,-0.469334 z m -4.40001,-1.46667 q 0,-0.278668 0.19067,-0.469335 0.19066,-0.190667 0.46933,-0.190667 0.27867,0 0.46934,0.190667 0.19066,0.190667 0.19066,0.469335 0,0.278667 -0.19066,0.469334 -0.19067,0.190667 -0.46934,0.190667 -0.27867,0 -0.46933,-0.190667 -0.19067,-0.190667 -0.19067,-0.469334 z m 0,-1.46667 q 0,-0.278668 0.19067,-0.469335 0.19066,-0.190667 0.46933,-0.190667 0.27867,0 0.46934,0.190667 0.19066,0.190667 0.19066,0.469335 0,0.278667 -0.19066,0.469334 -0.19067,0.190667 -0.46934,0.190667 -0.27867,0 -0.46933,-0.190667 -0.19067,-0.190667 -0.19067,-0.469334 z m 1.46667,0 q 0,-0.278668 0.19067,-0.469335 0.19066,-0.190667 0.46933,-0.190667 0.27867,0 0.46934,0.190667 0.19066,0.190667 0.19066,0.469335 0,0.278667 -0.19066,0.469334 -0.19067,0.190667 -0.46934,0.190667 -0.27867,0 -0.46933,-0.190667 -0.19067,-0.190667 -0.19067,-0.469334 z m 1.46667,0 q 0,-0.278668 0.19067,-0.469335 0.19066,-0.190667 0.46933,-0.190667 0.27867,0 0.46934,0.190667 0.19066,0.190667 0.19066,0.469335 0,0.278667 -0.19066,0.469334 -0.19067,0.190667 -0.46934,0.190667 -0.27867,0 -0.46933,-0.190667 -0.19067,-0.190667 -0.19067,-0.469334 z m 1.46667,0 q 0,-0.278668 0.19067,-0.469335 0.19066,-0.190667 0.46933,-0.190667 0.27867,0 0.46934,0.190667 0.19066,0.190667 0.19066,0.469335 0,0.278667 -0.19066,0.469334 -0.19067,0.190667 -0.46934,0.190667 -0.27867,0 -0.46933,-0.190667 -0.19067,-0.190667 -0.19067,-0.469334 z m -4.40001,-1.46667 q 0,-0.278668 0.19067,-0.469335 0.19066,-0.190667 0.46933,-0.190667 0.27867,0 0.46934,0.190667 0.19066,0.190667 0.19066,0.469335 0,0.278667 -0.19066,0.469334 -0.19067,0.190667 -0.46934,0.190667 -0.27867,0 -0.46933,-0.190667 -0.19067,-0.190667 -0.19067,-0.469334 z m 4.40001,0 q 0,-0.278668 0.19067,-0.469335 0.19066,-0.190667 0.46933,-0.190667 0.27867,0 0.46934,0.190667 0.19066,0.190667 0.19066,0.469335 0,0.278667 -0.19066,0.469334 -0.19067,0.190667 -0.46934,0.190667 -0.27867,0 -0.46933,-0.190667 -0.19067,-0.190667 -0.19067,-0.469334 z m -2.93334,-1.46667 q 0,-0.278668 0.19067,-0.469335 0.19066,-0.190667 0.46933,-0.190667 0.27867,0 0.46934,0.190667 0.19066,0.190667 0.19066,0.469335 0,0.278667 -0.19066,0.469334 -0.19067,0.190667 -0.46934,0.190667 -0.27867,0 -0.46933,-0.190667 -0.19067,-0.190667 -0.19067,-0.469334 z m 1.46667,0 q 0,-0.278668 0.19067,-0.469335 0.19066,-0.190667 0.46933,-0.190667 0.27867,0 0.46934,0.190667 0.19066,0.190667 0.19066,0.469335 0,0.278667 -0.19066,0.469334 -0.19067,0.190667 -0.46934,0.190667 -0.27867,0 -0.46933,-0.190667 -0.19067,-0.190667 -0.19067,-0.469334 z"
       style="font-style:normal;font-variant:normal;font-weight:normal;font-stretch:normal;font-family:'LED Counter 7';-inkscape-font-specification:'LED Counter 7, ';fill:#e6e6e6;fill-opacity:1"
       id="path962" />
    <path
       d="m 144.49073,28.141665 q 0,-0.278668 0.19067,-0.469335 0.19066,-0.190667 0.46933,-0.190667 0.27867,0 0.46934,0.190667 0.19066,0.190667 0.19066,0.469335 0,0.278667 -0.19066,0.469334 -0.19067,0.190667 -0.46934,0.190667 -0.27867,0 -0.46933,-0.190667 -0.19067,-0.190667 -0.19067,-0.469334 z m 0,-1.46667 q 0,-0.278668 0.19067,-0.469335 0.19066,-0.190667 0.46933,-0.190667 0.27867,0 0.46934,0.190667 0.19066,0.190667 0.19066,0.469335 0,0.278667 -0.19066,0.469334 -0.19067,0.190667 -0.46934,0.190667 -0.27867,0 -0.46933,-0.190667 -0.19067,-0.190667 -0.19067,-0.469334 z m 0,-1.46667 q 0,-0.278668 0.19067,-0.469335 0.19066,-0.190667 0.46933,-0.190667 0.27867,0 0.46934,0.190667 0.19066,0.190667 0.19066,0.469335 0,0.278667 -0.19066,0.469334 -0.19067,0.190667 -0.46934,0.190667 -0.27867,0 -0.46933,-0.190667 -0.19067,-0.190667 -0.19067,-0.469334 z m 0,-1.46667 q 0,-0.278668 0.19067,-0.469335 0.19066,-0.190667 0.46933,-0.190667 0.27867,0 0.46934,0.190667 0.19066,0.190667 0.19066,0.469335 0,0.278667 -0.19066,0.469334 -0.19067,0.190667 -0.46934,0.190667 -0.27867,0 -0.46933,-0.190667 -0.19067,-0.190667 -0.19067,-0.469334 z m 4.40001,0 q 0,-0.278668 0.19067,-0.469335 0.19066,-0.190667 0.46933,-0.190667 0.27867,0 0.46934,0.190667 0.19066,0.190667 0.19066,0.469335 0,0.278667 -0.19066,0.469334 -0.19067,0.190667 -0.46934,0.190667 -0.27867,0 -0.46933,-0.190667 -0.19067,-0.190667 -0.19067,-0.469334 z m -4.40001,-1.46667 q 0,-0.278668 0.19067,-0.469335 0.19066,-0.190667 0.46933,-0.190667 0.27867,0 0.46934,0.190667 0.19066,0.190667 0.19066,0.469335 0,0.278667 -0.19066,0.469334 -0.19067,0.190667 -0.46934,0.190667 -0.27867,0 -0.46933,-0.190667 -0.19067,-0.190667 -0.19067,-0.469334 z m 1.46667,0 q 0,-0.278668 0.19067,-0.469335 0.19066,-0.190667 0.46933,-0.190667 0.27867,0 0.46934,0.190667 0.19066,0.190667 0.19066,0.469335 0,0.278667 -0.19066,0.469334 -0.19067,0.190667 -0.46934,0.190667 -0.27867,0 -0.46933,-0.190667 -0.19067,-0.190667 -0.19067,-0.469334 z m 1.46667,0 q 0,-0.278668 0.19067,-0.469335 0.19066,-0.190667 0.46933,-0.190667 0.27867,0 0.46934,0.190667 0.19066,0.190667 0.19066,0.469335 0,0.278667 -0.19066,0.469334 -0.19067,0.190667 -0.46934,0.190667 -0.27867,0 -0.46933,-0.190667 -0.19067,-0.190667 -0.19067,-0.469334 z"
       style="font-style:normal;font-variant:normal;font-weight:normal;font-stretch:normal;font-family:'LED Counter 7';-inkscape-font-specification:'LED Counter 7, ';fill:#e6e6e6;fill-opacity:1"
       id="path964" />
  </g>
</svg>
